<?xml version="1.0" encoding="utf-8"?>
<!-- Generator: Adobe Illustrator 15.0.0, SVG Export Plug-In . SVG Version: 6.00 Build 0)  -->
<!DOCTYPE svg PUBLIC "-//W3C//DTD SVG 1.1 Basic//EN" "http://www.w3.org/Graphics/SVG/1.1/DTD/svg11-basic.dtd">
<svg version="1.1" baseProfile="basic" id="Layer_1"
	 xmlns="http://www.w3.org/2000/svg" xmlns:xlink="http://www.w3.org/1999/xlink" x="0px" y="0px" width="775px" height="241.9px"
	 viewBox="-322 391.775 775 241.9" xml:space="preserve">
<rect x="393.294" y="563.46" fill="#999999" stroke="#000000" stroke-miterlimit="10" width="5.156" height="63.043"/>
<rect x="444.55" y="563.46" fill="#999999" stroke="#000000" stroke-miterlimit="10" width="5.156" height="63.043"/>
<path fill="#999999" stroke="#000000" stroke-miterlimit="10" d="M421.5,558.87c2.262,0,4.095,1.833,4.095,4.095v66.116
	c0,2.262-1.833,4.095-4.095,4.095l0,0c-2.261,0-4.094-1.833-4.094-4.095v-66.116C417.406,560.703,419.239,558.87,421.5,558.87
	L421.5,558.87z"/>
<g id="breadboard">
	<g id="icon_1_">
		<path fill="none" stroke="#231F20" stroke-width="18" d="M204.634,457.9c0,0,23.016-11.01,54.069-20
			c61.596-17.834,154.819-27.724,162.797,72"/>
		<path fill="none" stroke="#231F20" stroke-width="18" d="M-74.418,456.742c0,0-204.866-98-216.866,52"/>
		<path stroke="#FFFFFF" stroke-width="0.25" d="M207.634,527.962c0,7.828-6.346,14.174-14.173,14.174H-67.327
			c-7.828,0-14.173-6.346-14.173-14.174v-121.89c0-7.827,6.346-14.173,14.173-14.173h260.788c7.827,0,14.173,6.346,14.173,14.173
			V527.962z"/>
		<g>
			<path fill="#999999" stroke="#FFFFFF" stroke-width="0.25" d="M98.065,518.9H72.554c-7.827,0-14.173,4.307-14.173,9.619v13.617
				h53.858v-13.617C112.239,523.207,105.894,518.9,98.065,518.9z"/>
			<g>
				<path d="M71.201,527.363h-0.525v-2.729c0-0.086,0-0.177,0.001-0.274s0.003-0.195,0.006-0.292s0.007-0.189,0.01-0.278
					c0.003-0.088,0.005-0.167,0.007-0.234c-0.034,0.036-0.063,0.066-0.09,0.093c-0.025,0.026-0.052,0.051-0.079,0.074
					c-0.026,0.024-0.055,0.05-0.085,0.077c-0.03,0.026-0.065,0.058-0.107,0.094l-0.442,0.361l-0.287-0.367l1.145-0.894h0.448
					V527.363z"/>
			</g>
			<g>
				<path d="M100.75,524.014c0,0.146-0.023,0.278-0.069,0.398c-0.046,0.119-0.109,0.223-0.192,0.311s-0.182,0.16-0.298,0.217
					c-0.115,0.057-0.244,0.097-0.386,0.121v0.018c0.354,0.044,0.621,0.156,0.805,0.337c0.184,0.18,0.275,0.415,0.275,0.704
					c0,0.19-0.033,0.366-0.098,0.525c-0.064,0.16-0.163,0.297-0.294,0.413c-0.132,0.115-0.299,0.205-0.5,0.269
					c-0.201,0.064-0.439,0.096-0.714,0.096c-0.218,0-0.422-0.017-0.614-0.051c-0.192-0.033-0.374-0.096-0.543-0.186v-0.508
					c0.174,0.092,0.361,0.162,0.563,0.212s0.396,0.075,0.581,0.075c0.184,0,0.342-0.021,0.476-0.06
					c0.134-0.04,0.244-0.097,0.33-0.171c0.087-0.073,0.15-0.164,0.191-0.271c0.041-0.108,0.062-0.229,0.062-0.362
					c0-0.136-0.026-0.251-0.079-0.348s-0.128-0.177-0.226-0.239c-0.098-0.063-0.217-0.109-0.357-0.14
					c-0.141-0.029-0.3-0.045-0.477-0.045h-0.397v-0.451h0.397c0.161,0,0.305-0.02,0.431-0.06c0.125-0.04,0.23-0.097,0.315-0.171
					c0.084-0.073,0.148-0.161,0.192-0.263s0.065-0.213,0.065-0.335c0-0.104-0.018-0.196-0.054-0.277
					c-0.035-0.082-0.087-0.151-0.152-0.208s-0.145-0.101-0.236-0.13c-0.092-0.03-0.193-0.045-0.305-0.045
					c-0.213,0-0.401,0.033-0.563,0.1c-0.162,0.067-0.317,0.154-0.465,0.262l-0.275-0.374c0.076-0.062,0.16-0.119,0.253-0.173
					s0.194-0.102,0.304-0.142c0.109-0.041,0.227-0.073,0.351-0.098c0.125-0.023,0.257-0.036,0.396-0.036
					c0.215,0,0.404,0.027,0.566,0.081s0.299,0.129,0.408,0.226s0.192,0.211,0.248,0.344S100.75,523.857,100.75,524.014z"/>
			</g>
			<path fill="#999999" stroke="#999999" d="M135.351,488.279c0,7.826-6.346,14.172-14.174,14.172H4.956
				c-7.827,0-14.173-6.346-14.173-14.172v-42.521c0-7.826,6.346-14.172,14.173-14.172h116.221c7.828,0,14.174,6.346,14.174,14.172
				V488.279z"/>
			<path fill="#404040" d="M4.956,502.451h116.221c7.828,0,14.174-6.346,14.174-14.172H-9.217
				C-9.217,496.105-2.871,502.451,4.956,502.451z"/>
			<g>
				<path d="M86.491,527.363h-2.727v-0.467l1.046-1.139c0.149-0.161,0.283-0.309,0.4-0.442c0.118-0.134,0.218-0.264,0.301-0.392
					c0.083-0.127,0.146-0.256,0.19-0.384c0.043-0.129,0.065-0.269,0.065-0.42c0-0.118-0.018-0.222-0.051-0.312
					c-0.034-0.09-0.082-0.166-0.146-0.229c-0.062-0.062-0.137-0.11-0.223-0.142c-0.085-0.032-0.181-0.048-0.287-0.048
					c-0.188,0-0.359,0.038-0.513,0.115c-0.152,0.076-0.297,0.175-0.435,0.294l-0.305-0.355c0.079-0.072,0.165-0.14,0.257-0.202
					s0.19-0.117,0.296-0.163s0.218-0.082,0.335-0.108c0.117-0.027,0.241-0.041,0.371-0.041c0.19,0,0.363,0.027,0.519,0.081
					c0.154,0.054,0.285,0.131,0.393,0.231s0.191,0.224,0.25,0.368s0.088,0.308,0.088,0.488c0,0.17-0.026,0.331-0.079,0.484
					s-0.126,0.305-0.218,0.453c-0.093,0.148-0.204,0.297-0.332,0.447c-0.129,0.149-0.268,0.305-0.417,0.466l-0.84,0.894v0.024h2.06
					V527.363z"/>
			</g>
			<g>
				<path d="M15.235,445.341c0,0.355-0.054,0.697-0.161,1.025s-0.284,0.618-0.53,0.87s-0.571,0.453-0.976,0.604
					s-0.903,0.226-1.497,0.226h-0.879v3.334h-1.09v-8.566h2.121c0.523,0,0.975,0.056,1.354,0.167s0.691,0.273,0.938,0.486
					s0.428,0.476,0.545,0.788S15.235,444.943,15.235,445.341z M11.192,447.14h0.756c0.363,0,0.681-0.031,0.952-0.094
					s0.496-0.163,0.674-0.302s0.312-0.318,0.401-0.539s0.135-0.489,0.135-0.806c0-0.555-0.16-0.966-0.48-1.233
					s-0.82-0.401-1.5-0.401h-0.938V447.14z"/>
				<path d="M22.114,448.171c0,0.535-0.065,1.011-0.196,1.427s-0.318,0.766-0.562,1.049s-0.54,0.499-0.888,0.647
					s-0.738,0.223-1.172,0.223c-0.402,0-0.773-0.074-1.113-0.223s-0.634-0.364-0.882-0.647s-0.441-0.633-0.58-1.049
					s-0.208-0.892-0.208-1.427c0-0.531,0.065-1.003,0.196-1.415s0.317-0.76,0.56-1.043s0.538-0.498,0.888-0.645
					s0.741-0.22,1.175-0.22c0.402,0,0.773,0.073,1.113,0.22s0.634,0.361,0.882,0.645s0.441,0.631,0.58,1.043
					S22.114,447.64,22.114,448.171z M17.614,448.171c0,0.816,0.134,1.431,0.401,1.843s0.702,0.618,1.304,0.618
					s1.034-0.206,1.298-0.618s0.396-1.026,0.396-1.843s-0.134-1.427-0.401-1.831s-0.702-0.606-1.304-0.606s-1.034,0.202-1.298,0.606
					S17.614,447.355,17.614,448.171z"/>
				<path d="M28.683,451.4l-0.984-3.609c-0.016-0.07-0.035-0.149-0.059-0.237s-0.047-0.181-0.07-0.278s-0.048-0.197-0.073-0.299
					s-0.05-0.201-0.073-0.299c-0.055-0.227-0.111-0.461-0.17-0.703h-0.035c-0.055,0.246-0.107,0.482-0.158,0.709
					c-0.043,0.195-0.089,0.396-0.138,0.604s-0.095,0.383-0.138,0.527l-1.008,3.586H24.54l-1.646-6.434h1.119l0.768,3.422
					c0.039,0.176,0.078,0.366,0.117,0.571s0.076,0.408,0.111,0.609s0.066,0.391,0.094,0.568s0.049,0.323,0.064,0.437h0.035
					c0.02-0.102,0.046-0.237,0.079-0.407s0.07-0.35,0.111-0.539s0.083-0.377,0.126-0.562s0.084-0.343,0.123-0.472l1.049-3.627h1.148
					l1.008,3.627c0.035,0.133,0.075,0.289,0.12,0.469s0.089,0.362,0.132,0.548s0.082,0.364,0.117,0.536s0.061,0.314,0.076,0.428
					h0.035c0.012-0.102,0.03-0.237,0.056-0.407s0.056-0.356,0.091-0.56s0.073-0.411,0.114-0.624s0.083-0.411,0.126-0.595
					l0.803-3.422h1.09l-1.664,6.434H28.683z"/>
				<path d="M35.292,451.517c-0.43,0-0.822-0.072-1.178-0.217s-0.661-0.355-0.917-0.633s-0.454-0.621-0.595-1.031
					s-0.211-0.879-0.211-1.406c0-0.531,0.064-1.006,0.193-1.424s0.311-0.772,0.545-1.063s0.515-0.513,0.841-0.665
					s0.687-0.229,1.081-0.229c0.387,0,0.734,0.069,1.043,0.208s0.57,0.334,0.785,0.586s0.38,0.555,0.495,0.908
					s0.173,0.745,0.173,1.175v0.662h-4.055c0.02,0.754,0.179,1.309,0.478,1.664s0.743,0.533,1.333,0.533
					c0.199,0,0.384-0.01,0.554-0.029s0.334-0.048,0.492-0.085s0.312-0.084,0.46-0.141s0.299-0.12,0.451-0.19v0.949
					c-0.156,0.074-0.31,0.139-0.46,0.193s-0.305,0.1-0.463,0.135s-0.322,0.061-0.492,0.076S35.491,451.517,35.292,451.517z
					 M35.028,445.734c-0.445,0-0.798,0.152-1.058,0.457s-0.411,0.748-0.454,1.33h2.883c0-0.266-0.026-0.509-0.079-0.729
					s-0.135-0.409-0.246-0.565s-0.253-0.277-0.425-0.363S35.271,445.734,35.028,445.734z"/>
				<path d="M41.954,444.849c0.113,0,0.24,0.005,0.381,0.015s0.262,0.024,0.363,0.044l-0.141,0.984
					c-0.109-0.02-0.222-0.036-0.337-0.05s-0.224-0.021-0.325-0.021c-0.246,0-0.471,0.05-0.674,0.149s-0.378,0.242-0.524,0.428
					s-0.26,0.408-0.34,0.668s-0.12,0.548-0.12,0.864v3.469h-1.066v-6.434h0.867l0.129,1.178h0.047
					c0.098-0.168,0.202-0.33,0.313-0.486s0.236-0.294,0.375-0.413s0.294-0.215,0.466-0.287S41.735,444.849,41.954,444.849z"/>
				<path d="M48.616,449.109c0,0.379-0.067,0.718-0.202,1.017s-0.327,0.552-0.577,0.759s-0.555,0.364-0.914,0.472
					s-0.764,0.161-1.213,0.161c-0.434,0-0.839-0.034-1.216-0.103s-0.692-0.169-0.946-0.302v-1.043
					c0.133,0.062,0.284,0.124,0.454,0.185s0.349,0.114,0.536,0.161s0.381,0.085,0.58,0.114s0.396,0.044,0.592,0.044
					c0.625,0,1.087-0.117,1.386-0.352s0.448-0.57,0.448-1.008c0-0.211-0.028-0.395-0.085-0.551s-0.156-0.3-0.299-0.431
					s-0.333-0.258-0.571-0.381s-0.539-0.257-0.902-0.401c-0.348-0.137-0.649-0.286-0.905-0.448s-0.467-0.345-0.633-0.548
					s-0.289-0.434-0.369-0.691s-0.12-0.551-0.12-0.879c0-0.344,0.062-0.65,0.188-0.92s0.301-0.497,0.527-0.683
					s0.497-0.327,0.812-0.425s0.661-0.146,1.04-0.146c0.465,0,0.883,0.044,1.254,0.132s0.701,0.2,0.99,0.337l-0.393,0.914
					c-0.254-0.113-0.542-0.212-0.864-0.296s-0.655-0.126-0.999-0.126c-0.477,0-0.846,0.11-1.107,0.331s-0.393,0.519-0.393,0.894
					c0,0.223,0.029,0.415,0.088,0.577s0.156,0.309,0.293,0.439s0.317,0.254,0.542,0.369s0.501,0.237,0.829,0.366
					c0.355,0.141,0.667,0.285,0.935,0.434s0.491,0.316,0.671,0.504s0.315,0.404,0.407,0.65S48.616,448.773,48.616,449.109z"/>
				<path d="M55.073,451.4l-0.984-3.609c-0.016-0.07-0.035-0.149-0.059-0.237s-0.047-0.181-0.07-0.278s-0.048-0.197-0.073-0.299
					s-0.05-0.201-0.073-0.299c-0.055-0.227-0.111-0.461-0.17-0.703h-0.035c-0.055,0.246-0.107,0.482-0.158,0.709
					c-0.043,0.195-0.089,0.396-0.138,0.604s-0.095,0.383-0.138,0.527l-1.008,3.586h-1.236l-1.646-6.434h1.119l0.768,3.422
					c0.039,0.176,0.078,0.366,0.117,0.571s0.076,0.408,0.111,0.609s0.066,0.391,0.094,0.568s0.049,0.323,0.064,0.437h0.035
					c0.02-0.102,0.046-0.237,0.079-0.407s0.07-0.35,0.111-0.539s0.083-0.377,0.126-0.562s0.084-0.343,0.123-0.472l1.049-3.627h1.148
					l1.008,3.627c0.035,0.133,0.075,0.289,0.12,0.469s0.089,0.362,0.132,0.548s0.082,0.364,0.117,0.536s0.061,0.314,0.076,0.428
					h0.035c0.012-0.102,0.03-0.237,0.056-0.407s0.056-0.356,0.091-0.56s0.073-0.411,0.114-0.624s0.083-0.411,0.126-0.595
					l0.803-3.422h1.09l-1.664,6.434H55.073z"/>
				<path d="M59.058,443.226c0-0.234,0.06-0.404,0.179-0.51s0.267-0.158,0.442-0.158c0.086,0,0.167,0.013,0.243,0.038
					s0.143,0.065,0.199,0.12s0.102,0.124,0.135,0.208s0.05,0.185,0.05,0.302c0,0.227-0.062,0.396-0.185,0.507
					s-0.271,0.167-0.442,0.167c-0.176,0-0.323-0.055-0.442-0.164S59.058,443.457,59.058,443.226z M60.206,451.4H59.14v-6.434h1.066
					V451.4z"/>
				<path d="M64.19,450.644c0.07,0,0.149-0.004,0.237-0.012s0.173-0.018,0.255-0.029s0.157-0.025,0.226-0.041
					s0.12-0.029,0.155-0.041v0.809c-0.051,0.023-0.115,0.047-0.193,0.07s-0.164,0.044-0.258,0.062s-0.191,0.031-0.293,0.041
					s-0.201,0.015-0.299,0.015c-0.242,0-0.467-0.031-0.674-0.094s-0.386-0.17-0.536-0.322s-0.269-0.358-0.354-0.618
					s-0.129-0.587-0.129-0.981v-3.732h-0.908v-0.475l0.908-0.457l0.457-1.348h0.615v1.477h1.617v0.803h-1.617v3.732
					c0,0.379,0.062,0.664,0.185,0.855S63.909,450.644,64.19,450.644z"/>
				<path d="M68.772,451.517c-0.395,0-0.764-0.062-1.107-0.185s-0.643-0.318-0.896-0.586s-0.453-0.609-0.598-1.025
					s-0.217-0.917-0.217-1.503c0-0.613,0.074-1.134,0.223-1.562s0.353-0.775,0.612-1.043s0.563-0.462,0.911-0.583
					s0.721-0.182,1.119-0.182c0.305,0,0.603,0.033,0.894,0.1s0.534,0.148,0.729,0.246l-0.316,0.902
					c-0.09-0.039-0.189-0.077-0.299-0.114s-0.223-0.07-0.34-0.1s-0.232-0.053-0.346-0.07s-0.221-0.026-0.322-0.026
					c-0.613,0-1.061,0.196-1.342,0.589s-0.422,1.003-0.422,1.831c0,0.824,0.142,1.427,0.425,1.808s0.714,0.571,1.292,0.571
					c0.316,0,0.603-0.036,0.858-0.108s0.489-0.157,0.7-0.255v0.949c-0.211,0.113-0.437,0.199-0.677,0.258
					S69.12,451.517,68.772,451.517z"/>
				<path d="M75.886,451.4v-4.143c0-0.508-0.103-0.889-0.308-1.143s-0.526-0.381-0.964-0.381c-0.316,0-0.582,0.051-0.797,0.152
					s-0.388,0.252-0.519,0.451s-0.225,0.443-0.281,0.732s-0.085,0.621-0.085,0.996v3.334h-1.066v-9.117h1.066v2.707l-0.047,0.844
					h0.059c0.098-0.168,0.214-0.313,0.349-0.437s0.282-0.226,0.442-0.308s0.33-0.143,0.51-0.182s0.363-0.059,0.551-0.059
					c0.715,0,1.253,0.187,1.614,0.56s0.542,0.97,0.542,1.79v4.201H75.886z"/>
				<path d="M84.692,451.4h-1.096v-7.605h-2.449v-0.961h5.988v0.961h-2.443V451.4z"/>
				<path d="M91.185,451.4l-0.217-0.891h-0.047c-0.129,0.176-0.258,0.327-0.387,0.454s-0.27,0.231-0.422,0.313
					s-0.322,0.143-0.51,0.182s-0.404,0.059-0.65,0.059c-0.27,0-0.518-0.038-0.744-0.114s-0.423-0.193-0.589-0.352
					s-0.296-0.357-0.39-0.598s-0.141-0.524-0.141-0.853c0-0.641,0.226-1.133,0.677-1.477s1.138-0.531,2.06-0.562l1.078-0.041v-0.404
					c0-0.262-0.028-0.48-0.085-0.656s-0.139-0.317-0.246-0.425s-0.24-0.185-0.398-0.231s-0.339-0.07-0.542-0.07
					c-0.324,0-0.626,0.047-0.905,0.141s-0.548,0.207-0.806,0.34l-0.375-0.803c0.289-0.156,0.611-0.289,0.967-0.398
					s0.729-0.164,1.119-0.164c0.398,0,0.743,0.04,1.034,0.12s0.531,0.207,0.721,0.381s0.331,0.396,0.425,0.665
					s0.141,0.596,0.141,0.979v4.406H91.185z M89.228,450.656c0.238,0,0.459-0.037,0.662-0.111s0.379-0.187,0.527-0.337
					s0.265-0.34,0.349-0.568s0.126-0.497,0.126-0.806v-0.58l-0.838,0.041c-0.352,0.016-0.646,0.055-0.885,0.117
					s-0.429,0.149-0.571,0.261s-0.245,0.246-0.308,0.404s-0.094,0.337-0.094,0.536c0,0.359,0.095,0.623,0.284,0.791
					S88.919,450.656,89.228,450.656z"/>
				<path d="M93.845,443.226c0-0.234,0.06-0.404,0.179-0.51s0.267-0.158,0.442-0.158c0.086,0,0.167,0.013,0.243,0.038
					s0.143,0.065,0.199,0.12s0.102,0.124,0.135,0.208s0.05,0.185,0.05,0.302c0,0.227-0.062,0.396-0.185,0.507
					s-0.271,0.167-0.442,0.167c-0.176,0-0.323-0.055-0.442-0.164S93.845,443.457,93.845,443.226z M94.993,451.4h-1.066v-6.434h1.066
					V451.4z"/>
				<path d="M98.099,451.4h-1.066v-9.117h1.066V451.4z"/>
				<path d="M105.821,451.4h-3.105v-0.598l1.008-0.24v-6.891l-1.008-0.24v-0.598h3.105v0.598l-1.008,0.24v6.891l1.008,0.24V451.4z"
					/>
				<path d="M109.888,451.4h-3.105v-0.598l1.008-0.24v-6.891l-1.008-0.24v-0.598h3.105v0.598l-1.008,0.24v6.891l1.008,0.24V451.4z"
					/>
			</g>
			<g>
				<path fill="#FFFFFF" d="M4.672,497.9H3.727v-4.904c0-0.153,0.001-0.318,0.002-0.494c0.002-0.175,0.006-0.35,0.011-0.523
					c0.006-0.174,0.011-0.34,0.017-0.499c0.005-0.159,0.01-0.3,0.013-0.422c-0.061,0.064-0.115,0.12-0.161,0.167
					c-0.046,0.046-0.094,0.091-0.142,0.134c-0.049,0.043-0.1,0.089-0.153,0.137c-0.054,0.049-0.118,0.104-0.193,0.169l-0.795,0.65
					l-0.516-0.66l2.057-1.606h0.806V497.9z"/>
				<path fill="#FFFFFF" d="M7.702,492.599c0-0.141,0.018-0.258,0.054-0.353s0.084-0.172,0.145-0.23
					c0.061-0.06,0.132-0.102,0.215-0.126c0.083-0.025,0.172-0.038,0.269-0.038c0.093,0,0.182,0.013,0.266,0.038
					c0.084,0.024,0.157,0.066,0.218,0.126c0.061,0.059,0.109,0.136,0.145,0.23s0.054,0.212,0.054,0.353
					c0,0.132-0.018,0.245-0.054,0.338s-0.084,0.17-0.145,0.23c-0.061,0.062-0.133,0.106-0.218,0.135
					c-0.084,0.028-0.172,0.043-0.266,0.043c-0.097,0-0.186-0.015-0.269-0.043s-0.154-0.073-0.215-0.135
					c-0.061-0.061-0.109-0.138-0.145-0.23S7.702,492.731,7.702,492.599z M7.702,497.304c0-0.137,0.018-0.252,0.054-0.347
					s0.084-0.172,0.145-0.231c0.061-0.059,0.132-0.102,0.215-0.129c0.083-0.026,0.172-0.04,0.269-0.04
					c0.093,0,0.182,0.014,0.266,0.04c0.084,0.027,0.157,0.07,0.218,0.129c0.061,0.06,0.109,0.137,0.145,0.231
					s0.054,0.21,0.054,0.347c0,0.132-0.018,0.246-0.054,0.341s-0.084,0.173-0.145,0.233s-0.133,0.105-0.218,0.135
					c-0.084,0.028-0.172,0.043-0.266,0.043c-0.097,0-0.186-0.015-0.269-0.043c-0.083-0.029-0.154-0.074-0.215-0.135
					s-0.109-0.139-0.145-0.233S7.702,497.436,7.702,497.304z"/>
				<path fill="#FFFFFF" d="M15.345,494.425h-2.079v-0.807h2.079v-2.089h0.806v2.089h2.079v0.807H16.15v2.067h-0.806V494.425z"/>
				<path fill="#FFFFFF" d="M22.494,490.408c0-0.215,0.055-0.371,0.164-0.468c0.109-0.097,0.244-0.146,0.405-0.146
					c0.079,0,0.153,0.012,0.223,0.035c0.07,0.023,0.131,0.061,0.183,0.11c0.052,0.05,0.093,0.113,0.124,0.19
					c0.03,0.077,0.045,0.17,0.045,0.277c0,0.207-0.056,0.362-0.169,0.464c-0.112,0.103-0.248,0.153-0.405,0.153
					c-0.161,0-0.296-0.05-0.405-0.15C22.548,490.774,22.494,490.619,22.494,490.408z M23.546,497.9h-0.978v-5.897h0.978V497.9z"/>
				<path fill="#FFFFFF" d="M29.1,497.9v-3.797c0-0.466-0.094-0.815-0.281-1.048s-0.482-0.349-0.884-0.349
					c-0.29,0-0.534,0.046-0.73,0.139c-0.197,0.094-0.355,0.231-0.475,0.414c-0.12,0.183-0.206,0.406-0.258,0.672
					c-0.052,0.265-0.078,0.568-0.078,0.912v3.057h-0.978v-5.897h0.795l0.14,0.795h0.054c0.089-0.154,0.196-0.287,0.319-0.4
					c0.124-0.112,0.259-0.206,0.406-0.282c0.147-0.074,0.303-0.13,0.467-0.166s0.333-0.054,0.505-0.054
					c0.654,0,1.148,0.171,1.479,0.513c0.332,0.342,0.498,0.889,0.498,1.641v3.852H29.1z"/>
				<path fill="#FFFFFF" d="M47.803,497.9h-4.898v-0.838l1.88-2.047c0.269-0.289,0.509-0.555,0.72-0.795
					c0.211-0.239,0.392-0.474,0.54-0.703s0.262-0.459,0.341-0.69c0.079-0.23,0.118-0.482,0.118-0.755
					c0-0.211-0.03-0.396-0.091-0.559c-0.062-0.16-0.148-0.298-0.261-0.41c-0.113-0.113-0.246-0.198-0.4-0.256
					c-0.154-0.057-0.326-0.086-0.516-0.086c-0.34,0-0.647,0.069-0.921,0.207c-0.274,0.138-0.535,0.314-0.781,0.529l-0.549-0.639
					c0.144-0.129,0.298-0.25,0.463-0.363c0.164-0.112,0.342-0.21,0.531-0.293c0.189-0.082,0.391-0.147,0.602-0.195
					c0.211-0.049,0.434-0.072,0.666-0.072c0.344,0,0.654,0.048,0.932,0.145s0.514,0.235,0.707,0.416s0.343,0.401,0.448,0.661
					s0.158,0.552,0.158,0.878c0,0.305-0.048,0.595-0.143,0.87s-0.226,0.547-0.392,0.813c-0.167,0.267-0.365,0.535-0.597,0.803
					c-0.23,0.27-0.48,0.549-0.749,0.838l-1.51,1.606v0.043h3.701V497.9z"/>
				<path fill="#FFFFFF" d="M49.236,492.599c0-0.141,0.019-0.258,0.055-0.353c0.035-0.095,0.084-0.172,0.145-0.23
					c0.061-0.06,0.133-0.102,0.215-0.126c0.082-0.025,0.172-0.038,0.269-0.038c0.093,0,0.182,0.013,0.266,0.038
					c0.084,0.024,0.157,0.066,0.218,0.126c0.061,0.059,0.109,0.136,0.145,0.23c0.036,0.095,0.055,0.212,0.055,0.353
					c0,0.132-0.019,0.245-0.055,0.338c-0.035,0.093-0.084,0.17-0.145,0.23c-0.061,0.062-0.134,0.106-0.218,0.135
					s-0.173,0.043-0.266,0.043c-0.097,0-0.187-0.015-0.269-0.043s-0.154-0.073-0.215-0.135c-0.061-0.061-0.109-0.138-0.145-0.23
					C49.255,492.844,49.236,492.731,49.236,492.599z M49.236,497.304c0-0.137,0.019-0.252,0.055-0.347
					c0.035-0.095,0.084-0.172,0.145-0.231c0.061-0.059,0.133-0.102,0.215-0.129c0.082-0.026,0.172-0.04,0.269-0.04
					c0.093,0,0.182,0.014,0.266,0.04c0.084,0.027,0.157,0.07,0.218,0.129c0.061,0.06,0.109,0.137,0.145,0.231
					c0.036,0.095,0.055,0.21,0.055,0.347c0,0.132-0.019,0.246-0.055,0.341c-0.035,0.095-0.084,0.173-0.145,0.233
					s-0.134,0.105-0.218,0.135c-0.084,0.028-0.173,0.043-0.266,0.043c-0.097,0-0.187-0.015-0.269-0.043
					c-0.082-0.029-0.154-0.074-0.215-0.135s-0.109-0.139-0.145-0.233C49.255,497.55,49.236,497.436,49.236,497.304z"/>
				<path fill="#FFFFFF" d="M54.693,495.402V494.5h2.664v0.902H54.693z"/>
				<path fill="#FFFFFF" d="M58.652,490.408c0-0.215,0.055-0.371,0.164-0.468s0.244-0.146,0.405-0.146
					c0.079,0,0.153,0.012,0.223,0.035c0.07,0.023,0.131,0.061,0.183,0.11s0.094,0.113,0.124,0.19s0.046,0.17,0.046,0.277
					c0,0.207-0.057,0.362-0.17,0.464c-0.112,0.103-0.248,0.153-0.405,0.153c-0.161,0-0.296-0.05-0.405-0.15
					S58.652,490.619,58.652,490.408z M59.705,497.9h-0.978v-5.897h0.978V497.9z"/>
				<path fill="#FFFFFF" d="M65.258,497.9v-3.797c0-0.466-0.094-0.815-0.282-1.048c-0.188-0.232-0.482-0.349-0.884-0.349
					c-0.289,0-0.533,0.046-0.73,0.139c-0.196,0.094-0.354,0.231-0.475,0.414s-0.206,0.406-0.258,0.672
					c-0.052,0.265-0.078,0.568-0.078,0.912v3.057h-0.978v-5.897h0.795l0.14,0.795h0.054c0.09-0.154,0.196-0.287,0.319-0.4
					c0.124-0.112,0.259-0.206,0.406-0.282c0.146-0.074,0.302-0.13,0.467-0.166s0.333-0.054,0.505-0.054
					c0.655,0,1.148,0.171,1.479,0.513s0.497,0.889,0.497,1.641v3.852H65.258z"/>
				<path fill="#FFFFFF" d="M80.852,491.884c0,0.262-0.042,0.5-0.124,0.715s-0.198,0.4-0.347,0.559
					c-0.148,0.157-0.326,0.287-0.534,0.389c-0.208,0.103-0.438,0.175-0.692,0.218v0.032c0.633,0.079,1.115,0.28,1.444,0.604
					s0.494,0.745,0.494,1.265c0,0.344-0.059,0.659-0.175,0.945s-0.293,0.533-0.529,0.741s-0.535,0.369-0.896,0.483
					s-0.789,0.172-1.283,0.172c-0.391,0-0.759-0.03-1.104-0.092c-0.346-0.061-0.67-0.172-0.975-0.332v-0.914
					c0.312,0.165,0.649,0.292,1.013,0.382s0.711,0.134,1.045,0.134c0.329,0,0.613-0.035,0.854-0.107
					c0.24-0.071,0.438-0.173,0.594-0.306c0.155-0.133,0.271-0.296,0.344-0.489s0.109-0.409,0.109-0.649
					c0-0.243-0.047-0.452-0.142-0.626s-0.23-0.316-0.405-0.43c-0.176-0.112-0.39-0.195-0.643-0.25
					c-0.252-0.053-0.538-0.08-0.856-0.08h-0.714v-0.811h0.714c0.29,0,0.548-0.036,0.773-0.107c0.226-0.072,0.414-0.174,0.566-0.307
					s0.268-0.29,0.347-0.473s0.118-0.383,0.118-0.602c0-0.187-0.032-0.353-0.097-0.5c-0.064-0.146-0.156-0.271-0.273-0.373
					c-0.119-0.102-0.26-0.18-0.425-0.233s-0.348-0.081-0.548-0.081c-0.383,0-0.721,0.061-1.013,0.181s-0.57,0.276-0.835,0.47
					l-0.494-0.672c0.136-0.11,0.287-0.215,0.454-0.311c0.166-0.098,0.348-0.183,0.545-0.256s0.407-0.131,0.631-0.174
					s0.461-0.064,0.712-0.064c0.387,0,0.726,0.048,1.018,0.145s0.536,0.231,0.733,0.405s0.346,0.38,0.446,0.618
					C80.801,491.341,80.852,491.601,80.852,491.884z"/>
				<path fill="#FFFFFF" d="M82.537,492.599c0-0.141,0.019-0.258,0.055-0.353c0.035-0.095,0.084-0.172,0.145-0.23
					c0.061-0.06,0.133-0.102,0.215-0.126c0.082-0.025,0.172-0.038,0.269-0.038c0.093,0,0.182,0.013,0.266,0.038
					c0.084,0.024,0.157,0.066,0.218,0.126c0.061,0.059,0.109,0.136,0.145,0.23c0.036,0.095,0.055,0.212,0.055,0.353
					c0,0.132-0.019,0.245-0.055,0.338c-0.035,0.093-0.084,0.17-0.145,0.23c-0.061,0.062-0.134,0.106-0.218,0.135
					s-0.173,0.043-0.266,0.043c-0.097,0-0.187-0.015-0.269-0.043s-0.154-0.073-0.215-0.135c-0.061-0.061-0.109-0.138-0.145-0.23
					C82.556,492.844,82.537,492.731,82.537,492.599z M82.537,497.304c0-0.137,0.019-0.252,0.055-0.347
					c0.035-0.095,0.084-0.172,0.145-0.231c0.061-0.059,0.133-0.102,0.215-0.129c0.082-0.026,0.172-0.04,0.269-0.04
					c0.093,0,0.182,0.014,0.266,0.04c0.084,0.027,0.157,0.07,0.218,0.129c0.061,0.06,0.109,0.137,0.145,0.231
					c0.036,0.095,0.055,0.21,0.055,0.347c0,0.132-0.019,0.246-0.055,0.341c-0.035,0.095-0.084,0.173-0.145,0.233
					s-0.134,0.105-0.218,0.135c-0.084,0.028-0.173,0.043-0.266,0.043c-0.097,0-0.187-0.015-0.269-0.043
					c-0.082-0.029-0.154-0.074-0.215-0.135s-0.109-0.139-0.145-0.233C82.556,497.55,82.537,497.436,82.537,497.304z"/>
				<path fill="#FFFFFF" d="M91.754,493.753h2.6v3.852c-0.197,0.064-0.396,0.121-0.597,0.172c-0.2,0.05-0.406,0.092-0.617,0.126
					s-0.434,0.06-0.666,0.077c-0.232,0.019-0.483,0.027-0.752,0.027c-0.562,0-1.06-0.094-1.493-0.282
					c-0.434-0.188-0.799-0.456-1.096-0.806c-0.297-0.349-0.522-0.773-0.677-1.272c-0.154-0.5-0.23-1.062-0.23-1.685
					c0-0.615,0.085-1.172,0.255-1.67s0.418-0.921,0.743-1.271c0.326-0.349,0.729-0.617,1.206-0.806
					c0.479-0.188,1.023-0.281,1.636-0.281c0.397,0,0.779,0.039,1.145,0.117c0.365,0.079,0.705,0.193,1.02,0.344l-0.387,0.871
					c-0.129-0.062-0.268-0.119-0.416-0.172c-0.148-0.055-0.302-0.102-0.459-0.143s-0.319-0.074-0.486-0.1
					c-0.166-0.025-0.332-0.037-0.496-0.037c-0.438,0-0.824,0.072-1.16,0.217c-0.337,0.146-0.619,0.354-0.847,0.626
					s-0.399,0.604-0.519,0.993c-0.117,0.391-0.177,0.831-0.177,1.322c0,0.465,0.049,0.891,0.147,1.277s0.256,0.721,0.471,1
					s0.492,0.495,0.832,0.649s0.75,0.231,1.23,0.231c0.157,0,0.301-0.005,0.432-0.014s0.252-0.021,0.363-0.035
					c0.11-0.015,0.215-0.031,0.313-0.051s0.194-0.039,0.288-0.057v-2.342h-1.606V493.753z"/>
				<path fill="#FFFFFF" d="M98.629,491.895c0.104,0,0.22,0.005,0.349,0.014s0.24,0.022,0.333,0.04l-0.129,0.902
					c-0.101-0.018-0.203-0.033-0.309-0.046s-0.205-0.019-0.299-0.019c-0.225,0-0.431,0.046-0.617,0.137
					c-0.187,0.092-0.347,0.223-0.48,0.393c-0.135,0.17-0.238,0.374-0.312,0.612s-0.11,0.502-0.11,0.792v3.18h-0.978v-5.897h0.795
					l0.118,1.079h0.043c0.09-0.153,0.186-0.302,0.287-0.445c0.103-0.144,0.217-0.27,0.344-0.379s0.27-0.196,0.428-0.263
					C98.249,491.928,98.428,491.895,98.629,491.895z"/>
				<path fill="#FFFFFF" d="M105.273,494.941c0,0.49-0.061,0.926-0.181,1.308c-0.12,0.381-0.292,0.701-0.516,0.961
					s-0.495,0.458-0.813,0.594s-0.677,0.204-1.074,0.204c-0.369,0-0.709-0.068-1.021-0.204s-0.581-0.334-0.809-0.594
					s-0.404-0.58-0.531-0.961c-0.127-0.382-0.19-0.817-0.19-1.308c0-0.487,0.06-0.92,0.18-1.298s0.291-0.696,0.513-0.956
					s0.493-0.456,0.813-0.591c0.32-0.134,0.68-0.201,1.077-0.201c0.369,0,0.709,0.067,1.021,0.201
					c0.312,0.135,0.581,0.331,0.809,0.591s0.404,0.578,0.531,0.956S105.273,494.454,105.273,494.941z M101.148,494.941
					c0,0.748,0.122,1.311,0.367,1.688s0.644,0.567,1.195,0.567s0.948-0.189,1.189-0.567c0.242-0.378,0.363-0.94,0.363-1.688
					c0-0.749-0.123-1.309-0.368-1.679c-0.245-0.371-0.644-0.556-1.195-0.556s-0.948,0.185-1.189,0.556
					C101.269,493.632,101.148,494.192,101.148,494.941z"/>
				<path fill="#FFFFFF" d="M110.634,497.9l-0.146-0.789h-0.054c-0.09,0.153-0.196,0.287-0.319,0.399
					c-0.124,0.113-0.259,0.206-0.405,0.279c-0.147,0.073-0.303,0.128-0.468,0.164s-0.333,0.054-0.505,0.054
					c-0.326,0-0.612-0.041-0.859-0.123c-0.247-0.083-0.453-0.212-0.617-0.387c-0.165-0.176-0.29-0.399-0.374-0.672
					s-0.126-0.596-0.126-0.973v-3.851h0.978v3.798c0,0.465,0.095,0.814,0.284,1.047c0.19,0.232,0.484,0.35,0.881,0.35
					c0.291,0,0.534-0.047,0.73-0.141c0.197-0.093,0.355-0.229,0.476-0.41s0.206-0.404,0.258-0.669s0.078-0.569,0.078-0.913v-3.062
					h0.978v5.897H110.634z"/>
				<path fill="#FFFFFF" d="M116.977,497.9v-3.797c0-0.466-0.094-0.815-0.282-1.048c-0.188-0.232-0.482-0.349-0.884-0.349
					c-0.289,0-0.533,0.046-0.73,0.139c-0.196,0.094-0.354,0.231-0.475,0.414s-0.206,0.406-0.258,0.672
					c-0.052,0.265-0.078,0.568-0.078,0.912v3.057h-0.978v-5.897h0.795l0.14,0.795h0.054c0.09-0.154,0.196-0.287,0.319-0.4
					c0.124-0.112,0.259-0.206,0.406-0.282c0.146-0.074,0.302-0.13,0.467-0.166s0.333-0.054,0.505-0.054
					c0.655,0,1.148,0.171,1.479,0.513s0.497,0.889,0.497,1.641v3.852H116.977z"/>
				<path fill="#FFFFFF" d="M123.411,497.111h-0.043c-0.079,0.121-0.171,0.236-0.276,0.346s-0.228,0.205-0.365,0.287
					c-0.138,0.083-0.293,0.147-0.465,0.193c-0.172,0.047-0.365,0.07-0.58,0.07c-0.333,0-0.638-0.064-0.913-0.193
					s-0.512-0.321-0.709-0.577s-0.35-0.574-0.457-0.954c-0.107-0.379-0.16-0.819-0.16-1.32c0-0.506,0.053-0.948,0.16-1.33
					c0.107-0.381,0.26-0.701,0.457-0.959s0.434-0.451,0.709-0.582s0.58-0.196,0.913-0.196c0.211,0,0.403,0.023,0.575,0.069
					c0.172,0.047,0.326,0.109,0.464,0.188s0.261,0.17,0.368,0.274c0.107,0.104,0.2,0.213,0.279,0.327h0.064
					c-0.011-0.122-0.021-0.238-0.032-0.349c-0.007-0.094-0.015-0.189-0.021-0.288s-0.011-0.176-0.011-0.233v-2.342h0.978v8.357
					h-0.79L123.411,497.111z M121.87,497.197c0.271,0,0.502-0.042,0.689-0.124c0.188-0.082,0.341-0.208,0.457-0.376
					s0.202-0.379,0.258-0.631c0.056-0.253,0.087-0.547,0.094-0.884v-0.22c0-0.362-0.024-0.684-0.072-0.965
					c-0.049-0.281-0.131-0.518-0.247-0.709s-0.271-0.336-0.465-0.435s-0.435-0.147-0.726-0.147c-0.482,0-0.838,0.194-1.065,0.585
					s-0.341,0.95-0.341,1.681c0,0.749,0.113,1.307,0.341,1.674S121.379,497.197,121.87,497.197z"/>
			</g>
			<rect x="390.5" y="505.9" fill="#231F20" stroke="#231F20" width="62" height="78"/>
			<rect x="-321.5" y="502.9" fill="#231F20" stroke="#231F20" width="62" height="78"/>
		</g>
		<circle id="connector2pad_3_" cx="98.563" cy="537.479" r="4.96"/>
		<circle id="connector1pad_2_" cx="84.165" cy="537.479" r="4.96"/>
		<circle id="connector0pad" cx="69.764" cy="537.479" r="4.96"/>
	</g>
</g>
</svg>
