<?xml version="1.0" encoding="utf-8"?>
<!-- Generator: Adobe Illustrator 15.0.0, SVG Export Plug-In . SVG Version: 6.00 Build 0)  -->
<!DOCTYPE svg PUBLIC "-//W3C//DTD SVG 1.1 Basic//EN" "http://www.w3.org/Graphics/SVG/1.1/DTD/svg11-basic.dtd">
<svg version="1.1" baseProfile="basic" id="_x36_v_2a_ps"
	 xmlns="http://www.w3.org/2000/svg" xmlns:xlink="http://www.w3.org/1999/xlink" x="0px" y="0px" width="331.67px"
	 height="174.9px" viewBox="0 0 331.67 174.9" xml:space="preserve">
<g id="breadboard">
	<rect x="-185.607" y="204.736" fill="#757679" width="11.906" height="144.566"/>
	<rect x="-81.857" y="204.736" fill="#757679" width="11.902" height="144.566"/>
	<path fill="#353333" stroke="#000000" stroke-miterlimit="10" d="M-43.661-155.764l-6-13c-42.977-20.992-280.254,38.936-280.508,39
		h-0.004v335.174H265.1v-335.174v-36C152.866-116.764-43.661-155.764-43.661-155.764z"/>
	<line fill="none" stroke="#000000" stroke-miterlimit="10" x1="-287.656" y1="-139.901" x2="-287.656" y2="154.386"/>
	<path fill="#262626" stroke="#000000" stroke-width="1.0006" stroke-miterlimit="10" d="M-43.661-156.442l-6-12.998
		c-31.527-15.398-167.621,12.75-237.994,28.865v345.311H265.1V-130.44v-36C152.866-117.442-43.661-156.442-43.661-156.442z"/>
	
		<rect x="-330.173" y="154.386" fill="#262626" stroke="#000000" stroke-width="0.9921" stroke-miterlimit="10" width="595.273" height="51.023"/>
	<rect x="-330.173" y="154.386" fill="#353434" stroke="#000000" stroke-miterlimit="10" width="42.518" height="51.023"/>
	<polyline fill="#262626" stroke="#000000" stroke-width="0.9921" stroke-miterlimit="10" points="265.1,134.986 315.344,143.236 
		315.344,160.486 265.1,172.486 	"/>
	<path id="legolas2_1_" fill="none" stroke="#DD1F26" stroke-miterlimit="10" d="M657.175,149.048"/>
	<path stroke="#000000" stroke-width="0.9921" stroke-miterlimit="10" d="M661.846,134.986c-14.25,9.75-130.502,15.75-192.002-3.75
		s-154.5,12-154.5,12v16.5c0,0,93-31.5,154.5-12s177.752,13.5,192.002,3.75V134.986z"/>
	
		<line fill="none" stroke="#000000" stroke-width="0.9921" stroke-miterlimit="10" x1="661.846" y1="134.986" x2="661.846" y2="151.486"/>
	<path id="leogla1_1_" fill="none" stroke="#000000" stroke-miterlimit="10" d="M661.846,137.579"/>
</g>
</svg>
