<?xml version="1.0" encoding="utf-8"?>
<!-- Generator: Adobe Illustrator 15.0.0, SVG Export Plug-In . SVG Version: 6.00 Build 0)  -->
<!DOCTYPE svg PUBLIC "-//W3C//DTD SVG 1.1//EN" "http://www.w3.org/Graphics/SVG/1.1/DTD/svg11.dtd">
<svg version="1.1" id="Layer_1" xmlns:svg="http://www.w3.org/2000/svg"
	 xmlns="http://www.w3.org/2000/svg" xmlns:xlink="http://www.w3.org/1999/xlink" x="0px" y="0px" width="1267.966px"
	 height="1915.814px" viewBox="-289.333 -854.628 1267.966 1915.814" enable-background="new -289.333 -854.628 1267.966 1915.814"
	 xml:space="preserve">
<g>
	<g transform="translate(70.795,54.5128)">
		<g transform="matrix(1, 0, 0, 1, -43.787, 21.084)">
			<g id="breadboard">
				<g>
					<g id="_x30_.1.0.0">
						<g id="_x30_.1.0.0.0">
							<path id="_x30_.1.0.0.0.0" fill="#231F20" d="M52.909,470.687h106.129l12.168-13.126V-132.93h-487.547v603.624h16.577
								l23.499,22.804H31.208L52.909,470.687z M135.401-6.21c0-8.311,6.748-15.062,15.065-15.062
								c8.314,0,15.062,6.751,15.062,15.062c0,8.317-6.747,15.065-15.062,15.065C142.149,8.855,135.401,2.107,135.401-6.21z
								 M20.296,471.517c0,5.336-4.333,9.675-9.678,9.675c-5.345,0-9.671-4.323-9.671-9.675c0-5.353,4.326-9.678,9.671-9.678
								C15.957,461.839,20.296,466.171,20.296,471.517z M-259.412,473.17c0-7.777,6.31-14.085,14.076-14.085
								c7.796,0,14.1,6.308,14.1,14.085c0,7.786-6.304,14.081-14.1,14.081C-253.102,487.26-259.412,480.956-259.412,473.17z"/>
						</g>
					</g>
					
						<rect id="_x30_.1.0.1" x="148.534" y="17.073" fill="#808080" stroke="#808080" stroke-miterlimit="10" width="9.131" height="9.134"/>
					<polygon id="_x30_.1.0.2" fill="#2A2A29" points="161.039,13.702 157.665,17.073 157.665,26.204 161.039,29.568 					"/>
					<polygon id="_x30_.1.0.3" fill="#474747" points="161.039,29.571 157.655,26.204 148.527,26.204 145.163,29.571 					"/>
					<polygon id="_x30_.1.0.4" fill="#595959" points="145.163,29.568 148.527,26.204 148.527,17.069 145.163,13.702 					"/>
					<polygon id="_x30_.1.0.5" fill="#373737" points="145.163,13.699 148.534,17.069 157.665,17.069 161.039,13.699 					"/>
					
						<rect id="_x30_.1.0.6" x="148.534" y="40.71" fill="#808080" stroke="#808080" stroke-miterlimit="10" width="9.131" height="9.128"/>
					<polygon id="_x30_.1.0.7" fill="#2A2A29" points="161.039,37.336 157.665,40.706 157.665,49.844 161.039,53.211 					"/>
					<polygon id="_x30_.1.0.8" fill="#474747" points="161.039,53.211 157.655,49.844 148.527,49.844 145.163,53.211 					"/>
					<polygon id="_x30_.1.0.9" fill="#595959" points="145.163,53.205 148.527,49.844 148.527,40.706 145.163,37.336 					"/>
					<polygon id="_x30_.1.0.10" fill="#373737" points="145.163,37.332 148.534,40.706 157.665,40.706 161.039,37.332 					"/>
					
						<rect id="_x30_.1.0.11" x="148.534" y="64.497" fill="#808080" stroke="#808080" stroke-miterlimit="10" width="9.131" height="9.134"/>
					<polygon id="_x30_.1.0.12" fill="#2A2A29" points="161.039,61.13 157.665,64.497 157.665,73.631 161.039,76.996 					"/>
					<polygon id="_x30_.1.0.13" fill="#474747" points="161.039,76.999 157.655,73.631 148.527,73.631 145.163,76.999 					"/>
					<polygon id="_x30_.1.0.14" fill="#595959" points="145.163,76.996 148.527,73.631 148.527,64.494 145.163,61.13 					"/>
					<polygon id="_x30_.1.0.15" fill="#373737" points="145.163,61.127 148.534,64.494 157.665,64.494 161.039,61.127 					"/>
					
						<rect id="_x30_.1.0.16" x="148.534" y="88.137" fill="#808080" stroke="#808080" stroke-miterlimit="10" width="9.131" height="9.125"/>
					<polygon id="_x30_.1.0.17" fill="#2A2A29" points="161.039,84.767 157.665,88.134 157.665,97.272 161.039,100.639 					"/>
					<polygon id="_x30_.1.0.18" fill="#474747" points="161.039,100.639 157.655,97.272 148.527,97.272 145.163,100.639 					"/>
					<polygon id="_x30_.1.0.19" fill="#595959" points="145.163,100.633 148.527,97.272 148.527,88.134 145.163,84.767 					"/>
					<polygon id="_x30_.1.0.20" fill="#373737" points="145.163,84.763 148.534,88.134 157.665,88.134 161.039,84.763 					"/>
					
						<rect id="_x30_.1.0.21" x="148.534" y="111.777" fill="#808080" stroke="#808080" stroke-miterlimit="10" width="9.131" height="9.128"/>
					<polygon id="_x30_.1.0.22" fill="#2A2A29" points="161.039,108.406 157.665,111.774 157.665,120.912 161.039,124.279 					"/>
					<polygon id="_x30_.1.0.23" fill="#474747" points="161.039,124.279 157.655,120.912 148.527,120.912 145.163,124.279 					"/>
					<polygon id="_x30_.1.0.24" fill="#595959" points="145.163,124.276 148.527,120.908 148.527,111.771 145.163,108.406 					"/>
					<polygon id="_x30_.1.0.25" fill="#373737" points="145.163,108.403 148.534,111.771 157.665,111.771 161.039,108.403 					"/>
					
						<rect id="_x30_.1.0.26" x="148.534" y="135.414" fill="#808080" stroke="#808080" stroke-miterlimit="10" width="9.131" height="9.134"/>
					<polygon id="_x30_.1.0.27" fill="#2A2A29" points="161.039,132.047 157.665,135.414 157.665,144.552 161.039,147.919 					"/>
					<polygon id="_x30_.1.0.28" fill="#474747" points="161.039,147.919 157.655,144.552 148.527,144.552 145.163,147.919 					"/>
					<polygon id="_x30_.1.0.29" fill="#595959" points="145.163,147.916 148.527,144.552 148.527,135.411 145.163,132.047 					"/>
					<polygon id="_x30_.1.0.30" fill="#373737" points="145.163,132.04 148.534,135.411 157.665,135.411 161.039,132.04 					"/>
					
						<rect id="_x30_.1.0.31" x="-301.942" y="206.749" fill="#808080" stroke="#808080" stroke-miterlimit="10" width="9.126" height="9.128"/>
					<polygon id="_x30_.1.0.32" fill="#2A2A29" points="-289.443,203.381 -292.805,206.742 -292.805,215.887 -289.443,219.247 					
						"/>
					<polygon id="_x30_.1.0.33" fill="#474747" points="-289.443,219.251 -292.818,215.887 -301.948,215.887 -305.31,219.251 					
						"/>
					<polygon id="_x30_.1.0.34" fill="#595959" points="-305.31,219.247 -301.948,215.887 -301.948,206.742 -305.31,203.381 					
						"/>
					<polygon id="_x30_.1.0.35" fill="#373737" points="-305.31,203.381 -301.942,206.742 -292.805,206.742 -289.443,203.381 					
						"/>
					
						<rect id="_x30_.1.0.36" x="-301.942" y="135.62" fill="#808080" stroke="#808080" stroke-miterlimit="10" width="9.126" height="9.134"/>
					<polygon id="_x30_.1.0.37" fill="#2A2A29" points="-289.443,132.239 -292.805,135.613 -292.805,144.744 -289.443,148.115 					
						"/>
					<polygon id="_x30_.1.0.38" fill="#474747" points="-289.443,148.118 -292.818,144.744 -301.948,144.744 -305.31,148.118 					
						"/>
					<polygon id="_x30_.1.0.39" fill="#595959" points="-305.31,148.115 -301.948,144.744 -301.948,135.613 -305.31,132.239 					
						"/>
					<polygon id="_x30_.1.0.40" fill="#373737" points="-305.31,132.239 -301.942,135.613 -292.805,135.613 -289.443,132.239 					
						"/>
					
						<rect id="_x30_.1.0.41" x="-301.942" y="111.903" fill="#808080" stroke="#808080" stroke-miterlimit="10" width="9.126" height="9.134"/>
					<polygon id="_x30_.1.0.42" fill="#2A2A29" points="-289.443,108.532 -292.805,111.903 -292.805,121.037 -289.443,124.401 					
						"/>
					<polygon id="_x30_.1.0.43" fill="#474747" points="-289.443,124.404 -292.818,121.037 -301.948,121.037 -305.31,124.404 					
						"/>
					<polygon id="_x30_.1.0.44" fill="#595959" points="-305.31,124.401 -301.948,121.037 -301.948,111.903 -305.31,108.532 					
						"/>
					<polygon id="_x30_.1.0.45" fill="#373737" points="-305.31,108.532 -301.942,111.903 -292.805,111.903 -289.443,108.532 					
						"/>
					
						<rect id="_x30_.1.0.46" x="-301.942" y="183.045" fill="#808080" stroke="#808080" stroke-miterlimit="10" width="9.126" height="9.134"/>
					<polygon id="_x30_.1.0.47" fill="#2A2A29" points="-289.443,179.674 -292.805,183.038 -292.805,192.176 -289.443,195.54 					
						"/>
					<polygon id="_x30_.1.0.48" fill="#474747" points="-289.443,195.546 -292.818,192.176 -301.948,192.176 -305.31,195.546 					
						"/>
					<polygon id="_x30_.1.0.49" fill="#595959" points="-305.31,195.54 -301.948,192.176 -301.948,183.038 -305.31,179.674 					"/>
					<polygon id="_x30_.1.0.50" fill="#373737" points="-305.31,179.674 -301.942,183.038 -292.805,183.038 -289.443,179.674 					
						"/>
					
						<rect id="_x30_.1.0.51" x="-301.942" y="159.334" fill="#808080" stroke="#808080" stroke-miterlimit="10" width="9.126" height="9.134"/>
					<polygon id="_x30_.1.0.52" fill="#2A2A29" points="-289.443,155.957 -292.805,159.33 -292.805,168.462 -289.443,171.832 					
						"/>
					<polygon id="_x30_.1.0.53" fill="#474747" points="-289.443,171.836 -292.818,168.462 -301.948,168.462 -305.31,171.836 					
						"/>
					<polygon id="_x30_.1.0.54" fill="#595959" points="-305.31,171.832 -301.948,168.462 -301.948,159.33 -305.31,155.957 					"/>
					<polygon id="_x30_.1.0.55" fill="#373737" points="-305.31,155.957 -301.942,159.33 -292.805,159.33 -289.443,155.957 					"/>
					
						<rect id="_x30_.1.0.56" x="-301.942" y="230.392" fill="#808080" stroke="#808080" stroke-miterlimit="10" width="9.126" height="9.125"/>
					<polygon id="_x30_.1.0.57" fill="#2A2A29" points="-289.443,227.025 -292.805,230.389 -292.805,239.52 -289.443,242.891 					
						"/>
					<polygon id="_x30_.1.0.58" fill="#474747" points="-289.443,242.897 -292.818,239.52 -301.948,239.52 -305.31,242.897 					"/>
					<polygon id="_x30_.1.0.59" fill="#595959" points="-305.31,242.891 -301.948,239.52 -301.948,230.382 -305.31,227.025 					"/>
					<polygon id="_x30_.1.0.60" fill="#373737" points="-305.31,227.025 -301.942,230.382 -292.805,230.382 -289.443,227.025 					
						"/>
					
						<rect id="_x30_.1.0.61" x="-301.942" y="254.032" fill="#808080" stroke="#808080" stroke-miterlimit="10" width="9.126" height="9.134"/>
					<polygon id="_x30_.1.0.62" fill="#2A2A29" points="-289.443,250.658 -292.805,254.026 -292.805,263.166 -289.443,266.533 					
						"/>
					<polygon id="_x30_.1.0.63" fill="#474747" points="-289.443,266.533 -292.818,263.166 -301.948,263.166 -305.31,266.533 					
						"/>
					<polygon id="_x30_.1.0.64" fill="#595959" points="-305.31,266.533 -301.948,263.166 -301.948,254.026 -305.31,250.658 					
						"/>
					<polygon id="_x30_.1.0.65" fill="#373737" points="-305.31,250.658 -301.942,254.026 -292.805,254.026 -289.443,250.658 					
						"/>
					
						<rect id="_x30_.1.0.66" x="-301.942" y="277.665" fill="#808080" stroke="#808080" stroke-miterlimit="10" width="9.126" height="9.132"/>
					<polygon id="_x30_.1.0.67" fill="#2A2A29" points="-289.443,274.291 -292.805,277.665 -292.805,286.807 -289.443,290.167 					
						"/>
					<polygon id="_x30_.1.0.68" fill="#474747" points="-289.443,290.167 -292.818,286.807 -301.948,286.807 -305.31,290.167 					
						"/>
					<polygon id="_x30_.1.0.69" fill="#595959" points="-305.31,290.167 -301.948,286.8 -301.948,277.665 -305.31,274.291 					"/>
					<polygon id="_x30_.1.0.70" fill="#373737" points="-305.31,274.291 -301.942,277.665 -292.805,277.665 -289.443,274.291 					
						"/>
					
						<rect id="_x30_.1.0.71" x="-301.942" y="325.296" fill="#808080" stroke="#808080" stroke-miterlimit="10" width="9.126" height="9.128"/>
					<polygon id="_x30_.1.0.72" fill="#2A2A29" points="-289.443,321.932 -292.805,325.293 -292.805,334.434 -289.443,337.795 					
						"/>
					<polygon id="_x30_.1.0.73" fill="#474747" points="-289.443,337.801 -292.818,334.434 -301.948,334.434 -305.31,337.801 					
						"/>
					<polygon id="_x30_.1.0.74" fill="#595959" points="-305.31,337.795 -301.948,334.431 -301.948,325.293 -305.31,321.932 					
						"/>
					<polygon id="_x30_.1.0.75" fill="#373737" points="-305.31,321.932 -301.942,325.293 -292.805,325.293 -289.443,321.932 					
						"/>
					
						<rect id="_x30_.1.0.76" x="-301.942" y="348.936" fill="#808080" stroke="#808080" stroke-miterlimit="10" width="9.126" height="9.135"/>
					<polygon id="_x30_.1.0.77" fill="#2A2A29" points="-289.443,345.578 -292.805,348.936 -292.805,358.076 -289.443,361.442 					
						"/>
					<polygon id="_x30_.1.0.78" fill="#474747" points="-289.443,361.442 -292.818,358.076 -301.948,358.076 -305.31,361.442 					
						"/>
					<polygon id="_x30_.1.0.79" fill="#595959" points="-305.31,361.435 -301.948,358.07 -301.948,348.93 -305.31,345.578 					"/>
					<polygon id="_x30_.1.0.80" fill="#373737" points="-305.31,345.566 -301.942,348.93 -292.805,348.93 -289.443,345.566 					"/>
					
						<rect id="_x30_.1.0.81" x="-301.942" y="372.579" fill="#808080" stroke="#808080" stroke-miterlimit="10" width="9.126" height="9.131"/>
					<polygon id="_x30_.1.0.82" fill="#2A2A29" points="-289.443,369.202 -292.805,372.576 -292.805,381.704 -289.443,385.078 					
						"/>
					<polygon id="_x30_.1.0.83" fill="#474747" points="-289.443,385.078 -292.818,381.704 -301.948,381.704 -305.31,385.078 					
						"/>
					<polygon id="_x30_.1.0.84" fill="#595959" points="-305.31,385.078 -301.948,381.704 -301.948,372.576 -305.31,369.202 					
						"/>
					<polygon id="_x30_.1.0.85" fill="#373737" points="-305.31,369.202 -301.942,372.576 -292.805,372.576 -289.443,369.202 					
						"/>
					
						<rect id="_x30_.1.0.86" x="-301.942" y="396.223" fill="#808080" stroke="#808080" stroke-miterlimit="10" width="9.126" height="9.124"/>
					<polygon id="_x30_.1.0.87" fill="#2A2A29" points="-289.443,392.845 -292.805,396.216 -292.805,405.351 -289.443,408.718 					
						"/>
					<polygon id="_x30_.1.0.88" fill="#474747" points="-289.443,408.718 -292.818,405.351 -301.948,405.351 -305.31,408.718 					
						"/>
					<polygon id="_x30_.1.0.89" fill="#595959" points="-305.31,408.718 -301.948,405.347 -301.948,396.216 -305.31,392.845 					
						"/>
					<polygon id="_x30_.1.0.90" fill="#373737" points="-305.31,392.845 -301.942,396.216 -292.805,396.216 -289.443,392.845 					
						"/>
					
						<rect id="_x30_.1.0.91" x="-301.942" y="419.85" fill="#808080" stroke="#808080" stroke-miterlimit="10" width="9.126" height="9.128"/>
					<polygon id="_x30_.1.0.92" fill="#2A2A29" points="-289.443,416.482 -292.805,419.85 -292.805,428.99 -289.443,432.348 					
						"/>
					<polygon id="_x30_.1.0.93" fill="#474747" points="-289.443,432.355 -292.818,428.99 -301.948,428.99 -305.31,432.355 					"/>
					<polygon id="_x30_.1.0.94" fill="#595959" points="-305.31,432.348 -301.948,428.984 -301.948,419.85 -305.31,416.482 					"/>
					<polygon id="_x30_.1.0.95" fill="#373737" points="-305.31,416.482 -301.942,419.85 -292.805,419.85 -289.443,416.482 					"/>
					
						<rect id="_x30_.1.0.96" x="-301.942" y="443.492" fill="#808080" stroke="#808080" stroke-miterlimit="10" width="9.126" height="9.128"/>
					<polygon id="_x30_.1.0.97" fill="#2A2A29" points="-289.443,440.125 -292.805,443.483 -292.805,452.63 -289.443,455.988 					
						"/>
					<polygon id="_x30_.1.0.98" fill="#474747" points="-289.443,455.994 -292.818,452.63 -301.948,452.63 -305.31,455.994 					"/>
					<polygon id="_x30_.1.0.99" fill="#595959" points="-305.31,455.988 -301.948,452.624 -301.948,443.483 -305.31,440.125 					
						"/>
					<polygon id="_x30_.1.0.100" fill="#373737" points="-305.31,440.125 -301.942,443.483 -292.805,443.483 -289.443,440.125 					
						"/>
					
						<rect id="_x30_.1.0.101" x="148.534" y="159.057" fill="#808080" stroke="#808080" stroke-miterlimit="10" width="9.131" height="9.128"/>
					<polygon id="_x30_.1.0.102" fill="#2A2A29" points="161.039,155.684 157.665,159.054 157.665,168.189 161.039,171.556 					"/>
					<polygon id="_x30_.1.0.103" fill="#474747" points="161.039,171.556 157.655,168.189 148.527,168.189 145.163,171.556 					"/>
					<polygon id="_x30_.1.0.104" fill="#595959" points="145.163,171.556 148.527,168.182 148.527,159.054 145.163,155.684 					"/>
					<polygon id="_x30_.1.0.105" fill="#373737" points="145.163,155.68 148.534,159.054 157.665,159.054 161.039,155.68 					"/>
					
						<rect id="_x30_.1.0.106" x="148.534" y="182.697" fill="#808080" stroke="#808080" stroke-miterlimit="10" width="9.131" height="9.128"/>
					<polygon id="_x30_.1.0.107" fill="#2A2A29" points="161.039,179.326 157.665,182.697 157.665,191.828 161.039,195.193 					"/>
					<polygon id="_x30_.1.0.108" fill="#474747" points="161.039,195.193 157.655,191.828 148.527,191.828 145.163,195.193 					"/>
					<polygon id="_x30_.1.0.109" fill="#595959" points="145.163,195.193 148.527,191.825 148.527,182.691 145.163,179.326 					"/>
					<polygon id="_x30_.1.0.110" fill="#373737" points="145.163,179.323 148.534,182.691 157.665,182.691 161.039,179.323 					"/>
					
						<rect id="_x30_.1.0.111" x="148.534" y="206.33" fill="#808080" stroke="#808080" stroke-miterlimit="10" width="9.131" height="9.132"/>
					<polygon id="_x30_.1.0.112" fill="#2A2A29" points="161.039,202.97 157.665,206.324 157.665,215.472 161.039,218.836 					"/>
					<polygon id="_x30_.1.0.113" fill="#474747" points="161.039,218.836 157.655,215.472 148.527,215.472 145.163,218.836 					"/>
					<polygon id="_x30_.1.0.114" fill="#595959" points="145.163,218.829 148.527,215.468 148.527,206.324 145.163,202.97 					"/>
					<polygon id="_x30_.1.0.115" fill="#373737" points="145.163,202.963 148.534,206.324 157.665,206.324 161.039,202.963 					"/>
					
						<rect id="_x30_.1.0.116" x="148.534" y="229.977" fill="#808080" stroke="#808080" stroke-miterlimit="10" width="9.131" height="9.128"/>
					<polygon id="_x30_.1.0.117" fill="#2A2A29" points="161.039,226.607 157.665,229.971 157.665,239.109 161.039,242.476 					"/>
					<polygon id="_x30_.1.0.118" fill="#474747" points="161.039,242.476 157.655,239.109 148.527,239.109 145.163,242.476 					"/>
					<polygon id="_x30_.1.0.119" fill="#595959" points="145.163,242.473 148.527,239.102 148.527,229.971 145.163,226.607 					"/>
					<polygon id="_x30_.1.0.120" fill="#373737" points="145.163,226.6 148.534,229.971 157.665,229.971 161.039,226.6 					"/>
					
						<rect id="_x30_.1.0.121" x="148.534" y="277.884" fill="#808080" stroke="#808080" stroke-miterlimit="10" width="9.131" height="9.125"/>
					<polygon id="_x30_.1.0.122" fill="#2A2A29" points="161.039,274.507 157.665,277.871 157.665,287.009 161.039,290.38 					"/>
					<polygon id="_x30_.1.0.123" fill="#474747" points="161.039,290.38 157.655,287.009 148.527,287.009 145.163,290.38 					"/>
					<polygon id="_x30_.1.0.124" fill="#595959" points="145.163,290.38 148.527,287.009 148.527,277.871 145.163,274.507 					"/>
					<polygon id="_x30_.1.0.125" fill="#373737" points="145.163,274.507 148.534,277.871 157.665,277.871 161.039,274.507 					"/>
					
						<rect id="_x30_.1.0.126" x="148.534" y="301.527" fill="#808080" stroke="#808080" stroke-miterlimit="10" width="9.131" height="9.125"/>
					<polygon id="_x30_.1.0.127" fill="#2A2A29" points="161.039,298.144 157.665,301.527 157.665,310.652 161.039,314.02 					"/>
					<polygon id="_x30_.1.0.128" fill="#474747" points="161.039,314.026 157.655,310.652 148.527,310.652 145.163,314.026 					"/>
					<polygon id="_x30_.1.0.129" fill="#595959" points="145.163,314.02 148.527,310.652 148.527,301.518 145.163,298.144 					"/>
					<polygon id="_x30_.1.0.130" fill="#373737" points="145.163,298.144 148.534,301.518 157.665,301.518 161.039,298.144 					"/>
					
						<rect id="_x30_.1.0.131" x="148.534" y="325.157" fill="#808080" stroke="#808080" stroke-miterlimit="10" width="9.131" height="9.128"/>
					<polygon id="_x30_.1.0.132" fill="#2A2A29" points="161.039,321.79 157.665,325.157 157.665,334.292 161.039,337.659 					"/>
					<polygon id="_x30_.1.0.133" fill="#474747" points="161.039,337.659 157.655,334.292 148.527,334.292 145.163,337.659 					"/>
					<polygon id="_x30_.1.0.134" fill="#595959" points="145.163,337.653 148.527,334.292 148.527,325.151 145.163,321.79 					"/>
					<polygon id="_x30_.1.0.135" fill="#373737" points="145.163,321.783 148.534,325.151 157.665,325.151 161.039,321.783 					"/>
					
						<rect id="_x30_.1.0.136" x="148.534" y="348.798" fill="#808080" stroke="#808080" stroke-miterlimit="10" width="9.131" height="9.131"/>
					<polygon id="_x30_.1.0.137" fill="#2A2A29" points="161.039,345.43 157.665,348.788 157.665,357.936 161.039,361.296 					"/>
					<polygon id="_x30_.1.0.138" fill="#474747" points="161.039,361.296 157.655,357.936 148.527,357.936 145.163,361.296 					"/>
					<polygon id="_x30_.1.0.139" fill="#595959" points="145.163,361.296 148.527,357.929 148.527,348.788 145.163,345.43 					"/>
					<polygon id="_x30_.1.0.140" fill="#373737" points="145.163,345.43 148.534,348.788 157.665,348.788 161.039,345.43 					"/>
					
						<rect id="_x30_.1.0.141" x="148.534" y="372.438" fill="#808080" stroke="#808080" stroke-miterlimit="10" width="9.131" height="9.131"/>
					<polygon id="_x30_.1.0.142" fill="#2A2A29" points="161.039,369.067 157.665,372.435 157.665,381.568 161.039,384.937 					"/>
					<polygon id="_x30_.1.0.143" fill="#474747" points="161.039,384.937 157.655,381.568 148.527,381.568 145.163,384.937 					"/>
					<polygon id="_x30_.1.0.144" fill="#595959" points="145.163,384.937 148.527,381.568 148.527,372.435 145.163,369.067 					"/>
					<polygon id="_x30_.1.0.145" fill="#373737" points="145.163,369.067 148.534,372.435 157.665,372.435 161.039,369.067 					"/>
					
						<rect id="_x30_.1.0.146" x="148.534" y="396.081" fill="#808080" stroke="#808080" stroke-miterlimit="10" width="9.131" height="9.124"/>
					<polygon id="_x30_.1.0.147" fill="#2A2A29" points="161.039,392.703 157.665,396.081 157.665,405.205 161.039,408.579 					"/>
					<polygon id="_x30_.1.0.148" fill="#474747" points="161.039,408.579 157.655,405.205 148.527,405.205 145.163,408.579 					"/>
					<polygon id="_x30_.1.0.149" fill="#595959" points="145.163,408.579 148.527,405.205 148.527,396.081 145.163,392.703 					"/>
					<polygon id="_x30_.1.0.150" fill="#373737" points="145.163,392.697 148.534,396.081 157.665,396.081 161.039,392.697 					"/>
					
						<rect id="_x30_.1.0.151" x="148.534" y="419.714" fill="#808080" stroke="#808080" stroke-miterlimit="10" width="9.131" height="9.128"/>
					<polygon id="_x30_.1.0.152" fill="#2A2A29" points="161.039,416.35 157.665,419.714 157.665,428.849 161.039,432.213 					"/>
					<polygon id="_x30_.1.0.153" fill="#474747" points="161.039,432.22 157.655,428.849 148.527,428.849 145.163,432.22 					"/>
					<polygon id="_x30_.1.0.154" fill="#595959" points="145.163,432.213 148.527,428.849 148.527,419.708 145.163,416.35 					"/>
					<polygon id="_x30_.1.0.155" fill="#373737" points="145.163,416.334 148.534,419.708 157.665,419.708 161.039,416.334 					"/>
					
						<rect id="_x30_.1.0.156" x="148.534" y="443.355" fill="#808080" stroke="#808080" stroke-miterlimit="10" width="9.131" height="9.134"/>
					<polygon id="_x30_.1.0.157" fill="#2A2A29" points="161.039,439.99 157.665,443.351 157.665,452.495 161.039,455.857 					"/>
					<polygon id="_x30_.1.0.158" fill="#474747" points="161.039,455.857 157.655,452.495 148.527,452.495 145.163,455.857 					"/>
					<polygon id="_x30_.1.0.159" fill="#595959" points="145.163,455.85 148.527,452.488 148.527,443.351 145.163,439.99 					"/>
					<polygon id="_x30_.1.0.160" fill="#373737" points="145.163,439.99 148.534,443.351 157.665,443.351 161.039,439.99 					"/>
					<desc  id="0.1.0.161" oldid="0.1.0.161">Fritzing breadboard generated by brd2svg</desc>
					<g transform="matrix(1, 0, 0, 1, 149.203, -11.6284)">
						
							<text id="_x30_.1.0.162" transform="matrix(1 0 0 1 -118.3604 -90.1586)" fill="#FFFFFF" font-family="'OCRA'" font-size="19.7611">S-V-G</text>
					</g>
					<g transform="matrix(0, 1, -1, 0, 92.053, 36.0928)">
						
							<text id="_x30_.1.0.163" transform="matrix(1 0 0 1 19.2882 249.4389)" fill="#FFFFFF" font-family="'OCRA'" font-size="19.7611">ANALOG</text>
					</g>
					<g transform="matrix(0, 1, -1, 0, 135.043, 53.5235)">
						
							<text id="_x30_.1.0.164" transform="matrix(1 0 0 1 59.2657 150.8352)" fill="#FFFFFF" font-family="'OCRA'" font-size="19.7611">DIGITAL</text>
					</g>
					<g transform="matrix(1, 0, 0, 1, 62.3674, -11.6284)">
						
							<text id="_x30_.1.0.165" transform="matrix(1 0 0 1 -317.517 -90.1586)" fill="#FFFFFF" font-family="'OCRA'" font-size="19.7611">S-V-G</text>
					</g>
					<path id="_x30_.1.0.166" fill="none" stroke="#FFFFFF" stroke-width="1.4173" d="M-173.149,97.079V-80.305
						c0-5.153-4.183-9.337-9.333-9.337h-74.687c-5.156,0-9.338,4.184-9.338,9.337V97.079c0,0.241,0.053,0.466,0.071,0.698
						c-0.018,0.232-0.071,0.447-0.071,0.685v177.387c0,5.148,4.183,9.333,9.338,9.333h74.689c5.151,0,9.334-4.185,9.334-9.333
						V98.462c0-0.241-0.053-0.463-0.069-0.698C-173.198,97.532-173.149,97.314-173.149,97.079z"/>
					<path id="_x30_.1.0.167" fill="none" stroke="#FFFFFF" stroke-width="1.4173" d="M103.518-89.641H28.828
						c-5.152,0-9.333,4.184-9.333,9.337L19.488,97.079c0,0.006,0.007,0.013,0.007,0.022l-0.007,128.923c0,0.003,0,0.006,0,0.01
						v49.814c0,0.006,0.007,0.016,0.007,0.022l-0.007,128.923c0,5.152,4.185,9.334,9.34,9.334h74.689
						c5.149,0,9.333-4.182,9.333-9.334V275.852v-48.444v-1.383V98.462v-1.383V48.641V-80.305
						C112.851-85.46,108.667-89.641,103.518-89.641z"/>
					<path id="_x30_.1.0.168" fill="none" stroke="#FFFFFF" stroke-width="1.4173" d="M-39.48-89.641h-74.691
						c-5.151,0-9.333,4.184-9.333,9.337l-0.003,177.383c0,0.006,0.003,0.013,0.003,0.022l-0.003,128.923c0,0.003,0,0.006,0,0.01
						v49.814c0,0.006,0.003,0.016,0.003,0.022l-0.003,128.923c0,5.152,4.183,9.334,9.337,9.334h74.691
						c5.149,0,9.333-4.182,9.333-9.334V275.852v-48.444v-1.383V98.462v-1.383V48.641V-80.305
						C-30.146-85.46-34.33-89.641-39.48-89.641z"/>
					<g transform="matrix(1, 0, 0, 1, 105.785, -11.6284)">
						
							<text id="_x30_.1.0.169" transform="matrix(1 0 0 1 -217.9385 -90.1586)" fill="#FFFFFF" font-family="'OCRA'" font-size="19.7611">S-V-G</text>
					</g>
					<g id="_x30_.1.0.170">
						<g transform="matrix(1, 0, 0, 1, 64.0769, 128.516)">
							
								<text id="_x30_.1.0.170.0" transform="matrix(1 0 0 1 -313.5976 231.2654)" fill="#FFFFFF" font-family="'OCRA'" font-size="39.5222">R</text>
						</g>
						<g transform="matrix(1, 0, 0, 1, 71.5769, 122.43)">
							
								<text id="_x30_.1.0.170.1" transform="matrix(1 0 0 1 -296.3964 217.3084)" fill="#FFFFFF" font-family="'OCRA'" font-size="16.4676">obot</text>
						</g>
						<g transform="matrix(1, 0, 0, 1, 71.5769, 128.43)">
							
								<text id="_x30_.1.0.170.2" transform="matrix(1 0 0 1 -296.3964 231.0701)" fill="#FFFFFF" font-family="'OCRA'" font-size="16.4676">Geek</text>
						</g>
					</g>
					<g transform="matrix(1, 0, 0, 1, 62.1072, 136.016)">
						
							<text id="_x30_.1.0.171" transform="matrix(1 0 0 1 -318.1162 248.4665)" fill="#FFFFFF" font-family="'OCRA'" font-size="19.7611">Sensor</text>
					</g>
					<g transform="matrix(1, 0, 0, 1, 62.1072, 143.216)">
						
							<text id="_x30_.1.0.172" transform="matrix(1 0 0 1 -318.1162 264.9794)" fill="#FFFFFF" font-family="'OCRA'" font-size="19.7611">Shield</text>
					</g>
					<rect id="_x30_.1.0.173" x="-255.15" y="323.469" fill="none" stroke="#FFFFFF" width="82.001" height="42.073"/>
					<rect id="_x30_.1.0.174" x="-262.643" y="365.542" fill="none" stroke="#FFFFFF" width="98.674" height="48.582"/>
					<g transform="matrix(1, 0, 0, 1, 151.006, 154.921)">
						
							<text id="_x30_.1.0.175" transform="matrix(1 0 0 1 -114.224 291.8252)" fill="#FFFFFF" font-family="'OCRA'" font-size="29.6416">PWM</text>
					</g>
					<line id="_x30_.1.0.176" fill="none" stroke="#FFFFFF" x1="19.488" y1="175.109" x2="112.851" y2="175.109"/>
					<rect id="_x30_.1.0.177" x="40.915" y="165.461" fill="#231F20" width="18.384" height="27.995"/>
					<rect id="_x30_.1.0.178" x="77.144" y="165.461" fill="#231F20" width="18.385" height="27.995"/>
					<g transform="matrix(0, 1, -1, 0, 163.961, 67.463)">
						
							<text id="_x30_.1.0.179" transform="matrix(1 0 0 1 91.2383 84.511)" fill="#FFFFFF" font-family="'OCRA'" font-size="13.1741">VIN</text>
					</g>
					<g transform="matrix(0, 1, -1, 0, 152.819, 69.2511)">
						
							<text id="_x30_.1.0.180" transform="matrix(1 0 0 1 95.3369 110.0565)" fill="#FFFFFF" font-family="'OCRA'" font-size="13.1741">5V</text>
					</g>
					<polygon id="_x30_.1.0.181" fill="#404040" points="-183.882,-47.829 -183.882,-60.785 -188.856,-65.754 -201.806,-65.754 
						-212.809,-65.754 -213.875,-65.754 -213.883,-65.757 -226.836,-65.757 -237.84,-65.757 -250.792,-65.757 -255.769,-60.791 
						-255.769,-47.836 -250.792,-42.864 -237.84,-42.864 -226.836,-42.864 -225.773,-42.864 -225.766,-42.857 -212.809,-42.857 
						-201.806,-42.857 -188.856,-42.857 					"/>
					<g transform="matrix(1, 0, 0, 1, 62.3669, -1.8159)">
						
							<text id="_x30_.1.0.182" transform="matrix(1 0 0 1 -317.5204 -67.6508)" fill="#FFFFFF" font-family="'OCRA'" font-size="19.7611">AIO-0</text>
					</g>
					<polygon id="_x30_.1.0.183" fill="#404040" points="-183.882,274.867 -183.882,261.908 -188.856,256.943 -201.806,256.943 
						-212.809,256.943 -213.875,256.943 -213.883,256.94 -226.836,256.94 -237.84,256.94 -250.792,256.94 -255.769,261.902 
						-255.769,274.86 -250.792,279.833 -237.84,279.833 -226.836,279.833 -225.773,279.833 -225.766,279.84 -212.809,279.84 
						-201.806,279.84 -188.856,279.84 					"/>
					<g transform="matrix(1, 0, 0, 1, 62.3674, 96.1637)">
						
							<text id="_x30_.1.0.184" transform="matrix(1 0 0 1 -317.517 157.0649)" fill="#FFFFFF" font-family="'OCRA'" font-size="19.7611">AIO-5</text>
					</g>
					<polygon id="_x30_.1.0.185" fill="#404040" points="-183.882,210.325 -183.882,197.373 -188.856,192.407 -201.806,192.407 
						-212.809,192.407 -213.875,192.407 -213.883,192.401 -226.836,192.401 -237.84,192.401 -250.792,192.401 -255.769,197.367 
						-255.769,210.318 -250.792,215.295 -237.84,215.295 -226.836,215.295 -225.773,215.295 -225.766,215.301 -212.809,215.301 
						-201.806,215.301 -188.856,215.301 					"/>
					<g transform="matrix(1, 0, 0, 1, 62.3674, 76.568)">
						
							<text id="_x30_.1.0.186" transform="matrix(1 0 0 1 -317.517 112.1235)" fill="#FFFFFF" font-family="'OCRA'" font-size="19.7611">AIO-4</text>
					</g>
					<polygon id="_x30_.1.0.187" fill="#404040" points="-183.882,145.786 -183.882,132.831 -188.856,127.865 -201.806,127.865 
						-212.809,127.865 -213.875,127.865 -213.883,127.859 -226.836,127.859 -237.84,127.859 -250.792,127.859 -255.769,132.825 
						-255.769,145.78 -250.792,150.753 -237.84,150.753 -226.836,150.753 -225.773,150.753 -225.766,150.759 -212.809,150.759 
						-201.806,150.759 -188.856,150.759 					"/>
					<g transform="matrix(1, 0, 0, 1, 62.3669, 56.9723)">
						
							<text id="_x30_.1.0.188" transform="matrix(1 0 0 1 -317.5204 67.1802)" fill="#FFFFFF" font-family="'OCRA'" font-size="19.7611">AIO-3</text>
					</g>
					<polygon id="_x30_.1.0.189" fill="#404040" points="-183.882,16.709 -183.882,3.754 -188.856,-1.212 -201.806,-1.212 
						-212.809,-1.212 -213.875,-1.212 -213.883,-1.219 -226.836,-1.219 -237.84,-1.219 -250.792,-1.219 -255.769,3.748 
						-255.769,16.703 -250.792,21.675 -237.84,21.675 -226.836,21.675 -225.773,21.675 -225.766,21.682 -212.809,21.682 
						-201.806,21.682 -188.856,21.682 					"/>
					<g transform="matrix(1, 0, 0, 1, 62.3669, 17.7808)">
						
							<text id="_x30_.1.0.190" transform="matrix(1 0 0 1 -317.5204 -22.7084)" fill="#FFFFFF" font-family="'OCRA'" font-size="19.7611">AIO-1</text>
					</g>
					<polygon id="_x30_.1.0.191" fill="#404040" points="-183.882,81.248 -183.882,68.293 -188.856,63.327 -201.806,63.327 
						-212.809,63.327 -213.875,63.327 -213.883,63.32 -226.836,63.32 -237.84,63.32 -250.792,63.32 -255.769,68.286 
						-255.769,81.241 -250.792,86.214 -237.84,86.214 -226.836,86.214 -225.773,86.214 -225.766,86.22 -212.809,86.22 
						-201.806,86.22 -188.856,86.22 					"/>
					<g transform="matrix(1, 0, 0, 1, 62.3674, 37.3755)">
						
							<text id="_x30_.1.0.192" transform="matrix(1 0 0 1 -317.517 22.234)" fill="#FFFFFF" font-family="'OCRA'" font-size="19.7611">AIO-2</text>
					</g>
					<polygon id="_x30_.1.0.193" fill="#404040" points="-40.882,-45.675 -40.882,-58.63 -45.858,-63.596 -58.807,-63.596 
						-69.811,-63.596 -70.878,-63.596 -70.884,-63.602 -83.838,-63.602 -94.842,-63.602 -107.795,-63.602 -112.772,-58.636 
						-112.772,-45.681 -107.795,-40.708 -94.842,-40.708 -83.838,-40.708 -82.775,-40.708 -82.768,-40.702 -69.811,-40.702 
						-58.807,-40.702 -45.858,-40.702 					"/>
					<g transform="matrix(1, 0, 0, 1, 105.785, -1.1616)">
						
							<text id="_x30_.1.0.194" transform="matrix(1 0 0 1 -217.9385 -66.1527)" fill="#FFFFFF" font-family="'OCRA'" font-size="19.7611">DIO-0</text>
					</g>
					<polygon id="_x30_.1.0.195" fill="#404040" points="-40.882,277.019 -40.882,264.067 -45.858,259.101 -58.807,259.101 
						-69.811,259.101 -70.878,259.101 -70.884,259.095 -83.838,259.095 -94.842,259.095 -107.795,259.095 -112.772,264.061 
						-112.772,277.013 -107.795,281.985 -94.842,281.985 -83.838,281.985 -82.775,281.985 -82.768,281.994 -69.811,281.994 
						-58.807,281.994 -45.858,281.994 					"/>
					<g transform="matrix(1, 0, 0, 1, 105.785, 96.818)">
						
							<text id="_x30_.1.0.196" transform="matrix(1 0 0 1 -217.9385 158.5669)" fill="#FFFFFF" font-family="'OCRA'" font-size="19.7611">DIO-8</text>
					</g>
					<polygon id="_x30_.1.0.197" fill="#404040" points="-40.882,212.481 -40.882,199.528 -45.858,194.559 -58.807,194.559 
						-69.811,194.559 -70.878,194.559 -70.884,194.553 -83.838,194.553 -94.842,194.553 -107.795,194.553 -112.772,199.522 
						-112.772,212.477 -107.795,217.446 -94.842,217.446 -83.838,217.446 -82.775,217.446 -82.768,217.453 -69.811,217.453 
						-58.807,217.453 -45.858,217.453 					"/>
					<g transform="matrix(1, 0, 0, 1, 105.785, 77.2223)">
						
							<text id="_x30_.1.0.198" transform="matrix(1 0 0 1 -217.9385 113.6216)" fill="#FFFFFF" font-family="'OCRA'" font-size="19.7611">DIO-7</text>
					</g>
					<polygon id="_x30_.1.0.199" fill="#404040" points="-40.882,147.942 -40.882,134.984 -45.858,130.017 -58.807,130.017 
						-69.811,130.017 -70.878,130.017 -70.884,130.011 -83.838,130.011 -94.842,130.011 -107.795,130.011 -112.772,134.977 
						-112.772,147.935 -107.795,152.907 -94.842,152.907 -83.838,152.907 -82.775,152.907 -82.768,152.914 -69.811,152.914 
						-58.807,152.914 -45.858,152.914 					"/>
					<g transform="matrix(1, 0, 0, 1, 105.785, 57.6266)">
						
							<text id="_x30_.1.0.200" transform="matrix(1 0 0 1 -217.9385 68.6802)" fill="#FFFFFF" font-family="'OCRA'" font-size="19.7611">DIO-4</text>
					</g>
					<polygon id="_x30_.1.0.201" fill="#404040" points="-40.882,18.864 -40.882,5.909 -45.858,0.94 -58.807,0.94 -69.811,0.94 
						-70.878,0.94 -70.884,0.936 -83.838,0.936 -94.842,0.936 -107.795,0.936 -112.772,5.902 -112.772,18.858 -107.795,23.83 
						-94.842,23.83 -83.838,23.83 -82.775,23.83 -82.768,23.837 -69.811,23.837 -58.807,23.837 -45.858,23.837 					"/>
					<g transform="matrix(1, 0, 0, 1, 105.785, 18.4351)">
						
							<text id="_x30_.1.0.202" transform="matrix(1 0 0 1 -217.9385 -21.2065)" fill="#FFFFFF" font-family="'OCRA'" font-size="19.7611">DIO-1</text>
					</g>
					<polygon id="_x30_.1.0.203" fill="#404040" points="-40.882,83.4 -40.882,70.447 -45.858,65.482 -58.807,65.482 
						-69.811,65.482 -70.878,65.482 -70.884,65.475 -83.838,65.475 -94.842,65.475 -107.795,65.475 -112.772,70.441 
						-112.772,83.393 -107.795,88.369 -94.842,88.369 -83.838,88.369 -82.775,88.369 -82.768,88.375 -69.811,88.375 -58.807,88.375 
						-45.858,88.375 					"/>
					<g transform="matrix(1, 0, 0, 1, 105.785, 38.0298)">
						
							<text id="_x30_.1.0.204" transform="matrix(1 0 0 1 -217.9385 23.736)" fill="#FFFFFF" font-family="'OCRA'" font-size="19.7611">DIO-2</text>
					</g>
					<polygon id="_x30_.1.0.205" fill="#404040" points="-40.882,402.806 -40.882,389.848 -45.858,384.882 -58.807,384.882 
						-69.811,384.882 -70.878,384.882 -70.884,384.875 -83.838,384.875 -94.842,384.875 -107.795,384.875 -112.772,389.841 
						-112.772,402.8 -107.795,407.769 -94.842,407.769 -83.838,407.769 -82.775,407.769 -82.768,407.776 -69.811,407.776 
						-58.807,407.776 -45.858,407.776 					"/>
					<g transform="matrix(1, 0, 0, 1, 103.785, 135.009)">
						
							<text id="_x30_.1.0.206" transform="matrix(1 0 0 1 -222.5264 246.1571)" fill="#FFFFFF" font-family="'OCRA'" font-size="19.7611">DIO-13</text>
					</g>
					<polygon id="_x30_.1.0.207" fill="#404040" points="-40.882,341.561 -40.882,328.603 -45.858,323.637 -58.807,323.637 
						-69.811,323.637 -70.878,323.637 -70.884,323.633 -83.838,323.633 -94.842,323.633 -107.795,323.633 -112.772,328.596 
						-112.772,341.555 -107.795,346.527 -94.842,346.527 -83.838,346.527 -82.775,346.527 -82.768,346.533 -69.811,346.533 
						-58.807,346.533 -45.858,346.533 					"/>
					<g transform="matrix(1, 0, 0, 1, 103.785, 116.414)">
						
							<text id="_x30_.1.0.208" transform="matrix(1 0 0 1 -222.5264 203.5099)" fill="#FFFFFF" font-family="'OCRA'" font-size="19.7611">DIO-12</text>
					</g>
					<polygon id="_x30_.1.0.209" fill="#404040" points="101.639,-45.073 101.639,-58.029 96.667,-62.995 83.712,-62.995 
						72.709,-62.995 71.644,-62.995 71.638,-63.001 58.685,-63.001 47.682,-63.001 34.727,-63.001 29.748,-58.035 29.748,-45.079 
						34.727,-40.107 47.682,-40.107 58.685,-40.107 59.75,-40.107 59.757,-40.1 72.709,-40.1 83.712,-40.1 96.667,-40.1 					"/>
					<g transform="matrix(1, 0, 0, 1, 149.059, -0.979001)">
						
							<text id="_x30_.1.0.210" transform="matrix(1 0 0 1 -118.6891 -65.7338)" fill="#FFFFFF" font-family="'OCRA'" font-size="19.7611">DIO-3</text>
					</g>
					<polygon id="_x30_.1.0.211" fill="#404040" points="101.639,277.624 101.639,264.665 96.667,259.699 83.712,259.699 
						72.709,259.699 71.644,259.699 71.637,259.693 58.685,259.693 47.682,259.693 34.727,259.693 29.748,264.658 29.748,277.617 
						34.727,282.59 47.682,282.59 58.685,282.59 59.75,282.59 59.757,282.596 72.709,282.596 83.712,282.596 96.667,282.596 					
						"/>
					<g transform="matrix(1, 0, 0, 1, 149.059, 97.0006)">
						
							<text id="_x30_.1.0.212" transform="matrix(1 0 0 1 -118.6891 158.9858)" fill="#FFFFFF" font-family="'OCRA'" font-size="19.7611">DIO-9</text>
					</g>
					<polygon id="_x30_.1.0.213" fill="#404040" points="101.639,213.082 101.639,200.13 96.667,195.163 83.712,195.163 
						72.709,195.163 71.644,195.163 71.637,195.157 58.685,195.157 47.682,195.157 34.727,195.157 29.748,200.123 29.748,213.075 
						34.727,218.051 47.682,218.051 58.685,218.051 59.75,218.051 59.757,218.058 72.709,218.058 83.712,218.058 96.667,218.058 
											"/>
					<polygon id="_x30_.1.0.214" fill="#404040" points="101.639,148.54 101.639,135.588 96.667,130.622 83.712,130.622 
						72.709,130.622 71.644,130.622 71.637,130.612 58.685,130.612 47.682,130.612 34.727,130.612 29.748,135.581 29.748,148.533 
						34.727,153.506 47.682,153.506 58.685,153.506 59.75,153.506 59.757,153.512 72.709,153.512 83.712,153.512 96.667,153.512 
											"/>
					<polygon id="_x30_.1.0.215" fill="#404040" points="101.639,19.465 101.639,6.51 96.667,1.544 83.712,1.544 72.709,1.544 
						71.644,1.544 71.637,1.538 58.685,1.538 47.682,1.538 34.727,1.538 29.748,6.504 29.748,19.459 34.727,24.432 47.682,24.432 
						58.685,24.432 59.75,24.432 59.757,24.438 72.709,24.438 83.712,24.438 96.667,24.438 					"/>
					<g transform="matrix(1, 0, 0, 1, 149.059, 18.6177)">
						
							<text id="_x30_.1.0.216" transform="matrix(1 0 0 1 -118.6891 -20.7875)" fill="#FFFFFF" font-family="'OCRA'" font-size="19.7611">DIO-5</text>
					</g>
					<polygon id="_x30_.1.0.217" fill="#404040" points="101.639,84.005 101.639,71.046 96.667,66.08 83.712,66.08 72.709,66.08 
						71.644,66.08 71.637,66.073 58.685,66.073 47.682,66.073 34.727,66.073 29.748,71.039 29.748,83.998 34.727,88.97 
						47.682,88.97 58.685,88.97 59.75,88.97 59.757,88.974 72.709,88.974 83.712,88.974 96.667,88.974 					"/>
					<g transform="matrix(1, 0, 0, 1, 149.059, 38.2124)">
						
							<text id="_x30_.1.0.218" transform="matrix(1 0 0 1 -118.6891 24.1549)" fill="#FFFFFF" font-family="'OCRA'" font-size="19.7611">DIO-6</text>
					</g>
					<polygon id="_x30_.1.0.219" fill="#404040" points="101.639,403.404 101.639,390.452 96.667,385.486 83.712,385.486 
						72.709,385.486 71.644,385.486 71.637,385.48 58.685,385.48 47.682,385.48 34.727,385.48 29.748,390.445 29.748,403.398 
						34.727,408.37 47.682,408.37 58.685,408.37 59.75,408.37 59.757,408.377 72.709,408.377 83.712,408.377 96.667,408.377 					
						"/>
					<g transform="matrix(1, 0, 0, 1, 147.059, 135.192)">
						
							<text id="_x30_.1.0.220" transform="matrix(1 0 0 1 -123.277 246.5777)" fill="#FFFFFF" font-family="'OCRA'" font-size="19.7611">DIO-11</text>
					</g>
					<polygon id="_x30_.1.0.221" fill="#404040" points="101.639,342.162 101.639,329.207 96.667,324.237 83.712,324.237 
						72.709,324.237 71.644,324.237 71.637,324.232 58.685,324.232 47.682,324.232 34.727,324.232 29.748,329.2 29.748,342.156 
						34.727,347.125 47.682,347.125 58.685,347.125 59.75,347.125 59.757,347.132 72.709,347.132 83.712,347.132 96.667,347.132 
											"/>
					<g transform="matrix(1, 0, 0, 1, 147.059, 116.596)">
						
							<text id="_x30_.1.0.222" transform="matrix(1 0 0 1 -123.277 203.9295)" fill="#FFFFFF" font-family="'OCRA'" font-size="19.7611">DIO-10</text>
					</g>
					<polygon id="_x30_.1.0.223" fill="#404040" points="-117.577,444.554 -130.528,444.554 -141.288,444.554 -141.291,444.551 
						-142.602,444.551 -142.605,444.548 -155.558,444.548 -166.314,444.548 -166.317,444.544 -179.271,444.544 -190.274,444.544 
						-203.228,444.544 -208.205,449.51 -208.205,462.469 -203.228,467.442 -190.274,467.442 -179.519,467.442 -179.515,467.444 
						-178.205,467.444 -178.201,467.447 -165.244,467.447 -154.49,467.447 -154.488,467.451 -141.53,467.451 -130.528,467.451 
						-117.577,467.451 -112.603,462.479 -112.603,449.52 					"/>
					<polygon id="_x30_.1.0.224" fill="#404040" points="-12.18,444.554 -25.138,444.554 -35.89,444.554 -35.897,444.551 
						-37.212,444.551 -37.212,444.548 -50.166,444.548 -60.922,444.548 -60.928,444.544 -73.879,444.544 -84.882,444.544 
						-97.839,444.544 -102.812,449.51 -102.812,462.469 -97.839,467.442 -84.882,467.442 -74.129,467.442 -74.123,467.444 
						-72.809,467.444 -72.809,467.447 -59.855,467.447 -49.098,467.447 -49.092,467.451 -36.138,467.451 -25.138,467.451 
						-12.18,467.451 -7.207,462.479 -7.207,449.52 					"/>
					<g transform="matrix(1, 0, 0, 1, 77.5417, 153.238)">
						
							<text id="_x30_.1.0.225" transform="matrix(1 0 0 1 -282.7167 287.9672)" fill="#FFFFFF" font-family="'OCRA'" font-size="6.587">SCL SDA 5V G</text>
					</g>
					<g transform="matrix(1, 0, 0, 1, 109.553, 153.422)">
						
							<text id="_x30_.1.0.226" transform="matrix(1 0 0 1 -209.2964 288.3867)" fill="#FFFFFF" font-family="'OCRA'" font-size="6.587">RX-0 TX-1 5V G</text>
					</g>
					<g transform="matrix(1, 0, 0, 1, 87.9167, 167.304)">
						
							<text id="_x30_.1.0.227" transform="matrix(1 0 0 1 -258.9198 320.2254)" fill="#FFFFFF" font-family="'OCRA'" font-size="9.8805">I2C</text>
					</g>
					<g transform="matrix(1, 0, 0, 1, 118.844, 167.386)">
						
							<text id="_x30_.1.0.228" transform="matrix(1 0 0 1 -187.9897 320.413)" fill="#FFFFFF" font-family="'OCRA'" font-size="9.8805">UART</text>
					</g>
					<polygon id="_x30_.1.0.229" fill="#404040" points="-286.841,89.411 -286.841,76.459 -286.841,65.7 -286.838,65.697 
						-286.838,64.385 -286.834,64.381 -286.834,51.429 -286.834,40.671 -286.831,40.668 -286.831,27.715 -286.831,16.713 
						-286.831,3.757 -291.797,-1.219 -304.751,-1.219 -309.723,3.757 -309.723,16.713 -309.723,27.468 -309.726,27.471 
						-309.726,28.783 -309.73,28.787 -309.73,41.742 -309.73,52.497 -309.735,52.501 -309.735,65.456 -309.735,76.459 
						-309.735,89.411 -304.76,94.387 -291.803,94.387 					"/>
					<g transform="matrix(0, 1, -1, 0, 53.7649, 19.8291)">
						
							<text id="_x30_.1.0.230" transform="matrix(1 0 0 1 -18.0126 337.2407)" fill="#FFFFFF" font-family="'OCRA'" font-size="6.587">GND 5V 3.3V Vin</text>
					</g>
					<polyline id="_x30_.1.0.231" fill="none" stroke="#FFFFFF" points="-163.969,-81.553 -148.045,-65.632 -148.045,53.205 					
						"/>
					<polyline id="_x30_.1.0.232" fill="none" stroke="#FFFFFF" points="-165.342,278.692 -149.419,262.774 -149.419,143.938 					
						"/>
					
						<rect id="_x30_.1.0.233" x="-215.734" y="430.676" fill="none" stroke="#FFFFFF" stroke-miterlimit="10" width="215.3" height="44.434"/>
					
						<line id="_x30_.1.0.234" fill="none" stroke="#FFFFFF" stroke-miterlimit="10" x1="-108.082" y1="430.676" x2="-108.082" y2="475.109"/>
					<g id="_x30_.1.0.235">
						<polyline id="_x30_.1.0.235.0" fill="none" stroke="#FFFFFF" points="-24.315,408.059 -8.394,392.138 -8.394,273.301 						
							"/>
						<polyline id="_x30_.1.0.235.1" fill="none" stroke="#FFFFFF" points="7.527,408.059 -8.394,392.138 -8.394,273.301 
							-8.394,213.401 						"/>
					</g>
					<g id="_x30_.1.0.236">
						<polyline id="_x30_.1.0.236.0" fill="none" stroke="#FFFFFF" points="7.527,-81.553 -8.394,-65.632 -8.394,53.205 						"/>
						<polyline id="_x30_.1.0.236.1" fill="none" stroke="#FFFFFF" points="-24.315,-81.553 -8.394,-65.632 -8.394,53.205 
							-8.394,113.112 						"/>
					</g>
					<rect id="connector77pin" x="-246.298" y="-57.865" fill="#F4BC17" width="7.115" height="7.115"/>
					<rect id="connector76pin" x="-198.874" y="-57.865" fill="#F4BC17" width="7.114" height="7.115"/>
					<rect id="connector75pin" x="-222.583" y="-57.865" fill="#F4BC17" width="7.113" height="7.115"/>
					<rect id="connector74pin" x="-246.298" y="264.832" fill="#F4BC17" width="7.115" height="7.111"/>
					<rect id="connector73pin" x="-198.874" y="264.832" fill="#F4BC17" width="7.114" height="7.111"/>
					<rect id="connector72pin" x="-222.583" y="264.832" fill="#F4BC17" width="7.113" height="7.111"/>
					<rect id="connector71pin" x="-246.298" y="200.29" fill="#F4BC17" width="7.115" height="7.115"/>
					<rect id="connector70pin" x="-198.874" y="200.29" fill="#F4BC17" width="7.114" height="7.115"/>
					<rect id="connector69pin" x="-222.583" y="200.29" fill="#F4BC17" width="7.113" height="7.115"/>
					<rect id="connector68pin" x="-246.298" y="135.752" fill="#F4BC17" width="7.115" height="7.114"/>
					<rect id="connector67pin" x="-198.874" y="135.752" fill="#F4BC17" width="7.114" height="7.114"/>
					<rect id="connector66pin" x="-222.583" y="135.752" fill="#F4BC17" width="7.113" height="7.114"/>
					<rect id="connector65pin" x="-246.298" y="6.674" fill="#F4BC17" width="7.115" height="7.114"/>
					<rect id="connector64pin" x="-198.874" y="6.674" fill="#F4BC17" width="7.114" height="7.114"/>
					<rect id="connector63pin" x="-222.583" y="6.674" fill="#F4BC17" width="7.113" height="7.114"/>
					<rect id="connector62pin" x="-246.298" y="71.136" fill="#F4BC17" width="7.115" height="6.461"/>
					<rect id="connector61pin" x="-198.874" y="71.142" fill="#F4BC17" width="7.114" height="6.526"/>
					<rect id="connector60pin" x="-222.583" y="71.213" fill="#F4BC17" width="7.113" height="7.111"/>
					<rect id="connector59pin" x="-103.3" y="-55.709" fill="#F4BC17" width="7.114" height="7.111"/>
					<rect id="connector58pin" x="-55.877" y="-55.709" fill="#F4BC17" width="7.115" height="7.111"/>
					<rect id="connector57pin" x="-79.586" y="-55.709" fill="#F4BC17" width="7.113" height="7.111"/>
					<rect id="connector56pin" x="-103.3" y="266.984" fill="#F4BC17" width="7.114" height="7.114"/>
					<rect id="connector55pin" x="-55.877" y="266.984" fill="#F4BC17" width="7.115" height="7.114"/>
					<rect id="connector54pin" x="-79.586" y="266.984" fill="#F4BC17" width="7.113" height="7.114"/>
					<rect id="connector53pin" x="-103.3" y="202.448" fill="#F4BC17" width="7.114" height="7.114"/>
					<rect id="connector52pin" x="-55.877" y="202.448" fill="#F4BC17" width="7.115" height="7.114"/>
					<rect id="connector51pin" x="-79.586" y="202.448" fill="#F4BC17" width="7.113" height="7.114"/>
					<rect id="connector50pin" x="-103.3" y="137.859" fill="#F4BC17" width="7.114" height="6.735"/>
					<rect id="connector49pin" x="-55.877" y="137.906" fill="#F4BC17" width="7.115" height="7.111"/>
					<rect id="connector48pin" x="-79.586" y="137.906" fill="#F4BC17" width="7.113" height="7.111"/>
					<rect id="connector47pin" x="-103.3" y="8.829" fill="#F4BC17" width="7.114" height="7.115"/>
					<rect id="connector46pin" x="-55.877" y="8.829" fill="#F4BC17" width="7.115" height="7.115"/>
					<rect id="connector45pin" x="-79.586" y="8.829" fill="#F4BC17" width="7.113" height="7.115"/>
					<rect id="connector44pin" x="-103.3" y="73.365" fill="#F4BC17" width="7.114" height="7.114"/>
					<rect id="connector43pin" x="-55.877" y="73.365" fill="#F4BC17" width="7.115" height="7.114"/>
					<rect id="connector42pin" x="-79.586" y="73.365" fill="#F4BC17" width="7.113" height="7.114"/>
					<rect id="connector41pin" x="-103.3" y="392.772" fill="#F4BC17" width="7.114" height="7.114"/>
					<rect id="connector40pin" x="-55.877" y="392.772" fill="#F4BC17" width="7.115" height="7.114"/>
					<rect id="connector39pin" x="-79.586" y="392.772" fill="#F4BC17" width="7.113" height="7.114"/>
					<rect id="connector38pin" x="-103.3" y="331.523" fill="#F4BC17" width="7.114" height="7.114"/>
					<rect id="connector37pin" x="-55.877" y="331.523" fill="#F4BC17" width="7.115" height="7.114"/>
					<rect id="connector36pin" x="-79.586" y="331.523" fill="#F4BC17" width="7.113" height="7.114"/>
					<rect id="connector12pin" x="39.22" y="-55.108" fill="#F4BC17" width="7.114" height="7.114"/>
					<rect id="connector14pin" x="86.645" y="-55.108" fill="#F4BC17" width="7.115" height="7.114"/>
					<rect id="connector13pin" x="62.937" y="-55.108" fill="#F4BC17" width="7.115" height="7.114"/>
					<rect id="connector27pin" x="39.22" y="267.589" fill="#F4BC17" width="7.114" height="7.111"/>
					<rect id="connector29pin" x="86.645" y="267.589" fill="#F4BC17" width="7.115" height="7.111"/>
					<rect id="connector28pin" x="62.937" y="267.589" fill="#F4BC17" width="7.115" height="7.111"/>
					<rect id="connector24pin" x="39.22" y="203.047" fill="#F4BC17" width="7.114" height="7.114"/>
					<rect id="connector26pin" x="86.645" y="203.047" fill="#F4BC17" width="7.115" height="7.114"/>
					<rect id="connector25pin" x="62.937" y="203.047" fill="#F4BC17" width="7.115" height="7.114"/>
					<rect id="connector21pin" x="39.22" y="138.508" fill="#F4BC17" width="7.114" height="7.114"/>
					<rect id="connector23pin" x="86.645" y="138.508" fill="#F4BC17" width="7.115" height="7.114"/>
					<rect id="connector22pin" x="62.937" y="138.408" fill="#F4BC17" width="7.115" height="6.285"/>
					<rect id="connector15pin" x="39.22" y="9.431" fill="#F4BC17" width="7.114" height="7.114"/>
					<rect id="connector17pin" x="86.645" y="9.431" fill="#F4BC17" width="7.115" height="7.114"/>
					<rect id="connector16pin" x="62.937" y="9.431" fill="#F4BC17" width="7.115" height="7.114"/>
					<rect id="connector18pin" x="39.22" y="74.696" fill="#F4BC17" width="7.114" height="6.461"/>
					<rect id="connector20pin" x="86.645" y="73.969" fill="#F4BC17" width="7.115" height="7.115"/>
					<rect id="connector19pin" x="62.937" y="73.969" fill="#F4BC17" width="7.115" height="7.115"/>
					<rect id="connector33pin" x="39.22" y="393.369" fill="#F4BC17" width="7.114" height="7.115"/>
					<rect id="connector35pin" x="86.645" y="393.369" fill="#F4BC17" width="7.115" height="7.115"/>
					<rect id="connector34pin" x="62.937" y="393.369" fill="#F4BC17" width="7.115" height="7.115"/>
					<rect id="connector30pin" x="39.22" y="332.127" fill="#F4BC17" width="7.114" height="7.115"/>
					<rect id="connector32pin" x="86.645" y="332.127" fill="#F4BC17" width="7.115" height="7.115"/>
					<rect id="connector31pin" x="62.937" y="332.127" fill="#F4BC17" width="7.115" height="7.115"/>
					<rect id="connector4pin" x="-198.733" y="452.441" fill="#F4BC17" width="7.114" height="7.111"/>
					<rect id="connector6pin" x="-151.31" y="452.441" fill="#F4BC17" width="7.115" height="7.111"/>
					<rect id="connector5pin" x="-175.019" y="452.441" fill="#F4BC17" width="7.114" height="7.111"/>
					<rect id="connector7pin" x="-127.596" y="452.441" fill="#F4BC17" width="7.115" height="7.111"/>
					<rect id="connector8pin" x="-93.343" y="452.441" fill="#F4BC17" width="7.114" height="7.111"/>
					<rect id="connector10pin" x="-45.912" y="452.441" fill="#F4BC17" width="7.114" height="7.111"/>
					<rect id="connector9pin" x="-69.623" y="452.441" fill="#F4BC17" width="7.115" height="7.111"/>
					<rect id="connector11pin" x="-22.202" y="452.441" fill="#F4BC17" width="7.115" height="7.111"/>
					<rect id="connector0pin" x="-301.835" y="8.254" fill="#F4BC17" width="7.113" height="7.114"/>
					<rect id="connector2pin" x="-301.835" y="55.678" fill="#F4BC17" width="7.113" height="7.114"/>
					<rect id="connector1pin" x="-301.835" y="31.967" fill="#F4BC17" width="7.113" height="7.111"/>
					<rect id="connector3pin" x="-301.835" y="79.392" fill="#F4BC17" width="7.113" height="7.114"/>
				</g>
			</g>
		</g>
	</g>
</g>
<g>
	<g transform="translate(218.588,256.434)">
		<g id="breadboard_1_">
			<g id="icon">
				<polygon id="_x30_.1.0.0_1_" fill="#4F4F51" stroke="#000000" stroke-miterlimit="10" points="108.519,487.673 96.526,424.025 
					108.519,360.38 132.523,360.38 144.516,424.025 132.523,487.673 				"/>
				<path id="_x30_.1.0.1_1_" fill="#4F4F51" stroke="#000000" stroke-miterlimit="10" d="M238.375,384.136H4.574l-24.093,24.088
					v356.197l39.827,39.831h197.129l43.121-43.114l0.003-354.825L238.375,384.136z M8.489,757.577c-5.156,0-9.334-4.178-9.334-9.334
					c0-5.159,4.178-9.337,9.334-9.337c5.158,0,9.337,4.178,9.337,9.337C17.826,753.399,13.647,757.577,8.489,757.577z
					 M8.489,618.438c-5.156,0-9.334-4.175-9.334-9.334c0-5.155,4.178-9.333,9.334-9.333c5.158,0,9.337,4.178,9.337,9.333
					C17.826,614.263,13.647,618.438,8.489,618.438z M-0.849,570.859c0-5.159,4.182-9.34,9.334-9.34c5.159,0,9.341,4.181,9.341,9.34
					c0,5.153-4.182,9.334-9.341,9.334C3.333,580.193-0.849,576.015-0.849,570.859z M8.489,412.188c-5.156,0-9.334-4.178-9.334-9.337
					c0-5.152,4.178-9.333,9.334-9.333c5.158,0,9.337,4.181,9.337,9.333C17.826,408.011,13.647,412.188,8.489,412.188z
					 M35.918,796.739c-5.156,0-9.334-4.179-9.334-9.334c0-5.156,4.178-9.337,9.334-9.337c5.158,0,9.337,4.181,9.337,9.337
					C45.255,792.563,41.073,796.739,35.918,796.739z M205.125,796.739c-5.152,0-9.334-4.179-9.334-9.334
					c0-5.156,4.182-9.337,9.334-9.337c5.159,0,9.34,4.181,9.34,9.337C214.459,792.563,210.281,796.739,205.125,796.739z
					 M232.551,757.577c-5.156,0-9.334-4.178-9.334-9.334c0-5.159,4.178-9.337,9.334-9.337c5.159,0,9.337,4.178,9.337,9.337
					C241.888,753.399,237.71,757.577,232.551,757.577z M232.551,618.438c-5.156,0-9.334-4.178-9.334-9.334
					c0-5.155,4.178-9.336,9.334-9.336c5.159,0,9.337,4.181,9.337,9.336C241.888,614.263,237.71,618.438,232.551,618.438z
					 M223.217,570.859c0-5.159,4.178-9.34,9.334-9.34c5.159,0,9.337,4.181,9.337,9.34c0,5.153-4.178,9.334-9.337,9.334
					C227.394,580.193,223.217,576.015,223.217,570.859z M232.551,412.188c-5.156,0-9.334-4.178-9.334-9.337
					c0-5.152,4.178-9.333,9.334-9.333c5.159,0,9.337,4.181,9.337,9.333C241.888,408.011,237.71,412.188,232.551,412.188z"/>
				<path id="_x30_.1.0.2_1_" stroke="#000000" stroke-miterlimit="10" d="M213.88,748.236c0,5.159-4.182,9.341-9.334,9.341H36.5
					c-5.156,0-9.334-4.182-9.334-9.341V393.472c0-5.155,4.175-9.333,9.334-9.333h168.046c5.152,0,9.334,4.178,9.334,9.333V748.236z"
					/>
				<circle id="_x30_.1.0.3_1_" fill="#4F4F51" stroke="#000000" stroke-miterlimit="10" cx="120.522" cy="477.497" r="93.362"/>
				<path id="_x30_.1.0.4_1_" fill="#FFFFFF" stroke="#000000" stroke-miterlimit="10" d="M123.459,466.245v-5.056h-5.869v5.056
					c-5.015,1.31-8.735,5.832-8.735,11.254c0,6.442,5.227,11.669,11.668,11.669c6.446,0,11.673-5.227,11.673-11.669
					C132.191,472.077,128.474,467.555,123.459,466.245z"/>
				<path id="_x30_.1.0.5_1_" fill="#FFFFFF" stroke="#000000" stroke-width="0.5" d="M68.091,417.023
					c3.865,0,6.998,3.136,6.998,7.002c0,3.869-3.133,7.005-6.998,7.005c-3.866,0-7.006-3.136-7.006-7.005
					C61.085,420.159,64.224,417.023,68.091,417.023z"/>
				<path id="_x30_.1.0.6_1_" fill="#FFFFFF" stroke="#000000" stroke-width="0.5" d="M172.917,523.426
					c3.866,0,6.998,3.136,6.998,7.002c0,3.865-3.132,7.001-6.998,7.001c-3.869,0-7.005-3.136-7.005-7.001
					C165.912,526.561,169.048,523.426,172.917,523.426z"/>
				<path id="_x30_.1.0.7_1_" fill="#FFFFFF" stroke="#000000" stroke-width="0.5" d="M172.917,417.023
					c3.866,0,6.998,3.136,6.998,7.002c0,3.869-3.132,7.005-6.998,7.005c-3.869,0-7.005-3.136-7.005-7.005
					C165.912,420.159,169.048,417.023,172.917,417.023z"/>
				<path id="_x30_.1.0.8_1_" fill="#FFFFFF" stroke="#000000" stroke-width="0.5" d="M68.091,523.426
					c3.865,0,6.998,3.136,6.998,7.002c0,3.865-3.133,7.001-6.998,7.001c-3.866,0-7.006-3.136-7.006-7.001
					C61.085,526.561,64.224,523.426,68.091,523.426z"/>
				<path id="_x30_.1.0.9_1_" fill="#FFFFFF" stroke="#000000" stroke-width="0.5" d="M120.522,395.853
					c3.87,0,7.006,3.136,7.006,7.002c0,3.869-3.136,7.002-7.006,7.002c-3.865,0-6.998-3.133-6.998-7.002
					C113.524,398.989,116.657,395.853,120.522,395.853z"/>
				<circle id="_x30_.1.0.10_1_" fill="#FFFFFF" stroke="#000000" stroke-width="0.5" cx="120.522" cy="552.14" r="7.002"/>
				<circle id="_x30_.1.0.11_1_" fill="#FFFFFF" stroke="#000000" stroke-width="0.5" cx="195.171" cy="477.496" r="7.002"/>
				<circle id="_x30_.1.0.12_1_" fill="#FFFFFF" stroke="#000000" stroke-width="0.5" cx="45.879" cy="477.496" r="7.002"/>
				<path id="_x30_.1.0.13_1_" fill="#F9D16F" stroke="#000000" stroke-miterlimit="10" d="M205.125,712.188
					c0,5.155-4.178,9.337-9.334,9.337H45.251c-5.155,0-9.333-4.182-9.333-9.337v-74.433c0-5.152,4.178-9.334,9.333-9.334h150.54
					c5.156,0,9.334,4.182,9.334,9.334V712.188z"/>
				<path id="_x30_.1.0.14_1_" stroke="#010101" stroke-width="0.5" stroke-linecap="round" stroke-linejoin="round" d="
					M118.1,698.85c-0.209-1.203-0.807-2.172-1.334-3.088c-4.297-7.498-8.613-14.911-12.969-22.431
					c-4.371-7.556-8.542-14.844-12.942-22.444c-1.058-1.833-2.174-3.708-3.252-5.596c-0.53-0.923-1.025-1.853-1.798-2.631
					c-0.727-0.724-1.795-1.419-3.116-1.312c-1.226,0.094-2.197,0.813-2.882,1.569c-0.724,0.795-1.203,1.814-1.721,2.705
					c-3.268,5.587-6.507,11.247-9.72,16.818c-6.445,11.183-12.997,22.498-19.427,33.646c-0.553,0.965-1.09,1.917-1.196,3.213
					c-0.238,2.854,1.975,4.185,4.548,4.285c1.306,0.045,2.348,0.013,3.519,0.016c5.538,0.022,11.511-0.07,17.124-0.016
					c2.586,0.016,4.728-0.033,7.005,0c2.36,0.021,4.391,0.045,6.773,0.016c3.506-0.042,6.964-0.049,10.177,0
					c2.077,0.029,4.483-0.003,6.716,0c2.241,0.006,4.589,0.02,6.908,0c0.55-0.003,1.306-0.01,1.782,0
					c0.55,0.006,1.055,0.013,1.756-0.062C116.496,703.279,118.612,701.803,118.1,698.85z M114.849,700.361
					c-0.843,0.47-2.535,0.345-3.873,0.335c-1.46-0.016-2.759-0.035-4.175,0c-2.676,0.055-5.423-0.045-8.089,0
					c-1.393,0.022-2.782,0.01-4.12,0c-3.969-0.035-7.989-0.025-12.17,0.016c-2.573,0.029-5.179-0.016-7.974-0.016
					c-5.236,0-10.63,0.074-16.001,0c-1.229-0.022-2.531,0-3.869,0c-1.181-0.007-2.914,0.154-3.699-0.45
					c-0.171-0.132-0.261-0.29-0.267-0.54c-0.026-0.711,0.411-1.467,0.733-2.011c2.328-3.969,4.73-8.243,7.024-12.151
					c1.344-2.296,2.682-4.622,4.004-6.97c1.322-2.332,2.718-4.622,4.03-6.928c2.673-4.699,5.326-9.205,8.009-13.914
					c1.968-3.451,4.023-6.898,6.015-10.431c0.312-0.547,0.669-1.142,1.028-1.714c0.31-0.502,0.814-1.271,1.416-1.354
					c0.296-0.045,0.694,0.264,0.91,0.463c0.257,0.242,0.438,0.521,0.602,0.772c0.732,1.148,1.347,2.315,2.01,3.483
					c0.331,0.589,0.662,1.167,1.007,1.743c1.402,2.342,2.686,4.673,4.026,6.963c2.647,4.532,5.385,9.363,8.048,13.931
					c5.107,8.761,9.999,17.346,15.097,26.123C114.939,698.358,115.782,699.844,114.849,700.361z"/>
				<path id="_x30_.1.0.15_1_" stroke="#010101" stroke-width="0.5" stroke-linecap="round" stroke-linejoin="round" d="
					M100.099,682.46c-0.438-0.409-0.888-0.895-1.335-1.338c-0.126-0.123-0.345-0.393-0.486-0.425c-0.128-0.032-0.282,0.022-0.382,0
					c-2.918-4.973-5.773-9.941-8.649-14.956c-0.147-0.258-0.53-0.749-0.578-1.007c-0.078-0.383,0-0.878,0-1.3
					c0-0.463,0-0.903,0-1.318c-0.869,0-1.73,0-2.593,0c0,3.625,0,7.24,0,10.858c0.862,0,1.724,0,2.593,0c0-0.627,0-1.267,0-1.895
					c2.058,3.516,4.091,7.069,6.13,10.607c-0.129,0.309-0.663,0.492-0.736,0.83c-0.062,0.293,0,0.649,0,0.965s0,0.637,0,0.972
					c-1.615,1.119-3.294,2.171-4.911,3.283c-0.148-0.112-0.303-0.296-0.482-0.479c-0.129-0.126-0.367-0.425-0.521-0.464
					c-0.328-0.077-0.836,0-1.3,0c-2.604,0-5.204,0-7.776,0c-0.467,0-0.979-0.077-1.3,0c-0.01,0-0.025-0.009-0.038,0
					c-0.399,0.231-0.686,0.83-0.984,0.927c-1.415-0.949-2.866-1.904-4.297-2.862c-0.171-0.116-0.554-0.293-0.602-0.428
					c-0.081-0.255,0-0.659,0-0.969c0-0.306,0.073-0.707,0-0.987c-0.032-0.132-0.273-0.312-0.37-0.405
					c-0.135-0.135-0.276-0.219-0.366-0.405c2.058-3.502,4.091-7.134,6.137-10.562c0,0.621,0,1.252,0,1.872c0.861,0,1.727,0,2.589,0
					c0-3.618,0-7.233,0-10.858c-0.862,0-1.728,0-2.589,0c0,0.357,0,0.862,0,1.318c0,0.429,0.063,0.898,0,1.277
					c-0.029,0.125-0.164,0.338-0.277,0.521c-2.997,5.14-5.96,10.359-8.938,15.461c-0.113,0.028-0.273-0.032-0.405,0
					c-0.139,0.031-0.357,0.302-0.486,0.424c-0.443,0.447-0.897,0.93-1.335,1.338c0,0.84,0,1.68,0,2.513
					c0.441,0.411,0.885,0.891,1.335,1.338c0.136,0.135,0.345,0.392,0.486,0.428c0.27,0.061,0.624,0,0.929,0c0.315,0,0.624,0,0.949,0
					c1.991,1.315,3.998,2.611,5.96,3.966c0.087,0.431-0.116,1.074,0,1.489c0.045,0.16,0.38,0.396,0.56,0.578
					c0.443,0.444,0.708,0.705,1.145,1.143c0.206,0.209,0.405,0.515,0.599,0.56c0.45,0.109,1.022-0.077,1.415,0
					c0,2.084,0,4.175,0,6.252c2.548,0,5.095,0,7.643,0c0-2.081,0-4.171,0-6.252c0.363-0.068,0.903,0.103,1.318,0
					c0.177-0.042,0.421-0.357,0.599-0.541c0.476-0.476,0.714-0.714,1.164-1.161c0.187-0.187,0.502-0.437,0.54-0.62
					c0.097-0.477-0.077-1.017,0-1.47c1.733-1.139,3.461-2.316,5.204-3.464c0.238-0.158,0.572-0.444,0.771-0.479
					c0.287-0.067,0.641,0,0.93,0c0.303,0,0.646,0.067,0.93,0c0.157-0.045,0.328-0.293,0.463-0.428
					c0.47-0.47,0.924-0.914,1.354-1.338C100.099,684.138,100.099,683.299,100.099,682.46z"/>
				<g transform="matrix(1, 0, 0, 1, 38.754, 94.07)">
					<text id="_x30_.1.0.16_1_" transform="matrix(1 0 0 1 67.7156 567.0148)" font-family="'DroidSans'" font-size="29.6417">Robot</text>
				</g>
				<g transform="matrix(1, 0, 0, 1, 43.588, 101.07)">
					<text id="_x30_.1.0.17_1_" transform="matrix(1 0 0 1 78.8015 583.0695)" font-family="'DroidSans'" font-size="29.6417">Geek</text>
				</g>
				<rect id="connector0pin_1_" x="107.349" y="351.262" width="7.472" height="7.472"/>
				<rect id="connector1pin_1_" x="116.792" y="351.262" width="7.469" height="7.472"/>
				<rect id="connector2pin_1_" x="126.524" y="351.262" width="7.469" height="7.472"/>
			</g>
		</g>
	</g>
</g>
<g>
	<g>
		<path fill="#1B5BB3" d="M117.21,287.471H93.503c-2.911,0-5.269-2.359-5.269-5.271c0-2.91,2.357-5.27,5.269-5.27h23.708
			c2.911,0,5.268,2.359,5.268,5.27C122.479,285.112,120.121,287.471,117.21,287.471z"/>
	</g>
	<g>
		<path fill="#418DD9" d="M117.21,284.835H93.503c-1.454,0-2.634-1.179-2.634-2.635c0-1.455,1.18-2.634,2.634-2.634h23.708
			c1.454,0,2.634,1.179,2.634,2.634C119.845,283.656,118.664,284.835,117.21,284.835z"/>
	</g>
</g>
<g>
	<g>
		<path fill="#1B5BB3" d="M69.782,222.932c-2.856,0-5.204-2.285-5.265-5.155c-0.064-2.909,2.245-5.32,5.153-5.383l23.717-0.515
			c0.042-0.002,0.08-0.002,0.119-0.002c2.856,0,5.204,2.285,5.265,5.156c0.064,2.909-2.245,5.319-5.152,5.383l-23.717,0.515
			C69.859,222.932,69.821,222.932,69.782,222.932z"/>
	</g>
	<g>
		<path fill="#418DD9" d="M69.786,220.296c-1.431,0-2.602-1.142-2.634-2.576c-0.032-1.455,1.123-2.66,2.576-2.692l23.717-0.515
			c1.435,0.026,2.66,1.123,2.692,2.577c0.032,1.455-1.122,2.659-2.576,2.691l-23.717,0.515
			C69.824,220.296,69.805,220.296,69.786,220.296z"/>
	</g>
</g>
<g>
	<g>
		<path fill="#999999" d="M329.674,616.698c-1.363,0-2.728-0.524-3.76-1.576L66.026,350.435c-2.04-2.077-2.01-5.413,0.067-7.452
			c2.078-2.037,5.41-2.009,7.452,0.067l259.888,264.688c2.04,2.078,2.011,5.413-0.067,7.452
			C332.341,616.197,331.006,616.698,329.674,616.698z"/>
	</g>
	<g>
		<path fill="#FFFFFF" d="M329.674,614.065c-0.682,0-1.363-0.265-1.881-0.788L67.904,348.589c-1.02-1.039-1.004-2.707,0.035-3.727
			c1.042-1.02,2.705-1.006,3.728,0.034l259.889,264.688c1.02,1.038,1.004,2.708-0.035,3.728
			C331.006,613.814,330.34,614.065,329.674,614.065z"/>
	</g>
</g>
<g>
	<g>
		<path d="M339.11,616.698c-1.415,0-2.823-0.566-3.862-1.686L89.64,350.327c-1.978-2.134-1.856-5.468,0.28-7.447
			c2.129-1.979,5.464-1.857,7.446,0.278l245.608,264.689c1.979,2.133,1.855,5.468-0.28,7.446
			C341.681,616.236,340.395,616.698,339.11,616.698z"/>
	</g>
	<g>
		<path fill="#404040" d="M339.11,614.065c-0.707,0-1.411-0.283-1.93-0.843L91.573,348.534c-0.991-1.066-0.93-2.734,0.138-3.723
			c1.058-0.992,2.73-0.93,3.721,0.14l245.608,264.688c0.99,1.064,0.929,2.733-0.139,3.725
			C340.397,613.832,339.754,614.065,339.11,614.065z"/>
	</g>
</g>
<g>
	<g>
		<path d="M348.847,616.698c-1.467,0-2.927-0.608-3.969-1.798L113.245,350.213c-1.917-2.19-1.695-5.52,0.495-7.437
			c2.194-1.916,5.52-1.691,7.436,0.496L352.81,607.959c1.916,2.19,1.694,5.52-0.496,7.437
			C351.313,616.271,350.078,616.698,348.847,616.698z"/>
	</g>
	<g>
		<path fill="#404040" d="M348.844,614.065c-0.733,0-1.464-0.303-1.981-0.901L115.229,348.478c-0.958-1.095-0.849-2.76,0.248-3.718
			c1.09-0.958,2.76-0.851,3.715,0.248l231.633,264.689c0.959,1.094,0.85,2.76-0.247,3.715
			C350.078,613.849,349.461,614.065,348.844,614.065z"/>
	</g>
</g>
<g id="breadboard_4_">
	<rect x="772.285" y="-356.014" fill="#757679" width="15.663" height="190.185"/>
	<rect x="635.804" y="-356.014" fill="#757679" width="15.657" height="190.185"/>
	<path fill="#353333" stroke="#000000" stroke-miterlimit="10" d="M195.02-843.425v47.357v440.938h783.11v-440.938h-0.004
		c-0.334-0.083-312.484-78.922-369.021-51.303l-7.896,17.101C601.212-830.27,342.671-778.964,195.02-843.425z"/>
	<line fill="none" stroke="#000000" stroke-miterlimit="10" x1="922.198" y1="-422.251" x2="922.198" y2="-809.403"/>
	<path fill="#262626" stroke="#000000" stroke-width="1.0006" stroke-miterlimit="10" d="M195.02-844.313v47.357v440.942h727.179
		v-454.273c-92.579-21.199-271.619-58.231-313.094-37.975l-7.893,17.101C601.212-831.161,342.671-779.854,195.02-844.313z"/>
	
		<rect x="195.02" y="-422.251" fill="#262626" stroke="#000000" stroke-width="0.9921" stroke-miterlimit="10" width="783.11" height="67.121"/>
	<rect x="922.198" y="-422.251" fill="#353434" stroke="#000000" stroke-miterlimit="10" width="55.935" height="67.121"/>
	<polyline fill="#262626" stroke="#000000" stroke-width="0.9921" stroke-miterlimit="10" points="195.02,-398.44 128.921,-414.229 
		128.921,-436.921 195.02,-447.776 	"/>
	<path stroke="#000000" stroke-width="0.9921" stroke-miterlimit="10" d="M-196.183-426.069
		c13.369,12.827,122.443,20.72,180.147-4.934c57.701-25.653,144.957,15.789,144.957,15.789v-21.707
		c0,0-87.255-41.439-144.957-15.789c-57.704,25.653-166.777,17.76-180.147,4.934V-426.069z"/>
	<path stroke="#000000" stroke-width="0.9921" stroke-miterlimit="10" d="M-197.148-438.902
		c-12.827,15.889-20.719,145.513,4.934,214.088c25.653,68.572-15.788,172.27-15.788,172.27h21.707c0,0,41.439-103.698,15.786-172.27
		c-25.652-68.575-17.759-198.199-4.933-214.088H-197.148z"/>
</g>
</svg>
