<?xml version="1.0" encoding="utf-8"?>
<!-- Generator: Adobe Illustrator 15.0.0, SVG Export Plug-In . SVG Version: 6.00 Build 0)  -->
<svg version="1.2" baseProfile="tiny" id="Layer_1" xmlns="http://www.w3.org/2000/svg" xmlns:xlink="http://www.w3.org/1999/xlink"
	 x="0px" y="0px" width="70.866px" height="99.213px" viewBox="134.396 135.9 70.866 99.213" overflow="inherit"
	 xml:space="preserve">
<g id="icon_1_">
	<path fill="#231F20" d="M134.396,135.9v99.213h70.866V135.9H134.396z M141.482,232.278c-2.349,0-4.252-1.902-4.252-4.252
		s1.903-4.252,4.252-4.252s4.252,1.902,4.252,4.252S143.831,232.278,141.482,232.278z M141.482,147.238
		c-2.349,0-4.252-1.903-4.252-4.252c0-2.348,1.903-4.252,4.252-4.252s4.252,1.904,4.252,4.252
		C145.734,145.334,143.831,147.238,141.482,147.238z M198.176,138.734c2.348,0,4.252,1.904,4.252,4.252
		c0,2.349-1.904,4.252-4.252,4.252s-4.252-1.903-4.252-4.252C193.924,140.638,195.829,138.734,198.176,138.734z M198.176,232.278
		c-2.35,0-4.252-1.902-4.252-4.252s1.902-4.252,4.252-4.252c2.349,0,4.253,1.902,4.253,4.252S200.524,232.278,198.176,232.278z"/>
	<text transform="matrix(0 -1 1 0 198.0396 222.2622)" fill="#FFFFFF" font-family="'OCRA'" font-size="3">RobotGeek</text>
	<text transform="matrix(0 -1 1 0 201.6392 222.2622)" fill="#FFFFFF" font-family="'OCRA'" font-size="3">Joystick</text>
	<text transform="matrix(1 0 0 1 160.1724 218.0474)" fill="#FFFFFF" font-family="'OCRA'" font-size="7">S</text>
	<text transform="matrix(1 0 0 1 167.1724 218.0474)" fill="#FFFFFF" font-family="'OCRA'" font-size="7">V</text>
	<text transform="matrix(1 0 0 1 174.1724 218.0474)" fill="#FFFFFF" font-family="'OCRA'" font-size="7">G</text>
	<g>
		<title>package:1X08</title>
		
			<line fill="none" stroke="#FFFFFF" stroke-width="0.576" stroke-linecap="round" x1="167.915" y1="218.704" x2="171.515" y2="218.704"/>
		
			<line fill="none" stroke="#FFFFFF" stroke-width="0.576" stroke-linecap="round" x1="171.515" y1="218.704" x2="173.315" y2="220.502"/>
		
			<line fill="none" stroke="#FFFFFF" stroke-width="0.576" stroke-linecap="round" x1="173.315" y1="224.103" x2="171.515" y2="225.903"/>
		
			<line fill="none" stroke="#FFFFFF" stroke-width="0.576" stroke-linecap="round" x1="158.915" y1="220.502" x2="160.715" y2="218.704"/>
		
			<line fill="none" stroke="#FFFFFF" stroke-width="0.576" stroke-linecap="round" x1="160.715" y1="218.704" x2="164.315" y2="218.704"/>
		
			<line fill="none" stroke="#FFFFFF" stroke-width="0.576" stroke-linecap="round" x1="164.315" y1="218.704" x2="166.116" y2="220.502"/>
		
			<line fill="none" stroke="#FFFFFF" stroke-width="0.576" stroke-linecap="round" x1="166.116" y1="224.103" x2="164.315" y2="225.903"/>
		
			<line fill="none" stroke="#FFFFFF" stroke-width="0.576" stroke-linecap="round" x1="164.315" y1="225.903" x2="160.715" y2="225.903"/>
		
			<line fill="none" stroke="#FFFFFF" stroke-width="0.576" stroke-linecap="round" x1="160.715" y1="225.903" x2="158.915" y2="224.103"/>
		
			<line fill="none" stroke="#FFFFFF" stroke-width="0.576" stroke-linecap="round" x1="167.915" y1="218.704" x2="166.116" y2="220.502"/>
		
			<line fill="none" stroke="#FFFFFF" stroke-width="0.576" stroke-linecap="round" x1="166.116" y1="224.103" x2="167.915" y2="225.903"/>
		
			<line fill="none" stroke="#FFFFFF" stroke-width="0.576" stroke-linecap="round" x1="171.515" y1="225.903" x2="167.915" y2="225.903"/>
		
			<line fill="none" stroke="#FFFFFF" stroke-width="0.576" stroke-linecap="round" x1="158.915" y1="220.502" x2="158.915" y2="224.103"/>
		
			<line fill="none" stroke="#FFFFFF" stroke-width="0.576" stroke-linecap="round" x1="175.116" y1="218.704" x2="178.715" y2="218.704"/>
		
			<line fill="none" stroke="#FFFFFF" stroke-width="0.576" stroke-linecap="round" x1="178.715" y1="218.704" x2="180.515" y2="220.502"/>
		
			<line fill="none" stroke="#FFFFFF" stroke-width="0.576" stroke-linecap="round" x1="180.515" y1="220.502" x2="180.515" y2="224.103"/>
		
			<line fill="none" stroke="#FFFFFF" stroke-width="0.576" stroke-linecap="round" x1="180.515" y1="224.103" x2="178.715" y2="225.903"/>
		
			<line fill="none" stroke="#FFFFFF" stroke-width="0.576" stroke-linecap="round" x1="175.116" y1="218.704" x2="173.315" y2="220.502"/>
		
			<line fill="none" stroke="#FFFFFF" stroke-width="0.576" stroke-linecap="round" x1="173.315" y1="224.103" x2="175.116" y2="225.903"/>
		
			<line fill="none" stroke="#FFFFFF" stroke-width="0.576" stroke-linecap="round" x1="178.715" y1="225.903" x2="175.116" y2="225.903"/>
	</g>
	<path fill="#CA2027" d="M160.443,156.536"/>
	<g>
		<title>package:1X08</title>
		
			<line fill="none" stroke="#FFFFFF" stroke-width="0.576" stroke-linecap="round" x1="167.82" y1="226.566" x2="171.42" y2="226.566"/>
		
			<line fill="none" stroke="#FFFFFF" stroke-width="0.576" stroke-linecap="round" x1="171.42" y1="226.566" x2="173.221" y2="228.366"/>
		
			<line fill="none" stroke="#FFFFFF" stroke-width="0.576" stroke-linecap="round" x1="173.221" y1="231.963" x2="171.42" y2="233.765"/>
		
			<line fill="none" stroke="#FFFFFF" stroke-width="0.576" stroke-linecap="round" x1="158.82" y1="228.366" x2="160.622" y2="226.566"/>
		
			<line fill="none" stroke="#FFFFFF" stroke-width="0.576" stroke-linecap="round" x1="160.622" y1="226.566" x2="164.221" y2="226.566"/>
		
			<line fill="none" stroke="#FFFFFF" stroke-width="0.576" stroke-linecap="round" x1="164.221" y1="226.566" x2="166.021" y2="228.366"/>
		
			<line fill="none" stroke="#FFFFFF" stroke-width="0.576" stroke-linecap="round" x1="166.021" y1="231.963" x2="164.221" y2="233.765"/>
		
			<line fill="none" stroke="#FFFFFF" stroke-width="0.576" stroke-linecap="round" x1="164.221" y1="233.765" x2="160.622" y2="233.765"/>
		
			<line fill="none" stroke="#FFFFFF" stroke-width="0.576" stroke-linecap="round" x1="160.622" y1="233.765" x2="158.82" y2="231.963"/>
		
			<line fill="none" stroke="#FFFFFF" stroke-width="0.576" stroke-linecap="round" x1="167.82" y1="226.566" x2="166.021" y2="228.366"/>
		
			<line fill="none" stroke="#FFFFFF" stroke-width="0.576" stroke-linecap="round" x1="166.021" y1="231.963" x2="167.82" y2="233.765"/>
		
			<line fill="none" stroke="#FFFFFF" stroke-width="0.576" stroke-linecap="round" x1="171.42" y1="233.765" x2="167.82" y2="233.765"/>
		
			<line fill="none" stroke="#FFFFFF" stroke-width="0.576" stroke-linecap="round" x1="158.82" y1="228.366" x2="158.82" y2="231.963"/>
		
			<line fill="none" stroke="#FFFFFF" stroke-width="0.576" stroke-linecap="round" x1="175.021" y1="226.566" x2="178.622" y2="226.566"/>
		
			<line fill="none" stroke="#FFFFFF" stroke-width="0.576" stroke-linecap="round" x1="178.622" y1="226.566" x2="180.42" y2="228.366"/>
		
			<line fill="none" stroke="#FFFFFF" stroke-width="0.576" stroke-linecap="round" x1="180.42" y1="228.366" x2="180.42" y2="231.963"/>
		
			<line fill="none" stroke="#FFFFFF" stroke-width="0.576" stroke-linecap="round" x1="180.42" y1="231.963" x2="178.622" y2="233.765"/>
		
			<line fill="none" stroke="#FFFFFF" stroke-width="0.576" stroke-linecap="round" x1="175.021" y1="226.566" x2="173.221" y2="228.366"/>
		
			<line fill="none" stroke="#FFFFFF" stroke-width="0.576" stroke-linecap="round" x1="173.221" y1="231.963" x2="175.021" y2="233.765"/>
		
			<line fill="none" stroke="#FFFFFF" stroke-width="0.576" stroke-linecap="round" x1="178.622" y1="233.765" x2="175.021" y2="233.765"/>
	</g>
	<text transform="matrix(1 0 0 1 146.436 224.356)" fill="#FFFFFF" font-family="'OCRA'" font-size="4">VERT</text>
	<text transform="matrix(1 0 0 1 146.436 231.356)" fill="#FFFFFF" font-family="'OCRA'" font-size="4">HORZ</text>
	<circle id="connector1pad" fill="none" stroke="#989898" stroke-miterlimit="10" cx="169.736" cy="230.165" r="2.052"/>
	<circle id="connector0pad" fill="none" stroke="#989898" stroke-miterlimit="10" cx="176.936" cy="230.165" r="2.052"/>
	<circle id="connector2pad" fill="none" stroke="#989898" stroke-miterlimit="10" cx="162.536" cy="230.165" r="2.052"/>
	<circle id="connector4pad" fill="none" stroke="#989898" stroke-miterlimit="10" cx="169.831" cy="222.303" r="2.052"/>
	<circle id="connector3pad" fill="none" stroke="#989898" stroke-miterlimit="10" cx="177.032" cy="222.303" r="2.052"/>
	<circle id="connector5pad" fill="none" stroke="#989898" stroke-miterlimit="10" cx="162.631" cy="222.303" r="2.052"/>
	<rect x="168.577" y="139.254" fill="#FFFFFF" width="2.836" height="2.835"/>
	<rect x="156.53" y="140.119" fill="#404040" width="26.93" height="8.504"/>
	<rect x="138.768" y="169.065" fill="#FFFFFF" width="2.836" height="2.836"/>
	<rect x="139.625" y="157.019" fill="#404040" width="8.504" height="26.928"/>
	<rect x="147.601" y="148.089" fill="#CCCCCE" width="44.787" height="44.787"/>
	<path fill="#4A4A4C" stroke="#231F20" d="M184.569,180.144c0,2.348-1.904,4.252-4.252,4.252H159.34
		c-2.348,0-4.252-1.904-4.252-4.252v-20.977c0-2.348,1.904-4.252,4.252-4.252h20.977c2.348,0,4.252,1.904,4.252,4.252V180.144z"/>
	<circle fill="#231F20" stroke="#231F20" cx="169.829" cy="169.656" r="5.811"/>
</g>
</svg>
