<?xml version="1.0" encoding="utf-8"?>
<!-- Generator: Adobe Illustrator 15.0.0, SVG Export Plug-In . SVG Version: 6.00 Build 0)  -->
<!DOCTYPE svg PUBLIC "-//W3C//DTD SVG 1.1 Basic//EN" "http://www.w3.org/Graphics/SVG/1.1/DTD/svg11-basic.dtd">
<svg version="1.1" baseProfile="basic" id="Layer_1"
	 xmlns="http://www.w3.org/2000/svg" xmlns:xlink="http://www.w3.org/1999/xlink" x="0px" y="0px" width="70.866px"
	 height="269.291px" viewBox="135.234 50.9 70.866 269.291" xml:space="preserve">
<g id="breadboard">
	<g id="icon_1_">
		<path fill="#231F20" d="M206.1,50.9v0.394h-70.865v268.897h70.866L206.1,50.9L206.1,50.9z M142.32,317.356
			c-2.348,0-4.252-1.903-4.252-4.252c0-2.348,1.904-4.252,4.252-4.252c2.349,0,4.252,1.904,4.252,4.252
			C146.572,315.453,144.669,317.356,142.32,317.356z M142.32,62.632c-2.348,0-4.252-1.904-4.252-4.252
			c0-2.349,1.904-4.252,4.252-4.252c2.349,0,4.252,1.903,4.252,4.252C146.572,60.728,144.669,62.632,142.32,62.632z M199.014,54.128
			c2.348,0,4.252,1.903,4.252,4.252c0,2.348-1.904,4.252-4.252,4.252s-4.252-1.904-4.252-4.252
			C194.762,56.032,196.666,54.128,199.014,54.128z M199.015,317.356c-2.35,0-4.252-1.903-4.252-4.252
			c0-2.348,1.902-4.252,4.252-4.252c2.348,0,4.252,1.904,4.252,4.252C203.267,315.453,201.362,317.356,199.015,317.356z"/>
		<text transform="matrix(0 -1 1 0 195.5391 304.4722)"><tspan x="0" y="0" fill="#FFFFFF" font-family="'OCRA'" font-size="5">RobotGeek</tspan><tspan x="0" y="6" fill="#FFFFFF" font-family="'OCRA'" font-size="5">Slider Potentiometer</tspan></text>
		<g>
			<text transform="matrix(1 0 0 1 161.9238 273.5669)" fill="#FFFFFF" font-family="'OCRA'" font-size="7" letter-spacing="2">SVG</text>
			<g>
				<title>package:1X08</title>
				
					<line fill="none" stroke="#FFFFFF" stroke-width="0.576" stroke-linecap="round" x1="169.668" y1="274.224" x2="173.268" y2="274.224"/>
				
					<line fill="none" stroke="#FFFFFF" stroke-width="0.576" stroke-linecap="round" x1="173.268" y1="274.224" x2="175.068" y2="276.023"/>
				
					<line fill="none" stroke="#FFFFFF" stroke-width="0.576" stroke-linecap="round" x1="175.068" y1="279.624" x2="173.268" y2="281.423"/>
				
					<line fill="none" stroke="#FFFFFF" stroke-width="0.576" stroke-linecap="round" x1="160.668" y1="276.023" x2="162.469" y2="274.224"/>
				
					<line fill="none" stroke="#FFFFFF" stroke-width="0.576" stroke-linecap="round" x1="162.469" y1="274.224" x2="166.068" y2="274.224"/>
				
					<line fill="none" stroke="#FFFFFF" stroke-width="0.576" stroke-linecap="round" x1="166.068" y1="274.224" x2="167.869" y2="276.023"/>
				
					<line fill="none" stroke="#FFFFFF" stroke-width="0.576" stroke-linecap="round" x1="167.869" y1="279.624" x2="166.068" y2="281.423"/>
				
					<line fill="none" stroke="#FFFFFF" stroke-width="0.576" stroke-linecap="round" x1="166.068" y1="281.423" x2="162.469" y2="281.423"/>
				
					<line fill="none" stroke="#FFFFFF" stroke-width="0.576" stroke-linecap="round" x1="162.469" y1="281.423" x2="160.668" y2="279.624"/>
				
					<line fill="none" stroke="#FFFFFF" stroke-width="0.576" stroke-linecap="round" x1="169.668" y1="274.224" x2="167.869" y2="276.023"/>
				
					<line fill="none" stroke="#FFFFFF" stroke-width="0.576" stroke-linecap="round" x1="167.869" y1="279.624" x2="169.668" y2="281.423"/>
				
					<line fill="none" stroke="#FFFFFF" stroke-width="0.576" stroke-linecap="round" x1="173.268" y1="281.423" x2="169.668" y2="281.423"/>
				
					<line fill="none" stroke="#FFFFFF" stroke-width="0.576" stroke-linecap="round" x1="160.668" y1="276.023" x2="160.668" y2="279.624"/>
				
					<line fill="none" stroke="#FFFFFF" stroke-width="0.576" stroke-linecap="round" x1="176.869" y1="274.224" x2="180.469" y2="274.224"/>
				
					<line fill="none" stroke="#FFFFFF" stroke-width="0.576" stroke-linecap="round" x1="180.469" y1="274.224" x2="182.268" y2="276.023"/>
				
					<line fill="none" stroke="#FFFFFF" stroke-width="0.576" stroke-linecap="round" x1="182.268" y1="276.023" x2="182.268" y2="279.624"/>
				
					<line fill="none" stroke="#FFFFFF" stroke-width="0.576" stroke-linecap="round" x1="182.268" y1="279.624" x2="180.469" y2="281.423"/>
				
					<line fill="none" stroke="#FFFFFF" stroke-width="0.576" stroke-linecap="round" x1="176.869" y1="274.224" x2="175.068" y2="276.023"/>
				
					<line fill="none" stroke="#FFFFFF" stroke-width="0.576" stroke-linecap="round" x1="175.068" y1="279.624" x2="176.869" y2="281.423"/>
				
					<line fill="none" stroke="#FFFFFF" stroke-width="0.576" stroke-linecap="round" x1="180.469" y1="281.423" x2="176.869" y2="281.423"/>
			</g>
			<circle id="_x38__2_" fill="none" stroke="#989898" stroke-miterlimit="10" cx="171.583" cy="277.824" r="2.053"/>
			<circle id="_x38__1_" fill="none" stroke="#989898" stroke-miterlimit="10" cx="178.783" cy="277.824" r="2.053"/>
			<circle id="_x38_" fill="none" stroke="#989898" stroke-miterlimit="10" cx="164.383" cy="277.824" r="2.053"/>
			<rect x="161.236" y="282.68" fill="#676767" width="20.691" height="6.944"/>
			<rect x="170.502" y="289.625" fill="#F4BC17" width="2.16" height="17.008"/>
			<rect x="177.702" y="289.625" fill="#F4BC17" width="2.16" height="17.008"/>
			<rect x="163.302" y="289.625" fill="#F4BC17" width="2.16" height="17.008"/>
			<path fill="#F4BC17" d="M165.834,278.531v-0.707c0-0.805-0.652-1.455-1.455-1.455c-0.805,0-1.455,0.65-1.455,1.455v1.414
				c0,0.031,0.007,0.061,0.009,0.092v3.351h2.906v-4.149H165.834z"/>
			<path fill="#F4BC17" d="M180.227,278.531v-0.707c0-0.804-0.652-1.455-1.455-1.455c-0.805,0-1.455,0.651-1.455,1.455v1.414
				c0,0.031,0.007,0.061,0.009,0.092v3.352h2.906v-4.15H180.227z"/>
			<path fill="#F4BC17" d="M173.033,278.531v-0.707c0-0.805-0.65-1.455-1.455-1.455c-0.803,0-1.455,0.65-1.455,1.455v1.414
				c0,0.031,0.008,0.061,0.01,0.092v3.351h2.906v-4.149H173.033z"/>
		</g>
		<rect x="157.695" y="61.177" fill="#989898" stroke="#FFFFFF" stroke-miterlimit="10" width="26.645" height="202.445"/>
		<rect x="160.668" y="63.4" width="20.699" height="198"/>
		<path fill="#989898" d="M171.018,66.2c1.988,0,3.6-1.612,3.6-3.6h-7.199C167.418,64.587,169.029,66.2,171.018,66.2z"/>
		<path fill="#989898" d="M171.018,257.8c-1.988,0-3.6,1.611-3.6,3.6h7.199C174.617,259.412,173.006,257.8,171.018,257.8z"/>
		<rect x="142.671" y="79.4" stroke="#FFFFFF" stroke-miterlimit="10" width="56.693" height="28.347"/>
		
			<line fill="none" stroke="#FFFFFF" stroke-width="2.8347" stroke-miterlimit="10" x1="142.671" y1="93.574" x2="199.364" y2="93.574"/>
		<rect id="connector0pin_1_" x="163.301" y="301.279" fill="#F2BB19" width="2.16" height="5.354"/>
		<rect id="connector1pin_1_" x="170.502" y="301.279" fill="#F2BB19" width="2.16" height="5.354"/>
		<rect id="connector2pin_1_" x="177.701" y="301.279" fill="#F2BB19" width="2.16" height="5.354"/>
		<rect id="connector0terminal" x="163.301" y="304.472" fill="#F4BC17" width="2.16" height="2.16"/>
		<rect id="connector1terminal" x="170.502" y="304.472" fill="#F4BC17" width="2.16" height="2.16"/>
		<rect id="connector2terminal" x="177.701" y="304.472" fill="#F4BC17" width="2.16" height="2.16"/>
	</g>
</g>
</svg>
