<?xml version="1.0" encoding="utf-8"?>
<!-- Generator: Adobe Illustrator 15.0.0, SVG Export Plug-In . SVG Version: 6.00 Build 0)  -->
<!DOCTYPE svg PUBLIC "-//W3C//DTD SVG 1.1 Basic//EN" "http://www.w3.org/Graphics/SVG/1.1/DTD/svg11-basic.dtd">
<svg version="1.1" baseProfile="basic" id="Layer_1"
	 xmlns="http://www.w3.org/2000/svg" xmlns:xlink="http://www.w3.org/1999/xlink" x="0px" y="0px" width="162.368px"
	 height="65.646px" viewBox="88.979 152.06 162.368 65.646" xml:space="preserve">
<g id="breadboard">
	<g id="icon_1_">
		<rect x="220.789" y="185.4" fill="#989898" width="2.211" height="17.008"/>
		<rect x="88.979" y="183.9" fill="#E2E2E1" width="46.59" height="19.843"/>
		<rect x="88.979" y="197.308" fill="#D3D3D3" width="46.59" height="3.404"/>
		<rect x="88.979" y="187.9" fill="#E9E8E8" width="46.59" height="4.4"/>
		<rect x="88.979" y="200.712" fill="#BABABB" width="46.59" height="3.03"/>
		
			<rect x="135.75" y="170.792" fill="#E6E6E5" stroke="#231F20" stroke-width="0.2835" stroke-miterlimit="10" width="85.039" height="46.771"/>
		<path fill="none" stroke="#231F20" stroke-miterlimit="10" d="M134.824,204.511c0,0-0.584,14.531-2.084-9.614
			s-1.666-10.895-2.083-11.062"/>
		<path fill="none" stroke="#231F20" stroke-miterlimit="10" d="M129.151,204.511c0,0-0.583,14.531-2.083-9.614
			s-1.666-10.895-2.084-11.062"/>
		<path fill="none" stroke="#231F20" stroke-miterlimit="10" d="M123.479,204.511c0,0-0.583,14.531-2.083-9.614
			s-1.666-10.895-2.083-11.062"/>
		<path fill="none" stroke="#231F20" stroke-miterlimit="10" d="M117.807,204.511c0,0-0.584,14.531-2.084-9.614
			s-1.666-10.895-2.082-11.062"/>
		<rect x="111.322" y="177.726" fill="#231F20" width="2.084" height="33.75"/>
		<circle fill="#231F20" cx="147.372" cy="182.131" r="3.401"/>
		<circle fill="#231F20" cx="209.167" cy="182.131" r="3.401"/>
		<circle fill="#231F20" cx="147.372" cy="206.225" r="3.401"/>
		<circle id="path" fill="#231F20" cx="209.167" cy="206.225" r="3.401"/>
		<path fill="#F4BC17" d="M202.02,209.875c0,1.594-1.17,2.887-2.614,2.887h-42.271c-1.444,0-2.614-1.293-2.614-2.887v-31.393
			c0-1.594,1.17-2.887,2.614-2.887h42.271c1.444,0,2.614,1.293,2.614,2.887V209.875z"/>
		<path stroke="#000000" stroke-width="0.5" stroke-linecap="round" stroke-linejoin="round" d="M183.945,198.722
			c-0.082-0.465-0.316-0.839-0.523-1.194c-1.678-2.893-3.365-5.755-5.067-8.655c-1.71-2.916-3.341-5.729-5.062-8.662
			c-0.413-0.707-0.848-1.433-1.27-2.158c-0.209-0.358-0.403-0.718-0.705-1.017c-0.281-0.279-0.7-0.546-1.217-0.508
			c-0.479,0.038-0.86,0.314-1.128,0.605c-0.282,0.306-0.468,0.698-0.673,1.045c-1.277,2.155-2.543,4.339-3.799,6.49
			c-2.52,4.315-5.081,8.683-7.594,12.987c-0.218,0.371-0.428,0.738-0.469,1.238c-0.092,1.102,0.773,1.615,1.777,1.651
			c0.512,0.019,0.92,0.005,1.377,0.008c2.164,0.009,4.5-0.025,6.695-0.008c1.012,0.008,1.849-0.011,2.738,0
			c0.923,0.009,1.717,0.018,2.646,0.008c1.373-0.016,2.725-0.019,3.979,0c0.814,0.011,1.754-0.003,2.626,0
			c0.875,0,1.795,0.006,2.701,0c0.215-0.003,0.508-0.004,0.695,0c0.214,0.001,0.412,0.005,0.688-0.023
			C183.316,200.435,184.144,199.863,183.945,198.722z M182.674,199.305c-0.33,0.181-0.992,0.132-1.514,0.128
			c-0.572-0.004-1.08-0.013-1.633,0c-1.045,0.02-2.12-0.017-3.162,0c-0.545,0.009-1.087,0.004-1.612,0
			c-1.55-0.013-3.124-0.009-4.758,0.009c-1.005,0.007-2.024-0.009-3.116-0.009c-2.049,0-4.158,0.028-6.257,0
			c-0.48-0.008-0.991,0-1.513,0c-0.463-0.001-1.139,0.061-1.445-0.173c-0.068-0.052-0.102-0.112-0.105-0.208
			c-0.009-0.275,0.162-0.566,0.287-0.777c0.91-1.531,1.85-3.181,2.746-4.689c0.526-0.886,1.047-1.785,1.566-2.688
			c0.517-0.901,1.062-1.787,1.574-2.674c1.045-1.815,2.084-3.555,3.131-5.369c0.77-1.334,1.573-2.666,2.353-4.026
			c0.121-0.21,0.261-0.439,0.401-0.664c0.12-0.192,0.318-0.488,0.552-0.521c0.116-0.018,0.273,0.101,0.356,0.178
			c0.1,0.094,0.172,0.202,0.233,0.298c0.287,0.443,0.528,0.896,0.787,1.345c0.129,0.226,0.259,0.449,0.394,0.673
			c0.549,0.904,1.049,1.805,1.574,2.688c1.035,1.75,2.104,3.612,3.146,5.378c1.998,3.383,3.908,6.692,5.9,10.083
			C182.708,198.534,183.037,199.106,182.674,199.305z"/>
		<path stroke="#000000" stroke-width="0.5" stroke-linecap="round" stroke-linejoin="round" d="M176.906,192.396
			c-0.17-0.156-0.348-0.343-0.522-0.516c-0.048-0.048-0.136-0.151-0.188-0.164c-0.051-0.012-0.111,0.009-0.152,0
			c-1.139-1.921-2.256-3.835-3.381-5.773c-0.058-0.098-0.207-0.285-0.227-0.388c-0.029-0.147,0-0.338,0-0.499c0-0.182,0-0.35,0-0.51
			c-0.338,0-0.676,0-1.014,0c0,1.396,0,2.793,0,4.19c0.338,0,0.676,0,1.014,0c0-0.245,0-0.488,0-0.732
			c0.806,1.357,1.599,2.728,2.397,4.092c-0.052,0.121-0.261,0.191-0.287,0.322c-0.024,0.112,0,0.25,0,0.372c0,0.123,0,0.245,0,0.374
			c-0.631,0.434-1.29,0.838-1.922,1.271c-0.057-0.045-0.116-0.115-0.188-0.186c-0.051-0.051-0.144-0.166-0.205-0.182
			c-0.129-0.028-0.326,0-0.506,0c-1.02,0-2.034,0-3.041,0c-0.181,0-0.381-0.028-0.508,0c-0.004,0.002-0.012-0.001-0.014,0
			c-0.157,0.09-0.27,0.323-0.387,0.359c-0.552-0.365-1.119-0.736-1.68-1.105c-0.066-0.045-0.217-0.112-0.234-0.164
			c-0.032-0.099,0-0.256,0-0.373c0-0.121,0.029-0.273,0-0.382c-0.014-0.051-0.107-0.121-0.145-0.156
			c-0.052-0.052-0.109-0.086-0.143-0.157c0.805-1.353,1.598-2.754,2.397-4.076c0,0.24,0,0.482,0,0.724c0.339,0,0.676,0,1.014,0
			c0-1.397,0-2.794,0-4.19c-0.338,0-0.675,0-1.014,0c0,0.136,0,0.332,0,0.51c0,0.164,0.026,0.347,0,0.492
			c-0.009,0.05-0.062,0.13-0.106,0.201c-1.172,1.979-2.33,3.996-3.494,5.967c-0.043,0.009-0.106-0.012-0.159,0
			c-0.053,0.013-0.141,0.116-0.188,0.164c-0.174,0.173-0.353,0.359-0.521,0.516c0,0.325,0,0.646,0,0.971
			c0.171,0.157,0.345,0.341,0.521,0.515c0.052,0.052,0.134,0.152,0.188,0.166c0.104,0.024,0.245,0,0.364,0c0.122,0,0.242,0,0.369,0
			c0.778,0.507,1.564,1.01,2.33,1.529c0.033,0.168-0.044,0.417,0,0.575c0.018,0.062,0.149,0.155,0.221,0.226
			c0.172,0.169,0.273,0.269,0.445,0.44c0.08,0.079,0.158,0.197,0.234,0.217c0.176,0.04,0.398-0.032,0.553,0c0,0.802,0,1.607,0,2.411
			c0.996,0,1.992,0,2.988,0c0-0.804,0-1.609,0-2.411c0.141-0.03,0.352,0.036,0.514,0c0.07-0.018,0.166-0.141,0.234-0.21
			c0.187-0.184,0.28-0.276,0.455-0.447c0.072-0.073,0.197-0.169,0.211-0.239c0.039-0.184-0.028-0.394,0-0.567
			c0.678-0.44,1.354-0.896,2.036-1.339c0.094-0.06,0.224-0.168,0.302-0.185c0.111-0.025,0.25,0,0.363,0c0.119,0,0.254,0.024,0.363,0
			c0.061-0.016,0.129-0.114,0.181-0.166c0.185-0.18,0.362-0.352,0.53-0.515C176.906,193.042,176.906,192.721,176.906,192.396z"/>
		<path fill="#231F20" d="M181.01,182.362h-2.334v1.196c0,0.228-0.113,0.342-0.342,0.342c-0.226,0-0.34-0.114-0.342-0.342
			l0.004-3.076c0-0.228,0.112-0.342,0.338-0.342h3.247c0.798,0,1.196,0.34,1.196,1.019v0.178c0,0.617-0.324,0.956-0.975,1.016
			l0.804,1.206c0.038,0.075,0.058,0.139,0.058,0.191c0,0.101-0.076,0.15-0.229,0.15h-0.171c-0.114,0-0.228-0.057-0.342-0.171
			L181.01,182.362z M182.094,181.336v-0.171c0-0.228-0.229-0.342-0.684-0.342h-2.734v0.854h2.748
			C181.871,181.678,182.094,181.564,182.094,181.336z"/>
		<path fill="#231F20" d="M183.461,181.856c0-0.456,0.229-0.684,0.684-0.684h2.051c0.455,0,0.684,0.226,0.684,0.677v1.367
			c0,0.456-0.229,0.684-0.684,0.684h-2.047c-0.456,0-0.686-0.228-0.688-0.684V181.856z M186.191,182.198v-0.007
			c0-0.224-0.113-0.335-0.342-0.335h-1.367c-0.225,0-0.338,0.111-0.338,0.335v0.69c0,0.224,0.113,0.335,0.338,0.335h1.367
			c0.229,0,0.344-0.114,0.346-0.342L186.191,182.198z"/>
		<path fill="#231F20" d="M187.562,183.9v-0.684h0.004v-2.741c0-0.224,0.113-0.335,0.342-0.335c0.228,0,0.342,0.114,0.342,0.342
			l-0.004,0.684h1.713c0.681,0,1.021,0.342,1.021,1.025v0.69c0,0.679-0.342,1.019-1.025,1.019H187.562z M188.25,183.216h1.705
			c0.229,0,0.342-0.114,0.342-0.342v-0.684c0-0.228-0.111-0.342-0.335-0.342h-1.712V183.216z"/>
		<path fill="#231F20" d="M191.664,181.856c0-0.456,0.229-0.684,0.684-0.684h2.051c0.455,0,0.684,0.226,0.684,0.677v1.367
			c0,0.456-0.229,0.684-0.684,0.684h-2.047c-0.456,0-0.686-0.228-0.688-0.684V181.856z M194.395,182.198v-0.007
			c0-0.224-0.113-0.335-0.342-0.335h-1.367c-0.225,0-0.338,0.111-0.338,0.335v0.69c0,0.224,0.113,0.335,0.338,0.335h1.367
			c0.229,0,0.344-0.114,0.346-0.342L194.395,182.198z"/>
		<path fill="#231F20" d="M196.449,181.166v-0.69c0-0.224,0.113-0.335,0.342-0.335s0.342,0.112,0.342,0.339v0.687h0.428
			c0.228,0,0.342,0.114,0.342,0.342s-0.114,0.342-0.342,0.342h-0.428v1.025c0,0.228,0.113,0.342,0.342,0.342
			s0.342,0.114,0.342,0.342s-0.113,0.342-0.342,0.342c-0.684,0-1.025-0.342-1.025-1.025v-1.025h-0.342
			c-0.229,0-0.342-0.114-0.342-0.342s0.113-0.342,0.342-0.342H196.449z"/>
		<path fill="#231F20" d="M182.436,188.541h3.076c0.455,0,0.685,0.228,0.688,0.684l-0.004,0.171v0.007
			c0,0.221-0.113,0.333-0.342,0.335c-0.229,0-0.342-0.114-0.342-0.342c0-0.116-0.056-0.174-0.168-0.174l-2.566,0.003
			c-0.229,0-0.342,0.114-0.342,0.342v1.709c0,0.228,0.113,0.342,0.342,0.342h2.563c0.114,0,0.171-0.114,0.171-0.342v-0.342
			c0-0.114-0.057-0.171-0.171-0.171h-0.342c-0.229,0-0.345-0.115-0.345-0.346c0.002-0.225,0.115-0.338,0.342-0.338h0.516
			c0.455,0,0.684,0.228,0.684,0.684v0.852c0,0.455-0.225,0.684-0.674,0.684h-0.006l-3.08,0.003c-0.453,0-0.682-0.228-0.684-0.684
			v-2.393C181.752,188.768,181.98,188.541,182.436,188.541z"/>
		<path fill="#231F20" d="M187.562,191.275c0,0.228,0.113,0.342,0.342,0.342h1.713c0.228,0,0.342,0.114,0.342,0.342
			c-0.003,0.228-0.117,0.342-0.342,0.342h-2.055c-0.453,0-0.682-0.228-0.684-0.684v-1.367c0-0.456,0.229-0.684,0.684-0.684
			l1.709,0.003c0.455,0,0.685,0.229,0.688,0.684v0.339c0,0.456-0.229,0.684-0.684,0.684H187.562z M189.019,190.591
			c0.171,0,0.257-0.057,0.257-0.171s-0.058-0.171-0.172-0.171h-1.199c-0.229,0-0.342,0.114-0.342,0.342H189.019z"/>
		<path fill="#231F20" d="M191.322,191.275c0,0.228,0.113,0.342,0.342,0.342h1.713c0.228,0,0.342,0.114,0.342,0.342
			c-0.003,0.228-0.117,0.342-0.342,0.342h-2.055c-0.453,0-0.682-0.228-0.684-0.684v-1.367c0-0.456,0.229-0.684,0.684-0.684
			l1.709,0.003c0.455,0,0.685,0.229,0.688,0.684v0.339c0,0.456-0.229,0.684-0.684,0.684H191.322z M192.778,190.591
			c0.171,0,0.257-0.057,0.257-0.171s-0.058-0.171-0.172-0.171h-1.199c-0.229,0-0.342,0.114-0.342,0.342H192.778z"/>
		<path fill="#231F20" d="M194.744,188.541c0.225,0,0.338,0.111,0.338,0.335v1.716l2.389-1.025h0.004
			c0.226,0,0.338,0.171,0.338,0.513l-2.051,0.854l2.051,0.854v0.01c0,0.333-0.112,0.501-0.338,0.503l-2.393-1.025l0.004,0.681
			c0,0.229-0.114,0.345-0.342,0.345c-0.229,0-0.342-0.114-0.342-0.342v-3.083C194.402,188.652,194.516,188.541,194.744,188.541z"/>
		<path fill="#231F20" d="M165.165,207.958l0.626-0.055c0.029,0.251,0.098,0.457,0.207,0.617c0.107,0.161,0.275,0.291,0.504,0.39
			c0.228,0.1,0.484,0.149,0.769,0.149c0.253,0,0.476-0.038,0.67-0.113s0.338-0.179,0.433-0.31c0.094-0.131,0.142-0.273,0.142-0.429
			c0-0.157-0.046-0.295-0.137-0.412s-0.241-0.216-0.451-0.295c-0.134-0.053-0.432-0.135-0.892-0.245
			c-0.461-0.11-0.783-0.215-0.968-0.312c-0.239-0.125-0.417-0.281-0.534-0.467c-0.118-0.186-0.177-0.394-0.177-0.624
			c0-0.252,0.071-0.489,0.216-0.709c0.143-0.22,0.353-0.387,0.629-0.5c0.275-0.114,0.582-0.172,0.919-0.172
			c0.372,0,0.698,0.061,0.983,0.18c0.283,0.12,0.501,0.296,0.654,0.528c0.152,0.232,0.234,0.495,0.246,0.79l-0.637,0.047
			c-0.033-0.316-0.149-0.556-0.346-0.717c-0.197-0.162-0.488-0.243-0.874-0.243c-0.401,0-0.693,0.073-0.876,0.221
			c-0.184,0.146-0.275,0.324-0.275,0.531c0,0.18,0.064,0.328,0.194,0.444c0.128,0.116,0.461,0.235,0.999,0.357
			c0.539,0.122,0.909,0.229,1.109,0.319c0.292,0.135,0.508,0.305,0.646,0.511s0.209,0.444,0.209,0.713
			c0,0.267-0.076,0.518-0.229,0.754c-0.153,0.235-0.372,0.419-0.657,0.55c-0.287,0.131-0.608,0.196-0.967,0.196
			c-0.453,0-0.833-0.065-1.139-0.197c-0.307-0.133-0.547-0.331-0.723-0.597C165.266,208.593,165.174,208.293,165.165,207.958z"/>
		<path fill="#231F20" d="M169.857,207.127c0-0.832,0.224-1.482,0.67-1.953c0.447-0.471,1.023-0.706,1.73-0.706
			c0.462,0,0.879,0.11,1.25,0.331c0.372,0.222,0.654,0.529,0.85,0.925s0.293,0.844,0.293,1.345c0,0.509-0.104,0.963-0.309,1.364
			s-0.495,0.705-0.871,0.911s-0.781,0.309-1.217,0.309c-0.472,0-0.893-0.113-1.265-0.342c-0.372-0.228-0.653-0.538-0.845-0.933
			S169.857,207.567,169.857,207.127z M170.541,207.137c0,0.604,0.162,1.08,0.488,1.428c0.324,0.348,0.731,0.521,1.221,0.521
			c0.5,0,0.91-0.176,1.232-0.527c0.322-0.351,0.484-0.849,0.484-1.493c0-0.408-0.069-0.764-0.207-1.068
			c-0.139-0.304-0.34-0.54-0.605-0.707c-0.266-0.168-0.562-0.251-0.894-0.251c-0.47,0-0.874,0.161-1.212,0.483
			S170.541,206.383,170.541,207.137z"/>
		<path fill="#231F20" d="M175.477,209.568v-5.011h0.664v4.42h2.467v0.591H175.477z"/>
		<path fill="#231F20" d="M179.08,208.064v-0.618h1.89v0.618H179.08z"/>
		<path fill="#231F20" d="M181.503,207.958l0.626-0.055c0.029,0.251,0.098,0.457,0.207,0.617c0.107,0.161,0.275,0.291,0.504,0.39
			c0.228,0.1,0.484,0.149,0.769,0.149c0.253,0,0.476-0.038,0.67-0.113s0.338-0.179,0.433-0.31c0.094-0.131,0.142-0.273,0.142-0.429
			c0-0.157-0.046-0.295-0.137-0.412s-0.241-0.216-0.451-0.295c-0.134-0.053-0.432-0.135-0.892-0.245
			c-0.461-0.11-0.783-0.215-0.968-0.312c-0.239-0.125-0.417-0.281-0.534-0.467c-0.118-0.186-0.177-0.394-0.177-0.624
			c0-0.252,0.071-0.489,0.216-0.709c0.143-0.22,0.353-0.387,0.629-0.5c0.275-0.114,0.582-0.172,0.919-0.172
			c0.372,0,0.698,0.061,0.983,0.18c0.283,0.12,0.501,0.296,0.654,0.528c0.152,0.232,0.234,0.495,0.246,0.79l-0.637,0.047
			c-0.033-0.316-0.149-0.556-0.346-0.717c-0.197-0.162-0.488-0.243-0.874-0.243c-0.401,0-0.693,0.073-0.876,0.221
			c-0.184,0.146-0.275,0.324-0.275,0.531c0,0.18,0.064,0.328,0.194,0.444c0.128,0.116,0.461,0.235,0.999,0.357
			c0.539,0.122,0.909,0.229,1.109,0.319c0.292,0.135,0.508,0.305,0.646,0.511s0.209,0.444,0.209,0.713
			c0,0.267-0.076,0.518-0.229,0.754c-0.153,0.235-0.372,0.419-0.657,0.55c-0.287,0.131-0.608,0.196-0.967,0.196
			c-0.453,0-0.833-0.065-1.139-0.197c-0.307-0.133-0.547-0.331-0.723-0.597C181.604,208.593,181.512,208.293,181.503,207.958z"/>
		<path fill="#231F20" d="M186.377,209.568v-5.011h0.998l1.186,3.548c0.109,0.33,0.189,0.577,0.24,0.741
			c0.057-0.182,0.146-0.449,0.266-0.803l1.2-3.486h0.892v5.011h-0.639v-4.194l-1.456,4.194h-0.599l-1.449-4.266v4.266H186.377z"/>
		<rect x="223" y="183.9" fill="#E2E2E1" width="28.347" height="19.843"/>
		<rect x="223" y="197.308" fill="#D3D3D3" width="28.347" height="3.404"/>
		<rect x="223" y="187.9" fill="#E9E8E8" width="28.347" height="4.4"/>
		<rect x="223" y="200.712" fill="#BABABB" width="28.347" height="3.03"/>
		<rect id="leg_1_" x="214.601" y="152.06" fill="#285DAA" width="2.298" height="18.732"/>
		<rect id="leg" x="207.406" y="152.06" fill="#285DAA" width="2.298" height="18.732"/>
		<rect id="connector0terminal" x="206.758" y="152.06" fill="none" width="3.594" height="3.965"/>
		<rect id="connector1terminal" x="213.953" y="152.06" fill="none" width="3.594" height="3.965"/>
	</g>
</g>
</svg>
