<?xml version="1.0" encoding="utf-8"?>
<!-- Generator: Adobe Illustrator 15.0.0, SVG Export Plug-In . SVG Version: 6.00 Build 0)  -->
<!DOCTYPE svg PUBLIC "-//W3C//DTD SVG 1.1 Basic//EN" "http://www.w3.org/Graphics/SVG/1.1/DTD/svg11-basic.dtd">
<svg version="1.1" baseProfile="basic" id="Layer_1"
	 xmlns="http://www.w3.org/2000/svg" xmlns:xlink="http://www.w3.org/1999/xlink" x="0px" y="0px" width="70.866px"
	 height="99.213px" viewBox="135.396 177.9 70.866 99.213" xml:space="preserve">
<g id="breadboard">
	<g id="icon_1_">
		<path fill="#231F20" d="M135.396,177.9v99.213h70.866V177.9H135.396z M142.482,274.278c-2.348,0-4.252-1.903-4.252-4.252
			s1.904-4.252,4.252-4.252c2.349,0,4.252,1.903,4.252,4.252S144.831,274.278,142.482,274.278z M142.482,189.238
			c-2.348,0-4.252-1.903-4.252-4.252c0-2.348,1.904-4.252,4.252-4.252c2.349,0,4.252,1.904,4.252,4.252
			C146.734,187.334,144.831,189.238,142.482,189.238z M199.176,180.734c2.348,0,4.252,1.904,4.252,4.252
			c0,2.349-1.904,4.252-4.252,4.252s-4.252-1.903-4.252-4.252C194.924,182.638,196.828,180.734,199.176,180.734z M199.177,274.278
			c-2.35,0-4.252-1.903-4.252-4.252s1.902-4.252,4.252-4.252c2.348,0,4.252,1.903,4.252,4.252S201.524,274.278,199.177,274.278z"/>
		<g>
			<g>
				<path fill="#FFFFFF" d="M194.082,263.835v-0.687c0.002-0.765,0-0.695,0.018-0.768c0.059-0.232,0.256-0.403,0.496-0.431
					c0.027-0.004,0.057-0.004,0.176-0.003c0.157,0.001,0.162,0.001,0.225,0.017c0.204,0.052,0.365,0.213,0.417,0.417
					c0.015,0.062,0.017,0.072,0.018,0.226l0.001,0.139l0.667-0.39c0.367-0.215,0.673-0.393,0.681-0.395
					c0.074-0.028,0.154-0.01,0.209,0.049c0.072,0.077,0.066,0.198-0.012,0.271c-0.01,0.008-0.028,0.021-0.043,0.03l-0.765,0.447
					l-0.737,0.431v0.132l-0.001,0.131l0.726,0.001c0.689,0.001,0.727,0.001,0.74,0.005c0.022,0.007,0.057,0.024,0.072,0.038
					c0.021,0.017,0.038,0.038,0.051,0.063c0.023,0.049,0.026,0.098,0.008,0.148c-0.01,0.028-0.021,0.045-0.045,0.069
					c-0.025,0.024-0.041,0.036-0.067,0.045c-0.038,0.014,0.065,0.014-1.442,0.014H194.082z M194.466,262.97l-0.001,0.481h0.291
					h0.292l-0.001-0.481c0-0.541,0.002-0.49-0.018-0.531c-0.02-0.039-0.051-0.071-0.091-0.09c-0.038-0.019-0.035-0.019-0.183-0.019
					c-0.146,0-0.143,0-0.182,0.019c-0.049,0.023-0.087,0.068-0.104,0.124C194.467,262.487,194.467,262.514,194.466,262.97z"/>
				<path fill="#FFFFFF" d="M194.888,260.022c0-0.263,0.001-0.288,0.005-0.312c0.006-0.035,0.018-0.084,0.029-0.112
					c0.019-0.052,0.058-0.121,0.088-0.158c0.049-0.06,0.14-0.164,0.158-0.184c0.092-0.094,0.209-0.15,0.344-0.166
					c0.026-0.003,0.096-0.004,0.453-0.004c0.406,0,0.424,0,0.459,0.005c0.129,0.017,0.245,0.074,0.334,0.165
					c0.02,0.02,0.112,0.128,0.158,0.184c0.049,0.059,0.092,0.15,0.11,0.232c0.013,0.059,0.013,0.067,0.013,0.358
					c0,0.29,0,0.297-0.013,0.358c-0.017,0.077-0.058,0.165-0.105,0.227c-0.03,0.038-0.155,0.182-0.175,0.201
					c-0.092,0.087-0.203,0.14-0.332,0.154c-0.025,0.003-0.096,0.003-0.453,0.003c-0.404,0-0.423,0-0.459-0.004
					c-0.123-0.017-0.232-0.068-0.321-0.153c-0.021-0.021-0.151-0.169-0.177-0.202c-0.061-0.079-0.1-0.178-0.113-0.281
					C194.888,260.314,194.887,260.249,194.888,260.022z M195.271,260.025c-0.001,0.275-0.001,0.278,0.009,0.306
					c0.007,0.018,0.02,0.039,0.03,0.054l0.073,0.086c0.074,0.087,0.086,0.096,0.133,0.112l0.022,0.008h0.423
					c0.474,0,0.433,0.002,0.473-0.018c0.034-0.017,0.043-0.024,0.12-0.114c0.063-0.074,0.073-0.088,0.083-0.106
					c0.02-0.041,0.019-0.019,0.019-0.321c0-0.298,0.001-0.278-0.016-0.314c-0.011-0.023-0.018-0.032-0.091-0.118
					c-0.08-0.095-0.09-0.103-0.138-0.119l-0.022-0.009h-0.424c-0.396,0-0.423,0.001-0.438,0.005
					c-0.021,0.006-0.053,0.021-0.069,0.033c-0.013,0.01-0.141,0.157-0.157,0.181c-0.01,0.015-0.02,0.037-0.025,0.057
					C195.271,259.758,195.271,259.777,195.271,260.025z"/>
				<path fill="#FFFFFF" d="M194.088,257.875c0.002-0.008,0.009-0.024,0.015-0.036c0.019-0.039,0.048-0.067,0.087-0.087
					c0.043-0.021-0.006-0.019,0.502-0.021l0.452-0.001l-0.065-0.076c-0.068-0.08-0.087-0.104-0.107-0.137
					c-0.031-0.05-0.059-0.12-0.071-0.178c-0.013-0.057-0.013-0.075-0.013-0.263c0-0.186,0-0.202,0.012-0.26
					c0.016-0.074,0.057-0.165,0.105-0.229c0.025-0.032,0.156-0.182,0.178-0.203c0.071-0.069,0.158-0.117,0.253-0.142
					c0.069-0.018,0.033-0.016,0.517-0.017c0.422-0.001,0.436-0.001,0.473,0.004c0.122,0.016,0.232,0.067,0.32,0.152
					c0.021,0.02,0.117,0.129,0.168,0.191c0.066,0.081,0.111,0.188,0.124,0.296c0.005,0.045,0.005,0.366,0,0.41
					c-0.008,0.068-0.026,0.132-0.056,0.19c-0.029,0.06-0.047,0.083-0.153,0.207l-0.044,0.052l0.048,0.002
					c0.056,0.001,0.067,0.004,0.102,0.02c0.039,0.02,0.067,0.048,0.087,0.087c0.023,0.049,0.026,0.098,0.008,0.148
					c-0.01,0.028-0.021,0.045-0.045,0.069c-0.033,0.032-0.059,0.047-0.102,0.055c-0.026,0.005-2.613,0.005-2.641,0
					c-0.042-0.008-0.068-0.022-0.1-0.055c-0.032-0.031-0.047-0.057-0.055-0.099C194.082,257.939,194.083,257.896,194.088,257.875z
					 M195.271,257.071c-0.001,0.093,0.001,0.174,0.001,0.181c0.006,0.028,0.016,0.053,0.031,0.075
					c0.004,0.007,0.074,0.09,0.156,0.185c0.105,0.123,0.15,0.175,0.161,0.183c0.019,0.013,0.041,0.024,0.063,0.031l0.018,0.006
					h0.261c0.241,0,0.261,0,0.276-0.004c0.02-0.006,0.051-0.021,0.068-0.033c0.01-0.008,0.057-0.062,0.162-0.185
					c0.082-0.095,0.152-0.178,0.156-0.184c0.011-0.018,0.02-0.034,0.025-0.055c0.005-0.02,0.005-0.02,0.005-0.193v-0.175
					l-0.005-0.02c-0.012-0.036-0.021-0.051-0.094-0.137c-0.086-0.101-0.098-0.11-0.146-0.127l-0.022-0.009h-0.424
					c-0.402,0-0.423,0.001-0.438,0.005c-0.021,0.006-0.047,0.019-0.064,0.032c-0.011,0.008-0.035,0.035-0.08,0.086
					c-0.035,0.041-0.068,0.081-0.074,0.088c-0.013,0.016-0.027,0.046-0.033,0.066C195.271,256.901,195.271,256.918,195.271,257.071z
					"/>
				<path fill="#FFFFFF" d="M194.888,254.302c0-0.263,0.001-0.288,0.005-0.312c0.006-0.035,0.018-0.084,0.029-0.112
					c0.019-0.052,0.058-0.121,0.088-0.158c0.049-0.06,0.14-0.164,0.158-0.184c0.092-0.094,0.209-0.15,0.344-0.166
					c0.026-0.003,0.096-0.004,0.453-0.004c0.406,0,0.424,0,0.459,0.005c0.129,0.017,0.245,0.074,0.334,0.165
					c0.02,0.02,0.112,0.128,0.158,0.184c0.049,0.059,0.092,0.15,0.11,0.232c0.013,0.059,0.013,0.067,0.013,0.358
					c0,0.29,0,0.297-0.013,0.358c-0.017,0.077-0.058,0.164-0.105,0.227c-0.03,0.038-0.155,0.182-0.175,0.201
					c-0.092,0.087-0.203,0.139-0.332,0.154c-0.025,0.003-0.096,0.004-0.453,0.004c-0.404,0-0.423-0.001-0.459-0.005
					c-0.123-0.017-0.232-0.068-0.321-0.153c-0.021-0.021-0.151-0.169-0.177-0.202c-0.061-0.079-0.1-0.178-0.113-0.281
					C194.888,254.594,194.887,254.529,194.888,254.302z M195.271,254.305c-0.001,0.275-0.001,0.278,0.009,0.306
					c0.007,0.018,0.02,0.039,0.03,0.054l0.073,0.086c0.074,0.087,0.086,0.096,0.133,0.112l0.022,0.008h0.423
					c0.474,0,0.433,0.002,0.473-0.018c0.034-0.017,0.043-0.025,0.12-0.114c0.063-0.074,0.073-0.088,0.083-0.106
					c0.02-0.041,0.019-0.019,0.019-0.321c0-0.298,0.001-0.278-0.016-0.314c-0.011-0.023-0.018-0.032-0.091-0.118
					c-0.08-0.095-0.09-0.104-0.138-0.119l-0.022-0.009h-0.424c-0.396,0-0.423,0.001-0.438,0.005
					c-0.021,0.006-0.053,0.021-0.069,0.033c-0.013,0.01-0.141,0.157-0.157,0.181c-0.01,0.015-0.02,0.037-0.025,0.057
					C195.271,254.039,195.271,254.057,195.271,254.305z"/>
				<path fill="#FFFFFF" d="M194.249,251.78c0.003-0.008,0.009-0.023,0.015-0.036c0.02-0.039,0.048-0.067,0.087-0.086
					c0.042-0.021,0.021-0.02,0.294-0.021l0.242-0.001v-0.391l0.001-0.391l0.005-0.018c0.018-0.053,0.054-0.097,0.101-0.12
					c0.03-0.016,0.046-0.019,0.085-0.019s0.055,0.003,0.084,0.019c0.047,0.023,0.084,0.067,0.101,0.12l0.005,0.018l0.002,0.392
					v0.391l0.618-0.001l0.618-0.001l0.023-0.008c0.035-0.013,0.064-0.032,0.085-0.058c0.017-0.021,0.024-0.034,0.033-0.061
					l0.008-0.022v-0.221c0-0.248,0.001-0.232-0.019-0.273c-0.025-0.052-0.071-0.087-0.129-0.101
					c-0.053-0.012-0.078-0.023-0.108-0.049c-0.045-0.039-0.071-0.106-0.063-0.164c0.015-0.108,0.111-0.185,0.217-0.168
					c0.139,0.021,0.271,0.097,0.361,0.208c0.055,0.068,0.098,0.163,0.114,0.247c0.011,0.059,0.012,0.069,0.011,0.315l-0.001,0.231
					l-0.007,0.033c-0.023,0.125-0.077,0.228-0.164,0.312c-0.091,0.087-0.2,0.14-0.326,0.156c-0.035,0.005-0.055,0.005-0.654,0.005
					h-0.617v0.108c-0.002,0.104-0.002,0.11-0.007,0.127c-0.026,0.085-0.099,0.141-0.185,0.141c-0.087,0-0.159-0.055-0.186-0.141
					c-0.004-0.017-0.005-0.022-0.006-0.127v-0.108l-0.243-0.001c-0.272-0.001-0.251,0.001-0.293-0.02
					c-0.054-0.026-0.091-0.074-0.104-0.134C194.242,251.845,194.244,251.8,194.249,251.78z"/>
				<path fill="#FFFFFF" d="M194.082,248.134c0-0.258,0-0.313,0.004-0.328c0.018-0.092,0.096-0.157,0.188-0.157
					c0.076,0,0.148,0.047,0.176,0.116c0.016,0.037,0.014,0.013,0.016,0.358c0.002,0.356,0,0.325,0.021,0.367s0.007,0.03,0.378,0.318
					c0.188,0.146,0.348,0.271,0.358,0.277c0.038,0.026,0.089,0.048,0.142,0.059l0.025,0.006h0.554c0.528,0,0.555,0,0.569-0.004
					c0.055-0.016,0.102-0.054,0.125-0.104c0.021-0.041,0.019-0.001,0.019-0.451s0.002-0.411-0.019-0.452
					c-0.019-0.039-0.051-0.071-0.09-0.09s-0.023-0.018-0.261-0.019l-0.212-0.001v0.194c0,0.21,0,0.213-0.014,0.247
					c-0.009,0.026-0.02,0.042-0.045,0.067s-0.041,0.035-0.07,0.046c-0.043,0.015-0.083,0.015-0.125,0
					c-0.03-0.011-0.046-0.021-0.072-0.046c-0.023-0.025-0.035-0.041-0.045-0.067c-0.013-0.036-0.012-0.021-0.012-0.438v-0.387h0.402
					c0.387,0,0.405,0,0.44,0.005c0.067,0.009,0.122,0.025,0.185,0.056c0.173,0.085,0.291,0.251,0.316,0.444
					c0.004,0.036,0.004,0.054,0.004,0.438c0,0.437,0,0.431-0.013,0.492c-0.014,0.061-0.04,0.127-0.072,0.178
					c-0.094,0.151-0.251,0.251-0.427,0.271c-0.047,0.006-1.109,0.005-1.164,0c-0.127-0.013-0.25-0.057-0.352-0.126
					c-0.016-0.011-0.186-0.141-0.377-0.29c-0.242-0.188-0.357-0.278-0.375-0.296c-0.096-0.092-0.155-0.21-0.173-0.342
					C194.083,248.448,194.082,248.419,194.082,248.134z"/>
				<path fill="#FFFFFF" d="M194.887,245.734c0-0.295,0-0.303,0.014-0.362c0.019-0.085,0.06-0.171,0.113-0.236
					c0.05-0.061,0.146-0.172,0.167-0.191c0.078-0.074,0.173-0.124,0.278-0.146c0.062-0.012,0.07-0.012,0.354-0.011
					c0.297,0.001,0.272-0.001,0.314,0.02c0.025,0.013,0.047,0.029,0.063,0.05c0.014,0.017,0.031,0.051,0.038,0.073
					c0.005,0.014,0.005,0.048,0.005,0.688l0.001,0.674l0.075-0.001c0.084-0.001,0.089-0.002,0.123-0.019s0.043-0.025,0.12-0.114
					c0.076-0.09,0.085-0.103,0.097-0.139l0.005-0.019l0.001-0.527c0.002-0.58,0-0.531,0.016-0.569
					c0.028-0.069,0.1-0.116,0.176-0.116c0.093,0,0.171,0.065,0.188,0.157c0.005,0.026,0.005,1.039,0,1.084
					c-0.013,0.104-0.054,0.207-0.115,0.286c-0.03,0.038-0.155,0.182-0.175,0.201c-0.092,0.087-0.203,0.139-0.332,0.154
					c-0.025,0.003-0.096,0.004-0.453,0.004c-0.404,0-0.423-0.001-0.459-0.005c-0.123-0.017-0.233-0.068-0.321-0.153
					c-0.021-0.02-0.118-0.131-0.167-0.19c-0.066-0.082-0.11-0.186-0.123-0.295C194.888,246.013,194.887,245.939,194.887,245.734z
					 M195.271,245.459l-0.001,0.264c0,0.276,0,0.28,0.01,0.309c0.011,0.027,0.022,0.044,0.09,0.123
					c0.037,0.044,0.076,0.086,0.084,0.094c0.02,0.016,0.035,0.025,0.062,0.034l0.022,0.008l0.157,0.001l0.156,0.001v-0.562v-0.562
					l-0.155,0.001c-0.175,0.001-0.167,0-0.206,0.02c-0.013,0.006-0.029,0.017-0.037,0.023s-0.046,0.049-0.084,0.093
					c-0.072,0.086-0.082,0.101-0.093,0.136L195.271,245.459z"/>
				<path fill="#FFFFFF" d="M194.887,242.875c0-0.295,0-0.303,0.014-0.362c0.019-0.085,0.06-0.171,0.113-0.236
					c0.05-0.061,0.146-0.172,0.167-0.191c0.078-0.074,0.173-0.124,0.278-0.146c0.062-0.012,0.07-0.012,0.354-0.011
					c0.297,0.001,0.272-0.001,0.314,0.02c0.025,0.013,0.047,0.029,0.063,0.05c0.014,0.017,0.031,0.051,0.038,0.073
					c0.005,0.014,0.005,0.048,0.005,0.688l0.001,0.674l0.075-0.001c0.084-0.001,0.089-0.002,0.123-0.019s0.043-0.025,0.12-0.114
					c0.076-0.09,0.085-0.103,0.097-0.139l0.005-0.019l0.001-0.527c0.002-0.58,0-0.531,0.016-0.569
					c0.028-0.069,0.1-0.116,0.176-0.116c0.093,0,0.171,0.065,0.188,0.157c0.005,0.026,0.005,1.039,0,1.084
					c-0.013,0.104-0.054,0.207-0.115,0.286c-0.03,0.038-0.155,0.182-0.175,0.201c-0.092,0.087-0.203,0.139-0.332,0.154
					c-0.025,0.003-0.096,0.004-0.453,0.004c-0.404,0-0.423-0.001-0.459-0.005c-0.123-0.017-0.233-0.068-0.321-0.153
					c-0.021-0.02-0.118-0.131-0.167-0.19c-0.066-0.082-0.11-0.186-0.123-0.295C194.888,243.154,194.887,243.08,194.887,242.875z
					 M195.271,242.6l-0.001,0.264c0,0.276,0,0.28,0.01,0.309c0.011,0.027,0.022,0.044,0.09,0.123
					c0.037,0.044,0.076,0.086,0.084,0.094c0.02,0.016,0.035,0.025,0.062,0.034l0.022,0.008l0.157,0.001l0.156,0.001v-0.562v-0.562
					l-0.155,0.001c-0.175,0.001-0.167,0-0.206,0.02c-0.013,0.006-0.029,0.017-0.037,0.023s-0.046,0.049-0.084,0.093
					c-0.072,0.086-0.082,0.101-0.093,0.136L195.271,242.6z"/>
				<path fill="#FFFFFF" d="M194.088,240.715c0.006-0.021,0.023-0.056,0.037-0.072c0.023-0.029,0.062-0.054,0.101-0.065
					c0.014-0.004,0.053-0.004,0.788-0.006l0.773-0.001l-0.427-0.498c-0.234-0.274-0.431-0.504-0.435-0.511
					c-0.014-0.017-0.025-0.043-0.033-0.065c-0.006-0.024-0.007-0.071,0-0.095c0.006-0.022,0.023-0.057,0.037-0.073
					c0.068-0.085,0.195-0.096,0.275-0.023c0.006,0.006,0.162,0.186,0.344,0.399c0.184,0.214,0.334,0.389,0.334,0.389
					c0.001-0.001,0.184-0.213,0.405-0.473s0.41-0.479,0.419-0.489c0.038-0.041,0.086-0.062,0.141-0.062
					c0.02,0,0.032,0.001,0.047,0.005c0.135,0.036,0.188,0.191,0.104,0.302c-0.01,0.013-0.843,0.989-0.859,1.007l-0.006,0.006
					l0.078,0.092l0.078,0.091l0.296,0.001c0.332,0.002,0.304,0,0.347,0.021c0.039,0.02,0.067,0.048,0.087,0.087
					c0.023,0.049,0.026,0.098,0.008,0.148c-0.01,0.028-0.021,0.045-0.045,0.069c-0.033,0.032-0.059,0.047-0.102,0.055
					c-0.026,0.005-2.613,0.005-2.641,0c-0.042-0.008-0.068-0.022-0.1-0.055c-0.032-0.031-0.047-0.057-0.055-0.099
					C194.082,240.779,194.083,240.736,194.088,240.715z"/>
				<path fill="#FFFFFF" d="M198.889,263.595c0.005-0.021,0.022-0.056,0.037-0.072c0.023-0.029,0.061-0.054,0.1-0.065
					c0.014-0.004,0.067-0.004,1.223-0.005l1.209-0.001v-0.664c0-0.562,0-0.667,0.003-0.682c0.018-0.092,0.096-0.157,0.188-0.157
					c0.092,0,0.17,0.065,0.188,0.157c0.003,0.015,0.004,0.146,0.004,0.873v0.856h-1.391c-1.508,0-1.405,0-1.442-0.014
					c-0.026-0.009-0.042-0.021-0.067-0.045c-0.031-0.031-0.045-0.057-0.055-0.099C198.881,263.659,198.883,263.616,198.889,263.595z
					"/>
				<path fill="#FFFFFF" d="M198.882,260.974v-0.855c0-0.727,0.001-0.858,0.003-0.873c0.018-0.092,0.096-0.157,0.188-0.157
					s0.171,0.065,0.188,0.157c0.002,0.015,0.003,0.12,0.003,0.682v0.664h0.452h0.451v-0.296c0.002-0.335,0-0.306,0.021-0.348
					c0.019-0.04,0.048-0.067,0.087-0.087c0.031-0.016,0.047-0.02,0.084-0.02s0.053,0.004,0.084,0.02
					c0.039,0.02,0.068,0.047,0.087,0.087c0.021,0.042,0.019,0.013,0.021,0.348v0.296h0.453h0.453v-0.664
					c0-0.562,0-0.667,0.003-0.682c0.018-0.092,0.096-0.157,0.188-0.157c0.092,0,0.17,0.065,0.188,0.157
					c0.003,0.015,0.004,0.146,0.004,0.873v0.855h-1.479H198.882z"/>
				<path fill="#FFFFFF" d="M198.883,257.566c-0.001-0.322,0-0.381,0.003-0.408c0.021-0.175,0.12-0.334,0.27-0.425
					c0.012-0.008,0.207-0.107,0.434-0.221c0.461-0.232,0.469-0.235,0.563-0.26c0.073-0.018,0.125-0.024,0.209-0.024
					c0.082,0,0.135,0.007,0.207,0.024c0.096,0.024,0.104,0.027,0.564,0.26c0.227,0.113,0.422,0.213,0.434,0.221
					c0.051,0.031,0.105,0.08,0.144,0.126c0.069,0.085,0.11,0.185,0.124,0.293c0.006,0.036,0.006,0.051,0.005,0.422l-0.001,0.384
					l-0.006,0.018c-0.025,0.086-0.098,0.14-0.184,0.14c-0.088,0-0.16-0.055-0.186-0.14c-0.005-0.017-0.005-0.022-0.006-0.127
					l-0.001-0.108h-1.095h-1.096l-0.002,0.108c0,0.104,0,0.11-0.006,0.127c-0.017,0.056-0.055,0.101-0.105,0.124
					c-0.049,0.021-0.108,0.021-0.158,0c-0.057-0.026-0.1-0.081-0.109-0.145C198.883,257.948,198.883,257.774,198.883,257.566z
					 M199.266,257.272l-0.002,0.085h1.098h1.096l-0.001-0.085c-0.001-0.095-0.001-0.098-0.019-0.134
					c-0.013-0.025-0.032-0.051-0.053-0.066c-0.018-0.014-0.064-0.037-0.65-0.332c-0.158-0.08-0.189-0.095-0.219-0.104
					c-0.043-0.015-0.073-0.021-0.118-0.024c-0.065-0.005-0.126,0.003-0.192,0.024c-0.029,0.009-0.06,0.023-0.218,0.104
					c-0.587,0.295-0.634,0.318-0.65,0.332c-0.029,0.022-0.056,0.062-0.066,0.101C199.268,257.184,199.267,257.201,199.266,257.272z"
					/>
				<path fill="#FFFFFF" d="M198.883,251.846c-0.001-0.322,0-0.381,0.003-0.408c0.021-0.175,0.12-0.334,0.27-0.425
					c0.012-0.008,0.207-0.107,0.434-0.221c0.461-0.232,0.469-0.235,0.563-0.26c0.073-0.018,0.125-0.024,0.209-0.024
					c0.082,0,0.135,0.007,0.207,0.024c0.096,0.024,0.104,0.027,0.564,0.26c0.227,0.113,0.422,0.213,0.434,0.221
					c0.051,0.031,0.105,0.08,0.144,0.126c0.069,0.085,0.11,0.185,0.124,0.293c0.006,0.036,0.006,0.051,0.005,0.422l-0.001,0.384
					l-0.006,0.018c-0.025,0.086-0.098,0.141-0.184,0.141c-0.088,0-0.16-0.056-0.186-0.141c-0.005-0.017-0.005-0.022-0.006-0.127
					l-0.001-0.108h-1.095h-1.096l-0.002,0.108c0,0.104,0,0.11-0.006,0.127c-0.017,0.056-0.055,0.101-0.105,0.124
					c-0.049,0.022-0.108,0.021-0.158,0c-0.057-0.026-0.1-0.081-0.109-0.145C198.883,252.228,198.883,252.054,198.883,251.846z
					 M199.266,251.552l-0.002,0.085h1.098h1.096l-0.001-0.085c-0.001-0.095-0.001-0.098-0.019-0.134
					c-0.013-0.025-0.032-0.051-0.053-0.066c-0.018-0.014-0.064-0.037-0.65-0.332c-0.158-0.08-0.189-0.095-0.219-0.104
					c-0.043-0.015-0.073-0.021-0.118-0.024c-0.065-0.005-0.126,0.003-0.192,0.024c-0.029,0.009-0.06,0.023-0.218,0.104
					c-0.587,0.295-0.634,0.318-0.65,0.332c-0.029,0.022-0.056,0.062-0.066,0.101C199.268,251.464,199.267,251.481,199.266,251.552z"
					/>
				<path fill="#FFFFFF" d="M199.713,249.247c0.011-0.018,0.05-0.058,0.068-0.067c0.007-0.005,0.021-0.011,0.029-0.015
					c0.033-0.012,0.043-0.013,0.172-0.013c0.066,0,0.121,0,0.121-0.001s-0.084-0.1-0.188-0.22s-0.192-0.227-0.199-0.236
					c-0.012-0.018-0.018-0.033-0.025-0.06c-0.004-0.013-0.004-0.037-0.004-0.243c0-0.249,0-0.247,0.015-0.308
					c0.055-0.231,0.245-0.402,0.482-0.433c0.047-0.006,0.181-0.007,0.21-0.001c0.092,0.018,0.156,0.095,0.156,0.188
					c0,0.087-0.055,0.159-0.141,0.185c-0.016,0.005-0.025,0.006-0.104,0.007l-0.087,0.002l-0.022,0.008
					c-0.027,0.009-0.039,0.016-0.061,0.033c-0.02,0.015-0.036,0.036-0.049,0.062c-0.018,0.039-0.018,0.031-0.018,0.22v0.169
					l0.269,0.314l0.269,0.314l0.537,0.001c0.605,0.001,0.545-0.001,0.588,0.02c0.039,0.02,0.067,0.048,0.086,0.087
					c0.024,0.049,0.027,0.098,0.01,0.148c-0.011,0.028-0.021,0.045-0.047,0.069c-0.031,0.032-0.059,0.047-0.101,0.055
					c-0.026,0.005-1.81,0.005-1.836,0c-0.042-0.008-0.068-0.022-0.101-0.055c-0.032-0.031-0.047-0.059-0.055-0.1
					C199.682,249.334,199.69,249.286,199.713,249.247z"/>
				<path fill="#FFFFFF" d="M198.722,245.819c0.001-0.136,0-0.132,0.02-0.171c0.019-0.039,0.048-0.067,0.087-0.087
					s0.038-0.02,0.164-0.02c0.127,0,0.125,0,0.166,0.02c0.039,0.02,0.066,0.048,0.086,0.087s0.02,0.036,0.02,0.166
					c0.002,0.125,0.001,0.138-0.011,0.17c-0.01,0.028-0.021,0.045-0.046,0.069c-0.024,0.024-0.041,0.036-0.066,0.045
					c-0.032,0.012-0.045,0.013-0.148,0.013c-0.103,0-0.115-0.001-0.146-0.013c-0.026-0.009-0.043-0.021-0.067-0.045
					c-0.031-0.031-0.046-0.058-0.054-0.099C198.722,245.943,198.721,245.912,198.722,245.819z M199.688,246.006
					c0-0.347-0.002-0.316,0.02-0.358c0.012-0.025,0.029-0.047,0.05-0.064c0.017-0.014,0.05-0.03,0.073-0.037
					c0.014-0.005,0.053-0.005,0.82-0.005l0.806-0.001l0.001-0.203l0.001-0.203l0.005-0.018c0.017-0.053,0.053-0.097,0.1-0.12
					c0.031-0.016,0.046-0.019,0.086-0.019c0.039,0,0.054,0.003,0.084,0.019c0.048,0.023,0.085,0.068,0.1,0.121l0.006,0.02v0.595
					v0.595l-0.006,0.02c-0.023,0.084-0.098,0.141-0.184,0.141s-0.159-0.055-0.186-0.14l-0.005-0.018l-0.001-0.203l-0.001-0.203
					h-0.693h-0.693l-0.001,0.203v0.203l-0.006,0.018c-0.031,0.101-0.13,0.158-0.229,0.135c-0.073-0.018-0.132-0.079-0.144-0.156
					C199.688,246.32,199.688,246.176,199.688,246.006z"/>
				<path fill="#FFFFFF" d="M199.713,243.527c0.011-0.018,0.05-0.058,0.068-0.067c0.007-0.005,0.021-0.011,0.029-0.015
					c0.034-0.012,0.041-0.013,0.201-0.013h0.148l0.64-0.279c0.353-0.154,0.64-0.281,0.64-0.281c0-0.001-0.287-0.127-0.64-0.281
					l-0.64-0.28h-0.148c-0.16,0-0.167,0-0.201-0.013c-0.025-0.01-0.042-0.021-0.066-0.045c-0.025-0.025-0.036-0.042-0.046-0.07
					c-0.015-0.041-0.015-0.086-0.001-0.127c0.011-0.028,0.021-0.045,0.047-0.07c0.024-0.024,0.041-0.035,0.066-0.045
					c0.035-0.013,0.039-0.013,0.229-0.013c0.197,0,0.195,0,0.236,0.017c0.076,0.03,1.464,0.641,1.477,0.648
					c0.019,0.012,0.05,0.045,0.061,0.063c0.01,0.017,0.02,0.041,0.023,0.063c0.005,0.025,0.005,0.278,0,0.305
					c-0.004,0.022-0.014,0.046-0.023,0.063c-0.011,0.019-0.042,0.051-0.061,0.063c-0.013,0.008-1.4,0.617-1.477,0.648
					c-0.041,0.017-0.039,0.017-0.236,0.017c-0.189,0-0.193-0.001-0.229-0.014c-0.025-0.009-0.042-0.021-0.066-0.045
					c-0.032-0.031-0.047-0.059-0.055-0.1C199.682,243.615,199.69,243.566,199.713,243.527z"/>
				<path fill="#FFFFFF" d="M199.687,240.014c0-0.295,0-0.303,0.013-0.362c0.02-0.085,0.061-0.171,0.115-0.236
					c0.049-0.061,0.146-0.172,0.166-0.191c0.078-0.074,0.174-0.124,0.279-0.146c0.061-0.012,0.07-0.012,0.354-0.011
					c0.297,0.001,0.272-0.001,0.314,0.02c0.025,0.013,0.047,0.029,0.064,0.05c0.014,0.017,0.03,0.051,0.037,0.073
					c0.004,0.014,0.004,0.048,0.005,0.688l0.001,0.674l0.075-0.001c0.084-0.001,0.089-0.002,0.124-0.019
					c0.033-0.017,0.043-0.024,0.119-0.114s0.085-0.103,0.096-0.139l0.006-0.019l0.002-0.527c0-0.58,0-0.531,0.015-0.569
					c0.028-0.069,0.1-0.116,0.177-0.116c0.092,0,0.17,0.065,0.188,0.157c0.006,0.026,0.005,1.039,0,1.084
					c-0.012,0.104-0.054,0.207-0.115,0.286c-0.03,0.038-0.154,0.182-0.176,0.201c-0.09,0.087-0.202,0.139-0.332,0.154
					c-0.025,0.003-0.096,0.003-0.451,0.003c-0.406,0-0.424,0-0.459-0.004c-0.123-0.017-0.234-0.068-0.322-0.153
					c-0.02-0.02-0.118-0.131-0.166-0.19c-0.067-0.082-0.111-0.186-0.125-0.295C199.688,240.293,199.687,240.219,199.687,240.014z
					 M200.07,239.74v0.264c-0.001,0.275,0,0.28,0.01,0.309c0.01,0.027,0.021,0.044,0.089,0.123c0.038,0.044,0.075,0.086,0.084,0.094
					c0.02,0.016,0.036,0.025,0.062,0.034l0.022,0.008l0.157,0.001l0.157,0.001v-0.562v-0.562l-0.156,0.001
					c-0.176,0.001-0.166,0-0.207,0.02c-0.012,0.006-0.027,0.017-0.036,0.023s-0.046,0.049-0.083,0.093
					c-0.072,0.086-0.083,0.101-0.094,0.136L200.07,239.74z"/>
				<path fill="#FFFFFF" d="M199.713,237.806c0.011-0.018,0.05-0.058,0.068-0.067c0.007-0.005,0.021-0.011,0.029-0.015
					c0.033-0.012,0.043-0.013,0.172-0.013c0.066,0,0.121,0,0.121-0.001s-0.084-0.1-0.188-0.22s-0.192-0.227-0.199-0.236
					c-0.012-0.018-0.018-0.033-0.025-0.06c-0.004-0.013-0.004-0.037-0.004-0.243c0-0.249,0-0.247,0.015-0.308
					c0.055-0.231,0.245-0.402,0.482-0.433c0.047-0.006,0.181-0.007,0.21-0.001c0.092,0.018,0.156,0.095,0.156,0.188
					c0,0.087-0.055,0.159-0.141,0.185c-0.016,0.005-0.025,0.006-0.104,0.007l-0.087,0.002l-0.022,0.008
					c-0.027,0.009-0.039,0.016-0.061,0.033c-0.02,0.015-0.036,0.036-0.049,0.062c-0.018,0.039-0.018,0.031-0.018,0.22v0.169
					l0.269,0.314l0.269,0.314l0.537,0.001c0.605,0.001,0.545-0.001,0.588,0.02c0.039,0.02,0.067,0.048,0.086,0.087
					c0.024,0.049,0.027,0.098,0.01,0.148c-0.011,0.028-0.021,0.045-0.047,0.069c-0.031,0.032-0.059,0.047-0.101,0.055
					c-0.026,0.005-1.81,0.005-1.836,0c-0.042-0.008-0.068-0.022-0.101-0.055c-0.032-0.031-0.047-0.059-0.055-0.1
					C199.682,237.894,199.69,237.845,199.713,237.806z"/>
			</g>
			<text transform="matrix(1 0 0 1 161.1719 237.5669)" fill="#FFFFFF" font-family="'OCRA'" font-size="7" letter-spacing="2">SVG</text>
			
				<line fill="none" stroke="#FFFFFF" stroke-width="0.576" stroke-linecap="round" x1="168.915" y1="238.224" x2="172.515" y2="238.224"/>
			
				<line fill="none" stroke="#FFFFFF" stroke-width="0.576" stroke-linecap="round" x1="172.515" y1="238.224" x2="174.315" y2="240.023"/>
			
				<line fill="none" stroke="#FFFFFF" stroke-width="0.576" stroke-linecap="round" x1="174.315" y1="243.624" x2="172.515" y2="245.423"/>
			
				<line fill="none" stroke="#FFFFFF" stroke-width="0.576" stroke-linecap="round" x1="159.915" y1="240.023" x2="161.716" y2="238.224"/>
			
				<line fill="none" stroke="#FFFFFF" stroke-width="0.576" stroke-linecap="round" x1="161.716" y1="238.224" x2="165.315" y2="238.224"/>
			
				<line fill="none" stroke="#FFFFFF" stroke-width="0.576" stroke-linecap="round" x1="165.315" y1="238.224" x2="167.116" y2="240.023"/>
			
				<line fill="none" stroke="#FFFFFF" stroke-width="0.576" stroke-linecap="round" x1="167.116" y1="243.624" x2="165.315" y2="245.423"/>
			
				<line fill="none" stroke="#FFFFFF" stroke-width="0.576" stroke-linecap="round" x1="165.315" y1="245.423" x2="161.716" y2="245.423"/>
			
				<line fill="none" stroke="#FFFFFF" stroke-width="0.576" stroke-linecap="round" x1="161.716" y1="245.423" x2="159.915" y2="243.624"/>
			
				<line fill="none" stroke="#FFFFFF" stroke-width="0.576" stroke-linecap="round" x1="168.915" y1="238.224" x2="167.116" y2="240.023"/>
			
				<line fill="none" stroke="#FFFFFF" stroke-width="0.576" stroke-linecap="round" x1="167.116" y1="243.624" x2="168.915" y2="245.423"/>
			
				<line fill="none" stroke="#FFFFFF" stroke-width="0.576" stroke-linecap="round" x1="172.515" y1="245.423" x2="168.915" y2="245.423"/>
			
				<line fill="none" stroke="#FFFFFF" stroke-width="0.576" stroke-linecap="round" x1="159.915" y1="240.023" x2="159.915" y2="243.624"/>
			
				<line fill="none" stroke="#FFFFFF" stroke-width="0.576" stroke-linecap="round" x1="176.116" y1="238.224" x2="179.716" y2="238.224"/>
			
				<line fill="none" stroke="#FFFFFF" stroke-width="0.576" stroke-linecap="round" x1="179.716" y1="238.224" x2="181.515" y2="240.023"/>
			
				<line fill="none" stroke="#FFFFFF" stroke-width="0.576" stroke-linecap="round" x1="181.515" y1="240.023" x2="181.515" y2="243.624"/>
			
				<line fill="none" stroke="#FFFFFF" stroke-width="0.576" stroke-linecap="round" x1="181.515" y1="243.624" x2="179.716" y2="245.423"/>
			
				<line fill="none" stroke="#FFFFFF" stroke-width="0.576" stroke-linecap="round" x1="176.116" y1="238.224" x2="174.315" y2="240.023"/>
			
				<line fill="none" stroke="#FFFFFF" stroke-width="0.576" stroke-linecap="round" x1="174.315" y1="243.624" x2="176.116" y2="245.423"/>
			
				<line fill="none" stroke="#FFFFFF" stroke-width="0.576" stroke-linecap="round" x1="179.716" y1="245.423" x2="176.116" y2="245.423"/>
			<circle id="_x38__2_" fill="none" stroke="#989898" stroke-miterlimit="10" cx="170.83" cy="241.824" r="2.053"/>
			<circle id="_x38__1_" fill="none" stroke="#989898" stroke-miterlimit="10" cx="178.031" cy="241.824" r="2.053"/>
			<circle id="_x38_" fill="none" stroke="#989898" stroke-miterlimit="10" cx="163.631" cy="241.824" r="2.053"/>
			<rect x="160.483" y="246.68" fill="#676767" width="20.692" height="6.944"/>
			<rect x="169.75" y="253.625" fill="#F4BC17" width="2.16" height="17.008"/>
			<rect x="176.949" y="253.625" fill="#F4BC17" width="2.16" height="17.008"/>
			<rect x="162.549" y="253.625" fill="#F4BC17" width="2.16" height="17.008"/>
			<g id="connector8pin_5_">
				<path fill="#989898" d="M180.787,203.714c0-1.408,1.145-2.553,2.553-2.553c1.407,0,2.553,1.145,2.553,2.553
					c0,1.406-1.146,2.551-2.553,2.551C181.932,206.265,180.787,205.121,180.787,203.714z M184.893,203.714
					c0-0.855-0.697-1.553-1.553-1.553s-1.553,0.697-1.553,1.553s0.697,1.551,1.553,1.551S184.893,204.57,184.893,203.714z"/>
			</g>
			<g id="connector8pin_4_">
				<path fill="#989898" d="M180.787,226.809c0-1.407,1.145-2.553,2.553-2.553c1.407,0,2.553,1.146,2.553,2.553
					s-1.146,2.551-2.553,2.551C181.932,229.36,180.787,228.216,180.787,226.809z M184.893,226.809c0-0.856-0.697-1.553-1.553-1.553
					s-1.553,0.696-1.553,1.553c0,0.854,0.697,1.551,1.553,1.551S184.893,227.664,184.893,226.809z"/>
			</g>
			<g id="path_3_">
				<path fill="#8C8C8C" d="M181.852,205.168v-1.414c0-0.804,0.651-1.455,1.455-1.455s1.455,0.651,1.455,1.455v1.414
					c0,0.804-0.651,1.455-1.455,1.455S181.852,205.972,181.852,205.168z"/>
			</g>
			<g id="path_2_">
				<path fill="#8C8C8C" d="M181.852,226.797v-1.414c0-0.804,0.651-1.455,1.455-1.455s1.455,0.651,1.455,1.455v1.414
					c0,0.804-0.651,1.455-1.455,1.455S181.852,227.601,181.852,226.797z"/>
			</g>
			<g>
				<rect x="181.852" y="204.591" fill="#8C8C8C" width="2.91" height="21.374"/>
			</g>
			<g id="body">
				<path fill="#D8B376" d="M185.816,211.114c0.133-0.288,0.236-0.783,0.236-1.101v-1.589c0-0.317-0.26-0.576-0.576-0.576h-4.285
					c-0.317,0-0.576,0.259-0.576,0.576v1.589c0,0.317,0.109,0.812,0.237,1.101l0.028,0.058c0.132,0.288,0.235,0.783,0.235,1.1v5.749
					c0,0.317-0.109,0.812-0.235,1.1l-0.028,0.058c-0.133,0.289-0.237,0.783-0.237,1.101v1.59c0,0.317,0.259,0.576,0.576,0.576h4.285
					c0.316,0,0.576-0.259,0.576-0.576v-1.59c0-0.317-0.109-0.812-0.236-1.101l-0.029-0.058c-0.132-0.287-0.235-0.782-0.235-1.1
					v-5.749c0-0.316,0.109-0.812,0.235-1.1L185.816,211.114z"/>
			</g>
			<g id="gold_band">
				<rect x="180.621" y="220.531" fill="#AC9E4D" width="5.437" height="0.562"/>
			</g>
			<g id="band_rd_multiplier">
				<rect x="181.122" y="215.854" fill="#8A3F1E" width="4.43" height="1.479"/>
			</g>
			<g id="band_2_nd">
				<rect x="181.122" y="212.894" fill="#0CA54B" width="4.43" height="1.48"/>
			</g>
			<g id="band_1_st">
				<path fill="#8A3F1E" d="M185.701,211.418c0.029-0.092,0.058-0.179,0.092-0.247l0.029-0.058c0.132-0.288,0.236-0.783,0.236-1.101
					v-0.068h-5.438v0.068c0,0.317,0.109,0.812,0.236,1.101l0.028,0.058c0.035,0.068,0.063,0.155,0.093,0.247H185.701z"/>
			</g>
			<path fill="#F4BC17" d="M165.081,242.531v-0.707c0-0.805-0.651-1.455-1.455-1.455s-1.455,0.65-1.455,1.455v1.414
				c0,0.031,0.007,0.061,0.009,0.092v3.351h2.906v-4.149H165.081z"/>
			<path fill="#F4BC17" d="M179.474,242.531v-0.707c0-0.804-0.651-1.455-1.455-1.455s-1.455,0.651-1.455,1.455v1.414
				c0,0.031,0.007,0.061,0.009,0.092v3.352h2.906v-4.15H179.474z"/>
			<path fill="#F4BC17" d="M172.281,242.531v-0.707c0-0.805-0.651-1.455-1.455-1.455s-1.455,0.65-1.455,1.455v1.414
				c0,0.031,0.008,0.061,0.01,0.092v3.351h2.906v-4.149H172.281z"/>
			<g id="connector8pin_6_">
				<path fill="#989898" d="M157.865,249.771c0,1.407-1.145,2.553-2.553,2.553c-1.407,0-2.553-1.146-2.553-2.553
					s1.146-2.551,2.553-2.551C156.721,247.22,157.865,248.364,157.865,249.771z M153.76,249.771c0,0.855,0.697,1.553,1.553,1.553
					s1.553-0.697,1.553-1.553s-0.697-1.551-1.553-1.551S153.76,248.916,153.76,249.771z"/>
			</g>
			<g id="connector8pin_3_">
				<path fill="#989898" d="M157.865,226.675c0,1.408-1.145,2.553-2.553,2.553c-1.407,0-2.553-1.145-2.553-2.553
					c0-1.406,1.146-2.551,2.553-2.551C156.721,224.125,157.865,225.269,157.865,226.675z M153.76,226.675
					c0,0.856,0.697,1.553,1.553,1.553s1.553-0.696,1.553-1.553c0-0.854-0.697-1.551-1.553-1.551S153.76,225.821,153.76,226.675z"/>
			</g>
			<g id="path_5_">
				<path fill="#8C8C8C" d="M156.801,248.316v1.414c0,0.805-0.651,1.455-1.455,1.455s-1.455-0.65-1.455-1.455v-1.414
					c0-0.803,0.651-1.455,1.455-1.455S156.801,247.513,156.801,248.316z"/>
			</g>
			<g id="path_4_">
				<path fill="#8C8C8C" d="M156.801,226.687v1.414c0,0.805-0.651,1.455-1.455,1.455s-1.455-0.65-1.455-1.455v-1.414
					c0-0.803,0.651-1.455,1.455-1.455S156.801,225.884,156.801,226.687z"/>
			</g>
			<g>
				<rect x="153.891" y="227.519" fill="#8C8C8C" width="2.91" height="21.375"/>
			</g>
			<g id="body_2_">
				<path fill="#D8B376" d="M152.836,242.371c-0.133,0.289-0.236,0.783-0.236,1.102v1.588c0,0.318,0.26,0.576,0.576,0.576h4.285
					c0.317,0,0.576-0.258,0.576-0.576v-1.588c0-0.318-0.109-0.812-0.237-1.102l-0.028-0.057c-0.132-0.289-0.235-0.783-0.235-1.1
					v-5.75c0-0.316,0.109-0.812,0.235-1.1l0.028-0.057c0.133-0.289,0.237-0.783,0.237-1.102v-1.59c0-0.316-0.259-0.576-0.576-0.576
					h-4.285c-0.316,0-0.576,0.26-0.576,0.576v1.59c0,0.318,0.109,0.812,0.236,1.102l0.029,0.057c0.132,0.287,0.235,0.783,0.235,1.1
					v5.75c0,0.316-0.109,0.811-0.235,1.1L152.836,242.371z"/>
			</g>
			<g id="gold_band_2_">
				<rect x="152.595" y="232.392" fill="#AC9E4D" width="5.437" height="0.562"/>
			</g>
			<g id="band_rd_multiplier_2_">
				<rect x="153.101" y="236.152" fill="#ED3224" width="4.43" height="1.479"/>
			</g>
			<g id="band_2_nd_2_">
				<rect x="153.101" y="239.111" fill="#6E54A2" width="4.43" height="1.48"/>
			</g>
			<g id="band_1_st_2_">
				<path fill="#FDED07" d="M152.951,242.066c-0.029,0.092-0.058,0.18-0.092,0.248l-0.029,0.057
					c-0.132,0.289-0.236,0.783-0.236,1.102v0.068h5.438v-0.068c0-0.318-0.109-0.812-0.236-1.102l-0.028-0.057
					c-0.035-0.068-0.063-0.156-0.093-0.248H152.951z"/>
			</g>
			<circle id="connector8pin_8_" fill="none" stroke="#989898" stroke-miterlimit="10" cx="167.115" cy="207.934" r="2.052"/>
			<circle id="connector8pin_7_" fill="none" stroke="#989898" stroke-miterlimit="10" cx="174.316" cy="207.934" r="2.052"/>
			<title>package:1X08</title>
			
				<line fill="none" stroke="#FFFFFF" stroke-width="0.576" stroke-linecap="round" x1="165.314" y1="204.333" x2="168.914" y2="204.333"/>
			
				<line fill="none" stroke="#FFFFFF" stroke-width="0.576" stroke-linecap="round" x1="168.914" y1="204.333" x2="170.715" y2="206.132"/>
			
				<line fill="none" stroke="#FFFFFF" stroke-width="0.576" stroke-linecap="round" x1="170.715" y1="209.734" x2="168.914" y2="211.533"/>
			
				<line fill="none" stroke="#FFFFFF" stroke-width="0.576" stroke-linecap="round" x1="165.314" y1="204.333" x2="163.516" y2="206.132"/>
			
				<line fill="none" stroke="#FFFFFF" stroke-width="0.576" stroke-linecap="round" x1="163.516" y1="209.734" x2="165.314" y2="211.533"/>
			
				<line fill="none" stroke="#FFFFFF" stroke-width="0.576" stroke-linecap="round" x1="168.914" y1="211.533" x2="165.314" y2="211.533"/>
			
				<line fill="none" stroke="#FFFFFF" stroke-width="0.576" stroke-linecap="round" x1="163.516" y1="206.132" x2="163.516" y2="209.734"/>
			
				<line fill="none" stroke="#FFFFFF" stroke-width="0.576" stroke-linecap="round" x1="172.516" y1="204.333" x2="176.115" y2="204.333"/>
			
				<line fill="none" stroke="#FFFFFF" stroke-width="0.576" stroke-linecap="round" x1="176.115" y1="204.333" x2="177.914" y2="206.132"/>
			
				<line fill="none" stroke="#FFFFFF" stroke-width="0.576" stroke-linecap="round" x1="177.914" y1="206.132" x2="177.914" y2="209.734"/>
			
				<line fill="none" stroke="#FFFFFF" stroke-width="0.576" stroke-linecap="round" x1="177.914" y1="209.734" x2="176.115" y2="211.533"/>
			
				<line fill="none" stroke="#FFFFFF" stroke-width="0.576" stroke-linecap="round" x1="172.516" y1="204.333" x2="170.715" y2="206.132"/>
			
				<line fill="none" stroke="#FFFFFF" stroke-width="0.576" stroke-linecap="round" x1="170.715" y1="209.734" x2="172.516" y2="211.533"/>
			
				<line fill="none" stroke="#FFFFFF" stroke-width="0.576" stroke-linecap="round" x1="176.115" y1="211.533" x2="172.516" y2="211.533"/>
			<path fill="#F4BC17" d="M165.773,207.126v0.707c0,0.804,0.652,1.455,1.455,1.455c0.805,0,1.455-0.651,1.455-1.455v-1.414
				c0-0.031-0.007-0.061-0.009-0.092v-3.352h-2.906v4.15H165.773z"/>
			<path fill="#F4BC17" d="M172.967,207.126v0.707c0,0.805,0.65,1.455,1.455,1.455c0.803,0,1.455-0.65,1.455-1.455v-1.414
				c0-0.031-0.008-0.061-0.01-0.092v-3.351h-2.906v4.149H172.967z"/>
			<rect x="163.034" y="179.101" fill="#676767" width="15.591" height="24.095"/>
			<rect x="162.904" y="217.129" fill="#676767" width="7.795" height="6.804"/>
			<rect x="170.73" y="217.129" fill="#676767" width="7.795" height="6.804"/>
			<path fill="none" stroke="#FFFFFF" stroke-width="0.2835" stroke-miterlimit="10" d="M154.883,179.859
				c-2.334,0-4.227,1.892-4.227,4.225v7.467h8.452v-7.467C159.108,181.75,157.217,179.859,154.883,179.859z"/>
			
				<rect x="157.656" y="184.83" fill="none" stroke="#FFFFFF" stroke-width="0.2835" stroke-miterlimit="10" width="0.125" height="18.884"/>
			
				<rect x="152.031" y="184.83" fill="none" stroke="#FFFFFF" stroke-width="0.2835" stroke-miterlimit="10" width="0.125" height="14.32"/>
			<polyline fill="#FFFFFF" stroke="#FFFFFF" stroke-width="0.2835" stroke-miterlimit="10" points="152.156,184.83 154.156,184.83 
				155.594,184.83 155.594,185.705 153.875,187.421 152.031,187.421 			"/>
			<polyline fill="#FFFFFF" stroke="#FFFFFF" stroke-width="0.2835" stroke-miterlimit="10" points="157.656,187.421 
				155.969,187.421 156.812,186.421 157.656,184.83 			"/>
			<path stroke="#FFFFFF" stroke-miterlimit="10" d="M155.092,221.046c0.852,0,1.666-0.158,2.424-0.436v-13.304
				c-0.758-0.276-1.572-0.435-2.424-0.435c-3.914,0-7.086,3.173-7.086,7.087C148.006,217.873,151.178,221.046,155.092,221.046z"/>
		</g>
		<rect id="connector0pin_1_" x="162.549" y="265.279" fill="#F2BB19" width="2.16" height="5.354"/>
		<rect id="connector1pin_1_" x="169.75" y="265.279" fill="#F2BB19" width="2.16" height="5.354"/>
		<rect id="connector2pin_1_" x="176.949" y="265.279" fill="#F2BB19" width="2.16" height="5.354"/>
		<rect id="connector0terminal" x="162.549" y="268.472" fill="#F4BC17" width="2.16" height="2.16"/>
		<rect id="connector1terminal" x="169.75" y="268.472" fill="#F4BC17" width="2.16" height="2.16"/>
		<rect id="connector2terminal" x="176.949" y="268.472" fill="#F4BC17" width="2.16" height="2.16"/>
		<rect id="connector3pad" x="165.722" y="219.451" width="2.16" height="2.16"/>
		<rect id="connector4pad" x="173.548" y="219.451" width="2.16" height="2.16"/>
		<rect id="connector5pad" x="165.722" y="179.906" fill="#676767" width="2.16" height="2.16"/>
		<rect id="connector6pad" x="173.548" y="179.906" fill="#676767" width="2.16" height="2.16"/>
	</g>
</g>
</svg>
