<?xml version="1.0" encoding="utf-8"?>
<!-- Generator: Adobe Illustrator 15.0.0, SVG Export Plug-In . SVG Version: 6.00 Build 0)  -->
<!DOCTYPE svg PUBLIC "-//W3C//DTD SVG 1.1 Basic//EN" "http://www.w3.org/Graphics/SVG/1.1/DTD/svg11-basic.dtd">
<svg version="1.1" baseProfile="basic" id="Layer_1"
	 xmlns="http://www.w3.org/2000/svg" xmlns:xlink="http://www.w3.org/1999/xlink" x="0px" y="0px" width="70.866px"
	 height="99.213px" viewBox="134.396 135.9 70.866 99.213" xml:space="preserve">
<g id="breadboard">
	<g id="icon_1_">
		<path fill="#231F20" d="M134.396,135.9v99.213h70.866V135.9H134.396z M141.482,232.278c-2.348,0-4.252-1.903-4.252-4.252
			s1.904-4.252,4.252-4.252c2.349,0,4.252,1.903,4.252,4.252S143.831,232.278,141.482,232.278z M141.482,147.238
			c-2.348,0-4.252-1.903-4.252-4.252c0-2.348,1.904-4.252,4.252-4.252c2.349,0,4.252,1.904,4.252,4.252
			C145.734,145.334,143.831,147.238,141.482,147.238z M198.176,138.734c2.348,0,4.252,1.904,4.252,4.252
			c0,2.349-1.904,4.252-4.252,4.252s-4.252-1.903-4.252-4.252C193.924,140.638,195.828,138.734,198.176,138.734z M198.177,232.278
			c-2.35,0-4.252-1.903-4.252-4.252s1.902-4.252,4.252-4.252c2.348,0,4.252,1.903,4.252,4.252S200.524,232.278,198.177,232.278z"/>
		<text transform="matrix(1 0 0 1 162.1719 199.5669)" fill="#FFFFFF" font-family="'OCRA'" font-size="7" letter-spacing="2">SVG</text>
		<g>
			<title>package:1X08</title>
			
				<line fill="none" stroke="#FFFFFF" stroke-width="0.576" stroke-linecap="round" x1="169.915" y1="200.224" x2="173.515" y2="200.224"/>
			
				<line fill="none" stroke="#FFFFFF" stroke-width="0.576" stroke-linecap="round" x1="173.515" y1="200.224" x2="175.315" y2="202.023"/>
			
				<line fill="none" stroke="#FFFFFF" stroke-width="0.576" stroke-linecap="round" x1="175.315" y1="205.624" x2="173.515" y2="207.423"/>
			
				<line fill="none" stroke="#FFFFFF" stroke-width="0.576" stroke-linecap="round" x1="160.915" y1="202.023" x2="162.716" y2="200.224"/>
			
				<line fill="none" stroke="#FFFFFF" stroke-width="0.576" stroke-linecap="round" x1="162.716" y1="200.224" x2="166.315" y2="200.224"/>
			
				<line fill="none" stroke="#FFFFFF" stroke-width="0.576" stroke-linecap="round" x1="166.315" y1="200.224" x2="168.116" y2="202.023"/>
			
				<line fill="none" stroke="#FFFFFF" stroke-width="0.576" stroke-linecap="round" x1="168.116" y1="205.624" x2="166.315" y2="207.423"/>
			
				<line fill="none" stroke="#FFFFFF" stroke-width="0.576" stroke-linecap="round" x1="166.315" y1="207.423" x2="162.716" y2="207.423"/>
			
				<line fill="none" stroke="#FFFFFF" stroke-width="0.576" stroke-linecap="round" x1="162.716" y1="207.423" x2="160.915" y2="205.624"/>
			
				<line fill="none" stroke="#FFFFFF" stroke-width="0.576" stroke-linecap="round" x1="169.915" y1="200.224" x2="168.116" y2="202.023"/>
			
				<line fill="none" stroke="#FFFFFF" stroke-width="0.576" stroke-linecap="round" x1="168.116" y1="205.624" x2="169.915" y2="207.423"/>
			
				<line fill="none" stroke="#FFFFFF" stroke-width="0.576" stroke-linecap="round" x1="173.515" y1="207.423" x2="169.915" y2="207.423"/>
			
				<line fill="none" stroke="#FFFFFF" stroke-width="0.576" stroke-linecap="round" x1="160.915" y1="202.023" x2="160.915" y2="205.624"/>
			
				<line fill="none" stroke="#FFFFFF" stroke-width="0.576" stroke-linecap="round" x1="177.116" y1="200.224" x2="180.716" y2="200.224"/>
			
				<line fill="none" stroke="#FFFFFF" stroke-width="0.576" stroke-linecap="round" x1="180.716" y1="200.224" x2="182.515" y2="202.023"/>
			
				<line fill="none" stroke="#FFFFFF" stroke-width="0.576" stroke-linecap="round" x1="182.515" y1="202.023" x2="182.515" y2="205.624"/>
			
				<line fill="none" stroke="#FFFFFF" stroke-width="0.576" stroke-linecap="round" x1="182.515" y1="205.624" x2="180.716" y2="207.423"/>
			
				<line fill="none" stroke="#FFFFFF" stroke-width="0.576" stroke-linecap="round" x1="177.116" y1="200.224" x2="175.315" y2="202.023"/>
			
				<line fill="none" stroke="#FFFFFF" stroke-width="0.576" stroke-linecap="round" x1="175.315" y1="205.624" x2="177.116" y2="207.423"/>
			
				<line fill="none" stroke="#FFFFFF" stroke-width="0.576" stroke-linecap="round" x1="180.716" y1="207.423" x2="177.116" y2="207.423"/>
		</g>
		<circle id="_x38__2_" fill="none" stroke="#989898" stroke-miterlimit="10" cx="171.83" cy="203.824" r="2.053"/>
		<circle id="_x38__1_" fill="none" stroke="#989898" stroke-miterlimit="10" cx="179.031" cy="203.824" r="2.053"/>
		<circle id="_x38_" fill="none" stroke="#989898" stroke-miterlimit="10" cx="164.631" cy="203.824" r="2.053"/>
		<rect x="161.483" y="208.68" fill="#676767" width="20.692" height="6.944"/>
		<rect x="170.75" y="215.625" fill="#F4BC17" width="2.16" height="17.008"/>
		<rect x="177.949" y="215.625" fill="#F4BC17" width="2.16" height="17.008"/>
		<rect x="163.549" y="215.625" fill="#F4BC17" width="2.16" height="17.008"/>
		<path fill="#F4BC17" d="M166.081,204.531v-0.707c0-0.805-0.651-1.455-1.455-1.455s-1.455,0.65-1.455,1.455v1.414
			c0,0.031,0.007,0.061,0.009,0.092v3.351h2.906v-4.149H166.081z"/>
		<path fill="#F4BC17" d="M180.474,204.531v-0.707c0-0.804-0.651-1.455-1.455-1.455s-1.455,0.651-1.455,1.455v1.414
			c0,0.031,0.007,0.061,0.009,0.092v3.352h2.906v-4.15H180.474z"/>
		<path fill="#F4BC17" d="M173.281,204.531v-0.707c0-0.805-0.651-1.455-1.455-1.455s-1.455,0.65-1.455,1.455v1.414
			c0,0.031,0.008,0.061,0.01,0.092v3.351h2.906v-4.149H173.281z"/>
		<rect x="157.988" y="157.826" fill="#414141" width="42.52" height="34.016"/>
		<circle fill="#69BC45" stroke="#2DB24A" stroke-miterlimit="10" cx="146.239" cy="194.046" r="7.086"/>
		<path stroke="#FFFFFF" stroke-miterlimit="10" d="M147.324,218.639c0.854,0,1.667-0.158,2.424-0.435V204.9
			c-0.757-0.275-1.57-0.434-2.424-0.434c-3.914,0-7.086,3.172-7.086,7.086S143.41,218.639,147.324,218.639z"/>
		
			<line id="path_8_" fill="none" stroke="#8C8C8C" stroke-width="2.91" stroke-linecap="round" x1="152.5" y1="180.997" x2="152.5" y2="179.583"/>
		
			<line id="path_3_" fill="none" stroke="#8C8C8C" stroke-width="2.91" stroke-linecap="round" x1="152.5" y1="157.954" x2="152.5" y2="159.368"/>
		<path fill="none" stroke="#8C8C8C" stroke-width="2.91" d="M152.5,180.16v-21.374"/>
		<path id="body_4_" fill="#D8B376" d="M149.99,173.637c-0.133,0.288-0.236,0.783-0.236,1.101v1.589c0,0.317,0.26,0.576,0.576,0.576
			h4.285c0.318,0,0.576-0.259,0.576-0.576v-1.589c0-0.317-0.109-0.812-0.236-1.101l-0.029-0.058c-0.131-0.288-0.234-0.783-0.234-1.1
			v-5.749c0-0.317,0.109-0.812,0.234-1.1l0.029-0.058c0.133-0.289,0.236-0.783,0.236-1.101v-1.59c0-0.317-0.258-0.576-0.576-0.576
			h-4.285c-0.316,0-0.576,0.259-0.576,0.576v1.59c0,0.317,0.109,0.812,0.236,1.101l0.029,0.058c0.133,0.287,0.236,0.782,0.236,1.1
			v5.749c0,0.316-0.109,0.812-0.236,1.1L149.99,173.637z"/>
		<rect id="gold_band_4_" x="149.75" y="163.658" fill="#AC9E4D" width="5.436" height="0.562"/>
		<rect id="band_rd_multiplier_4_" x="150.256" y="167.417" fill="#C32126" width="4.43" height="1.479"/>
		<rect id="band_2_nd_4_" x="150.256" y="170.376" fill="#231F20" width="4.43" height="1.48"/>
		<path id="band_1_st_4_" fill="#8A3F1E" d="M150.105,173.333c-0.029,0.092-0.057,0.179-0.092,0.247l-0.029,0.058
			c-0.131,0.288-0.236,0.783-0.236,1.101v0.068h5.438v-0.068c0-0.317-0.109-0.812-0.236-1.101l-0.027-0.058
			c-0.035-0.068-0.064-0.155-0.094-0.247H150.105z"/>
		
			<line id="path_2_" fill="none" stroke="#8C8C8C" stroke-width="2.91" stroke-linecap="round" x1="156.355" y1="223.074" x2="156.355" y2="221.66"/>
		
			<line id="path_1_" fill="none" stroke="#8C8C8C" stroke-width="2.91" stroke-linecap="round" x1="156.355" y1="200.031" x2="156.355" y2="201.445"/>
		<path fill="none" stroke="#8C8C8C" stroke-width="2.91" d="M156.355,222.238v-21.375"/>
		<path id="body_1_" fill="#D8B376" d="M153.846,215.714c-0.133,0.289-0.236,0.783-0.236,1.102v1.588
			c0,0.318,0.26,0.576,0.576,0.576h4.285c0.317,0,0.576-0.258,0.576-0.576v-1.588c0-0.318-0.109-0.812-0.237-1.102l-0.028-0.057
			c-0.132-0.289-0.235-0.783-0.235-1.1v-5.75c0-0.316,0.109-0.812,0.235-1.1l0.028-0.057c0.133-0.289,0.237-0.783,0.237-1.102v-1.59
			c0-0.316-0.259-0.576-0.576-0.576h-4.285c-0.316,0-0.576,0.26-0.576,0.576v1.59c0,0.318,0.109,0.812,0.236,1.102l0.029,0.057
			c0.132,0.287,0.235,0.783,0.235,1.1v5.75c0,0.316-0.109,0.811-0.235,1.1L153.846,215.714z"/>
		<rect id="gold_band_1_" x="153.604" y="205.736" fill="#AC9E4D" width="5.437" height="0.562"/>
		<rect id="band_rd_multiplier_1_" x="154.11" y="209.496" fill="#ED3224" width="4.43" height="1.479"/>
		<rect id="band_2_nd_1_" x="154.11" y="212.455" fill="#6E54A2" width="4.43" height="1.48"/>
		<path id="band_1_st_1_" fill="#FDED07" d="M153.961,215.41c-0.029,0.092-0.058,0.18-0.092,0.248l-0.029,0.057
			c-0.132,0.289-0.236,0.783-0.236,1.102v0.068h5.438v-0.068c0-0.318-0.109-0.812-0.236-1.102l-0.028-0.057
			c-0.035-0.068-0.063-0.156-0.093-0.248H153.961z"/>
		
			<line id="connector0leg_2_" fill="none" stroke="#8C8C8C" stroke-width="2.094" stroke-linecap="round" x1="144.971" y1="158.277" x2="144.971" y2="159.154"/>
		
			<line id="connector1leg_2_" fill="none" stroke="#8C8C8C" stroke-width="2.094" stroke-linecap="round" x1="144.971" y1="180.664" x2="144.971" y2="181.541"/>
		<rect id="rect7_2_" x="144.168" y="159.154" fill="#8C8C8C" width="1.606" height="21.51"/>
		<path id="Body_1_" fill="#1A1A1A" stroke="#FFFFFF" stroke-width="0.1417" stroke-miterlimit="10" d="M147.758,165.069v-1.807
			c0-0.396-5.522-0.328-5.522,0v1.807c0,0.331,0,9.306,0,9.635v1.807c0,0.431,5.522,0.468,5.522,0v-1.807
			C147.758,174.371,147.758,165.398,147.758,165.069z"/>
		<rect x="142.336" y="165.625" fill="#8C8C8C" width="5.354" height="1.48"/>
		<rect x="155.602" y="135.9" fill="#414141" width="29.764" height="17.008"/>
		<text transform="matrix(0 -1 1 0 194.0391 222.8511)" fill="#FFFFFF" font-family="'OCRA'" font-size="4">RobotGeek</text>
		<text transform="matrix(0 -1 1 0 199.1777 216.7632)"><tspan x="0" y="0" fill="#FFFFFF" font-family="'OCRA'" font-size="4">Relay</tspan><tspan x="0" y="4.799" fill="#FFFFFF" font-family="'OCRA'" font-size="4">Board</tspan></text>
		<circle id="connector5pin_1_" fill="#E6E6E5" cx="161.979" cy="144.404" r="3.6"/>
		<circle id="connector4pin_2_" fill="#E6E6E5" cx="170.483" cy="144.404" r="3.6"/>
		<circle id="connector3pin_2_" fill="#E6E6E5" cx="178.987" cy="144.404" r="3.6"/>
		<text transform="matrix(0 -1 1 0 152.5684 154.8628)" fill="#FFFFFF" font-family="'OCRA'" font-size="7">NO</text>
		<text transform="matrix(0 -1 1 0 193.2344 154.8628)" fill="#FFFFFF" font-family="'OCRA'" font-size="7">NC</text>
		<g>
			
				<line fill="none" stroke="#000000" stroke-width="0.2835" stroke-miterlimit="10" x1="159.816" y1="144.404" x2="164.143" y2="144.404"/>
			
				<line fill="none" stroke="#000000" stroke-width="0.2835" stroke-miterlimit="10" x1="161.979" y1="142.24" x2="161.979" y2="146.568"/>
		</g>
		<g>
			
				<line fill="none" stroke="#000000" stroke-width="0.2835" stroke-miterlimit="10" x1="168.23" y1="144.404" x2="172.559" y2="144.404"/>
			
				<line fill="none" stroke="#000000" stroke-width="0.2835" stroke-miterlimit="10" x1="170.395" y1="142.24" x2="170.395" y2="146.568"/>
		</g>
		<g>
			
				<line fill="none" stroke="#000000" stroke-width="0.2835" stroke-miterlimit="10" x1="176.824" y1="144.404" x2="181.15" y2="144.404"/>
			
				<line fill="none" stroke="#000000" stroke-width="0.2835" stroke-miterlimit="10" x1="178.987" y1="142.24" x2="178.987" y2="146.568"/>
		</g>
		<rect id="connector0pin_1_" x="163.549" y="227.28" fill="#F2BB19" width="2.16" height="5.354"/>
		<rect id="connector1pin_1_" x="170.75" y="227.28" fill="#F2BB19" width="2.16" height="5.354"/>
		<rect id="connector2pin_1_" x="177.949" y="227.28" fill="#F2BB19" width="2.16" height="5.354"/>
		<rect id="connector0terminal" x="163.549" y="230.473" fill="#F4BC17" width="2.16" height="2.16"/>
		<rect id="connector1terminal" x="170.75" y="230.473" fill="#F4BC17" width="2.16" height="2.16"/>
		<rect id="connector2terminal" x="177.949" y="230.473" fill="#F4BC17" width="2.16" height="2.16"/>
	</g>
</g>
</svg>
