<?xml version="1.0" encoding="utf-8"?>
<!-- Generator: Adobe Illustrator 15.0.0, SVG Export Plug-In . SVG Version: 6.00 Build 0)  -->
<!DOCTYPE svg PUBLIC "-//W3C//DTD SVG 1.1 Basic//EN" "http://www.w3.org/Graphics/SVG/1.1/DTD/svg11-basic.dtd">
<svg version="1.1" baseProfile="basic" id="Layer_1" xmlns:xml="http://www.w3.org/XML/1998/namespace"
	 xmlns="http://www.w3.org/2000/svg" xmlns:xlink="http://www.w3.org/1999/xlink" x="0px" y="0px" width="226.771px"
	 height="102.047px" viewBox="0 0 226.771 102.047" xml:space="preserve">
<g id="breadboard_1_">
	<g id="svg">
		<g id="breadboard">
			<path fill="#1F7A34" d="M0,0v102.047h226.771V0H0z M113.029,2.081c0.767,0,1.388,0.621,1.388,1.387
				c0,0.766-0.621,1.387-1.388,1.387c-0.766,0-1.387-0.621-1.387-1.387C111.642,2.702,112.264,2.081,113.029,2.081z M41.03,2.081
				c0.767,0,1.388,0.621,1.388,1.387c0,0.766-0.621,1.387-1.388,1.387c-0.766,0-1.387-0.621-1.387-1.387
				C39.643,2.702,40.265,2.081,41.03,2.081z M33.83,2.081c0.766,0,1.387,0.621,1.387,1.387c0,0.766-0.621,1.387-1.387,1.387
				c-0.767,0-1.388-0.621-1.388-1.387C32.443,2.702,33.064,2.081,33.83,2.081z M6.542,3.736c1.576,0,2.854,1.277,2.854,2.854
				c0,1.577-1.277,2.853-2.854,2.853S3.688,8.166,3.688,6.59C3.688,5.014,4.966,3.736,6.542,3.736z M6.545,98.339
				c-1.576,0-2.854-1.278-2.854-2.854c0-1.575,1.278-2.854,2.854-2.854s2.854,1.277,2.854,2.854
				C9.398,97.061,8.121,98.339,6.545,98.339z M19.43,4.854c-0.766,0-1.387-0.621-1.387-1.387c0-0.766,0.621-1.387,1.387-1.387
				s1.387,0.621,1.387,1.387C20.817,4.233,20.195,4.854,19.43,4.854z M25.243,3.468c0-0.766,0.62-1.387,1.387-1.387
				c0.766,0,1.387,0.621,1.387,1.387c0,0.766-0.621,1.387-1.387,1.387C25.864,4.855,25.243,4.233,25.243,3.468z M43.219,89.84
				H26.886v-4.816h16.333V89.84z M43.219,17.023H26.886v-4.816h16.333V17.023z M48.229,4.854c-0.766,0-1.387-0.621-1.387-1.387
				c0-0.766,0.621-1.387,1.387-1.387c0.767,0,1.388,0.621,1.388,1.387C49.616,4.233,48.995,4.854,48.229,4.854z M55.43,4.854
				c-0.766,0-1.387-0.621-1.387-1.387c0-0.766,0.621-1.387,1.387-1.387s1.387,0.621,1.387,1.387
				C56.817,4.233,56.195,4.854,55.43,4.854z M62.63,4.854c-0.767,0-1.387-0.621-1.387-1.387c0-0.766,0.62-1.387,1.387-1.387
				c0.766,0,1.387,0.621,1.387,1.387C64.017,4.233,63.396,4.854,62.63,4.854z M69.83,4.854c-0.767,0-1.388-0.621-1.388-1.387
				c0-0.766,0.621-1.387,1.388-1.387c0.766,0,1.387,0.621,1.387,1.387C71.217,4.233,70.596,4.854,69.83,4.854z M77.029,4.854
				c-0.766,0-1.387-0.621-1.387-1.387c0-0.766,0.621-1.387,1.387-1.387c0.767,0,1.388,0.621,1.388,1.387
				C78.416,4.233,77.795,4.854,77.029,4.854z M84.229,4.854c-0.766,0-1.387-0.621-1.387-1.387c0-0.766,0.621-1.387,1.387-1.387
				c0.767,0,1.388,0.621,1.388,1.387C85.616,4.233,84.995,4.854,84.229,4.854z M91.43,4.854c-0.766,0-1.387-0.621-1.387-1.387
				c0-0.766,0.621-1.387,1.387-1.387s1.387,0.621,1.387,1.387C92.817,4.233,92.195,4.854,91.43,4.854z M98.63,4.854
				c-0.767,0-1.387-0.621-1.387-1.387c0-0.766,0.62-1.387,1.387-1.387c0.766,0,1.387,0.621,1.387,1.387
				C100.017,4.233,99.396,4.854,98.63,4.854z M104.442,3.468c0-0.766,0.621-1.387,1.388-1.387c0.766,0,1.387,0.621,1.387,1.387
				c0,0.766-0.621,1.387-1.387,1.387C105.063,4.855,104.442,4.233,104.442,3.468z M121.553,89.84h-16.334v-4.816h16.334V89.84z
				 M121.553,17.023h-16.334v-4.816h16.334V17.023z M120.229,4.854c-0.766,0-1.387-0.621-1.387-1.387
				c0-0.766,0.621-1.387,1.387-1.387c0.767,0,1.388,0.621,1.388,1.387C121.616,4.233,120.995,4.854,120.229,4.854z M127.43,4.854
				c-0.766,0-1.387-0.621-1.387-1.387c0-0.766,0.621-1.387,1.387-1.387s1.387,0.621,1.387,1.387
				C128.817,4.233,128.196,4.854,127.43,4.854z M199.885,89.84h-16.332v-4.816h16.332V89.84z M199.885,17.023h-16.332v-4.816h16.332
				V17.023z M220.208,3.731c1.576,0,2.854,1.277,2.854,2.854c0,1.577-1.276,2.854-2.854,2.854s-2.855-1.277-2.855-2.854
				C217.353,5.008,218.631,3.731,220.208,3.731z M220.208,98.34c-1.576,0-2.854-1.277-2.854-2.854c0-1.575,1.277-2.854,2.854-2.854
				s2.854,1.278,2.854,2.854S221.784,98.34,220.208,98.34z"/>
			<g>
				<path fill="#9A916C" d="M1.581,6.59c0,2.737,2.223,4.961,4.96,4.961c2.742,0,4.961-2.224,4.961-4.961
					c0-2.741-2.219-4.96-4.961-4.96C3.804,1.63,1.581,3.849,1.581,6.59z M3.688,6.59c0-1.576,1.278-2.854,2.854-2.854
					S9.396,5.013,9.396,6.59c0,1.577-1.278,2.853-2.854,2.853C4.966,9.443,3.688,8.166,3.688,6.59z"/>
			</g>
			<g>
				<g>
					<path fill="#9A916C" d="M225.168,95.486c0-2.737-2.224-4.961-4.961-4.961c-2.742,0-4.961,2.224-4.961,4.961
						c0,2.74,2.219,4.959,4.961,4.959C222.946,100.445,225.168,98.229,225.168,95.486z M223.063,95.486
						c0,1.576-1.278,2.854-2.854,2.854s-2.854-1.277-2.854-2.854c0-1.575,1.277-2.854,2.854-2.854S223.063,93.911,223.063,95.486z"
						/>
				</g>
			</g>
			<g>
				<g>
					<path fill="#9A916C" d="M1.584,95.484c0,2.738,2.223,4.961,4.96,4.961c2.742,0,4.961-2.223,4.961-4.961
						c0-2.74-2.219-4.959-4.961-4.959C3.807,90.525,1.584,92.744,1.584,95.484z M3.69,95.484c0-1.575,1.278-2.854,2.854-2.854
						s2.854,1.277,2.854,2.854s-1.277,2.854-2.854,2.854C4.969,98.339,3.69,97.061,3.69,95.484z"/>
				</g>
			</g>
			<path fill="#303030" d="M217.563,65.271c-0.733,0-1.336-0.602-1.336-1.336V38.113c0-0.735,0.603-1.337,1.336-1.337h0.058v-20.05
				v-0.698h-0.699l-2.049-2.049v-0.713h-0.713H12.611h-0.713v0.713L9.85,16.027H9.151v0.698v20.051h0.058
				c0.734,0,1.337,0.602,1.337,1.337v25.822c0,0.734-0.603,1.336-1.337,1.336H9.151V85.32v0.699H9.85l2.049,2.049v0.713h0.713
				h201.548h0.713v-0.713l2.049-2.049h0.699V85.32V65.271H217.563z"/>
			<g>
				<path fill="#418DD9" d="M208.663,71.383c0,2.205-1.806,4.01-4.013,4.01H22.12c-2.206,0-4.012-1.805-4.012-4.01V30.665
					c0-2.206,1.806-4.011,4.012-4.011h182.53c2.207,0,4.013,1.805,4.013,4.011V71.383z"/>
				<g opacity="0.2">
					<path fill="#418DD9" d="M208.655,30.646V71.4c0-0.006,0.003-0.012,0.003-0.018V30.665
						C208.657,30.658,208.655,30.652,208.655,30.646z M22.12,26.654c-2.205,0-4.012,1.806-4.012,4.011v40.717
						c0,2.205,1.807,4.011,4.012,4.011h2.325c-2.205,0-4.011-1.806-4.011-4.011V32.003c0-2.206,1.806-4.011,4.011-4.011h183.165
						c-0.734-0.814-1.786-1.338-2.964-1.338H22.12z"/>
				</g>
			</g>
			<g>
				<path fill="#1A1A1A" d="M210.358,18.618c0-0.735-0.602-1.336-1.336-1.336H17.75c-0.735,0-1.336,0.602-1.336,1.336v0.737
					c0,0.735,0.602,1.336,1.336,1.336h191.271c0.734,0,1.336-0.602,1.336-1.336L210.358,18.618L210.358,18.618z"/>
				<path fill="#424242" d="M209.69,19.812c0-0.484-0.432-0.88-0.957-0.88H18.117c-0.526,0-0.957,0.396-0.957,0.88
					s0.431,0.88,0.957,0.88h190.615C209.258,20.691,209.69,20.295,209.69,19.812z"/>
			</g>
			<g>
				<path fill="#1A1A1A" d="M210.358,82.057c0-0.734-0.602-1.336-1.336-1.336H17.75c-0.735,0-1.336,0.602-1.336,1.336v0.737
					c0,0.733,0.602,1.336,1.336,1.336h191.271c0.734,0,1.336-0.603,1.336-1.336L210.358,82.057L210.358,82.057z"/>
				<path fill="#424242" d="M209.69,83.251c0-0.483-0.432-0.88-0.957-0.88H18.117c-0.526,0-0.957,0.396-0.957,0.88
					s0.431,0.879,0.957,0.879h190.615C209.258,84.13,209.69,83.734,209.69,83.251z"/>
			</g>
			<g>
				
					<line fill="none" stroke="#F2F2F2" stroke-width="0.2358" stroke-linecap="round" stroke-opacity="0.2" x1="9.937" y1="16.173" x2="12.05" y2="14.06"/>
				
					<line fill="none" stroke="#F2F2F2" stroke-width="0.2358" stroke-linecap="round" stroke-opacity="0.2" x1="12.072" y1="87.977" x2="9.959" y2="85.863"/>
			</g>
			<g>
				
					<line fill="none" stroke="#F2F2F2" stroke-width="0.2358" stroke-linecap="round" stroke-opacity="0.2" x1="216.823" y1="16.173" x2="214.709" y2="14.06"/>
				
					<line fill="none" stroke="#F2F2F2" stroke-width="0.2358" stroke-linecap="round" stroke-opacity="0.2" x1="214.688" y1="87.977" x2="216.801" y2="85.863"/>
			</g>
			<path fill="none" stroke="#1A1A1A" stroke-width="1.415" stroke-opacity="0.4" d="M208.657,71.383c0,2.204-1.806,4.01-4.011,4.01
				H22.12c-2.205,0-4.012-1.806-4.012-4.01V30.665c0-2.205,1.807-4.011,4.012-4.011h182.526c2.205,0,4.01,1.806,4.01,4.011
				L208.657,71.383L208.657,71.383z"/>
			<g>
				<path fill="#9A916C" d="M215.247,6.585c0,2.737,2.223,4.961,4.961,4.961c2.742,0,4.961-2.224,4.961-4.961
					c0-2.741-2.219-4.96-4.961-4.96C217.469,1.625,215.247,3.844,215.247,6.585z M217.352,6.585c0-1.576,1.279-2.854,2.855-2.854
					s2.854,1.277,2.854,2.854c0,1.577-1.276,2.854-2.854,2.854S217.352,8.161,217.352,6.585z"/>
			</g>
			<g>
				<path fill="#9A916C" d="M17.02,0v4.75c0,1.33,1.078,2.41,2.41,2.41c1.33,0,2.41-1.08,2.41-2.41V0H17.02z M19.43,4.854
					c-0.766,0-1.387-0.621-1.387-1.387c0-0.766,0.621-1.387,1.387-1.387s1.387,0.621,1.387,1.387
					C20.817,4.233,20.195,4.854,19.43,4.854z"/>
			</g>
			<g>
				<path fill="#9A916C" d="M24.22,0v4.75c0,1.33,1.078,2.41,2.41,2.41c1.33,0,2.41-1.08,2.41-2.41V0H24.22z M26.63,4.854
					c-0.767,0-1.387-0.621-1.387-1.387c0-0.766,0.62-1.387,1.387-1.387c0.766,0,1.387,0.621,1.387,1.387
					C28.017,4.233,27.396,4.854,26.63,4.854z"/>
			</g>
			<g>
				<path fill="#9A916C" d="M31.42,0v4.75c0,1.33,1.078,2.41,2.41,2.41c1.33,0,2.41-1.08,2.41-2.41V0H31.42z M33.83,4.854
					c-0.767,0-1.388-0.621-1.388-1.387c0-0.766,0.621-1.387,1.388-1.387c0.766,0,1.387,0.621,1.387,1.387
					C35.217,4.233,34.596,4.854,33.83,4.854z"/>
			</g>
			<g>
				<path fill="#9A916C" d="M38.62,0v4.75c0,1.33,1.077,2.41,2.409,2.41c1.33,0,2.41-1.08,2.41-2.41V0H38.62z M41.03,4.854
					c-0.766,0-1.387-0.621-1.387-1.387c0-0.766,0.621-1.387,1.387-1.387c0.767,0,1.388,0.621,1.388,1.387
					C42.417,4.233,41.796,4.854,41.03,4.854z"/>
			</g>
			<g>
				<path fill="#9A916C" d="M45.819,0v4.75c0,1.33,1.078,2.41,2.41,2.41c1.33,0,2.41-1.08,2.41-2.41V0H45.819z M48.229,4.854
					c-0.766,0-1.387-0.621-1.387-1.387c0-0.766,0.621-1.387,1.387-1.387c0.767,0,1.388,0.621,1.388,1.387
					C49.616,4.233,48.995,4.854,48.229,4.854z"/>
			</g>
			<g>
				<path fill="#9A916C" d="M53.02,0v4.75c0,1.33,1.078,2.41,2.41,2.41c1.33,0,2.41-1.08,2.41-2.41V0H53.02z M55.43,4.854
					c-0.766,0-1.387-0.621-1.387-1.387c0-0.766,0.621-1.387,1.387-1.387s1.387,0.621,1.387,1.387
					C56.817,4.233,56.195,4.854,55.43,4.854z"/>
			</g>
			<g>
				<path fill="#9A916C" d="M60.22,0v4.75c0,1.33,1.078,2.41,2.41,2.41c1.33,0,2.41-1.08,2.41-2.41V0H60.22z M62.63,4.854
					c-0.767,0-1.387-0.621-1.387-1.387c0-0.766,0.62-1.387,1.387-1.387c0.766,0,1.387,0.621,1.387,1.387
					C64.017,4.233,63.396,4.854,62.63,4.854z"/>
			</g>
			<g>
				<path fill="#9A916C" d="M67.42,0v4.75c0,1.33,1.078,2.41,2.41,2.41c1.33,0,2.41-1.08,2.41-2.41V0H67.42z M69.83,4.854
					c-0.767,0-1.388-0.621-1.388-1.387c0-0.766,0.621-1.387,1.388-1.387c0.766,0,1.387,0.621,1.387,1.387
					C71.217,4.233,70.596,4.854,69.83,4.854z"/>
			</g>
			<g>
				<path fill="#9A916C" d="M74.619,0v4.75c0,1.33,1.077,2.41,2.409,2.41c1.33,0,2.41-1.08,2.41-2.41V0H74.619z M77.029,4.854
					c-0.766,0-1.387-0.621-1.387-1.387c0-0.766,0.621-1.387,1.387-1.387c0.767,0,1.388,0.621,1.388,1.387
					C78.416,4.233,77.795,4.854,77.029,4.854z"/>
			</g>
			<g>
				<path fill="#9A916C" d="M81.819,0v4.75c0,1.33,1.078,2.41,2.41,2.41c1.33,0,2.41-1.08,2.41-2.41V0H81.819z M84.229,4.854
					c-0.766,0-1.387-0.621-1.387-1.387c0-0.766,0.621-1.387,1.387-1.387c0.767,0,1.388,0.621,1.388,1.387
					C85.616,4.233,84.995,4.854,84.229,4.854z"/>
			</g>
			<g>
				<path fill="#9A916C" d="M89.02,0v4.75c0,1.33,1.078,2.41,2.41,2.41c1.33,0,2.41-1.08,2.41-2.41V0H89.02z M91.43,4.854
					c-0.766,0-1.387-0.621-1.387-1.387c0-0.766,0.621-1.387,1.387-1.387s1.387,0.621,1.387,1.387
					C92.817,4.233,92.195,4.854,91.43,4.854z"/>
			</g>
			<g>
				<path fill="#9A916C" d="M96.22,0v4.75c0,1.33,1.078,2.41,2.41,2.41c1.33,0,2.41-1.08,2.41-2.41V0H96.22z M98.63,4.854
					c-0.767,0-1.387-0.621-1.387-1.387c0-0.766,0.62-1.387,1.387-1.387c0.766,0,1.387,0.621,1.387,1.387
					C100.017,4.233,99.396,4.854,98.63,4.854z"/>
			</g>
			<g>
				<path fill="#9A916C" d="M103.419,0v4.75c0,1.33,1.078,2.41,2.41,2.41c1.33,0,2.409-1.08,2.409-2.41V0H103.419z M105.829,4.854
					c-0.767,0-1.388-0.621-1.388-1.387c0-0.766,0.621-1.387,1.388-1.387c0.766,0,1.387,0.621,1.387,1.387
					C107.216,4.233,106.595,4.854,105.829,4.854z"/>
			</g>
			<g>
				<path fill="#9A916C" d="M110.619,0v4.75c0,1.33,1.077,2.41,2.409,2.41c1.33,0,2.411-1.08,2.411-2.41V0H110.619z M113.029,4.854
					c-0.766,0-1.387-0.621-1.387-1.387c0-0.766,0.621-1.387,1.387-1.387c0.767,0,1.388,0.621,1.388,1.387
					C114.416,4.233,113.795,4.854,113.029,4.854z"/>
			</g>
			<g>
				<path fill="#9A916C" d="M117.819,0v4.75c0,1.33,1.078,2.41,2.41,2.41c1.33,0,2.41-1.08,2.41-2.41V0H117.819z M120.229,4.854
					c-0.766,0-1.387-0.621-1.387-1.387c0-0.766,0.621-1.387,1.387-1.387c0.767,0,1.388,0.621,1.388,1.387
					C121.616,4.233,120.995,4.854,120.229,4.854z"/>
			</g>
			<g>
				<path fill="#9A916C" d="M125.02,0v4.75c0,1.33,1.078,2.41,2.41,2.41c1.33,0,2.41-1.08,2.41-2.41V0H125.02z M127.43,4.854
					c-0.766,0-1.387-0.621-1.387-1.387c0-0.766,0.621-1.387,1.387-1.387s1.387,0.621,1.387,1.387
					C128.817,4.233,128.196,4.854,127.43,4.854z"/>
			</g>
			<g>
				<rect x="27.79" y="51.37" fill="#1A1A1A" fill-opacity="0.1" width="10.026" height="16.522"/>
				<rect x="38.534" y="51.37" fill="#1A1A1A" fill-opacity="0.1" width="10.026" height="16.522"/>
				<rect x="49.278" y="51.37" fill="#1A1A1A" fill-opacity="0.1" width="10.027" height="16.522"/>
				<rect x="60.022" y="51.37" fill="#1A1A1A" fill-opacity="0.1" width="10.028" height="16.522"/>
				<rect x="70.768" y="51.37" fill="#1A1A1A" fill-opacity="0.1" width="10.027" height="16.522"/>
				<rect x="81.512" y="51.37" fill="#1A1A1A" fill-opacity="0.1" width="10.027" height="16.522"/>
				<rect x="92.256" y="51.37" fill="#1A1A1A" fill-opacity="0.1" width="10.027" height="16.522"/>
				<rect x="103" y="51.37" fill="#1A1A1A" fill-opacity="0.1" width="10.026" height="16.522"/>
				<rect x="113.744" y="51.37" fill="#1A1A1A" fill-opacity="0.1" width="10.027" height="16.522"/>
				<rect x="124.489" y="51.37" fill="#1A1A1A" fill-opacity="0.1" width="10.027" height="16.522"/>
				<rect x="135.233" y="51.37" fill="#1A1A1A" fill-opacity="0.1" width="10.027" height="16.522"/>
				<rect x="145.977" y="51.37" fill="#1A1A1A" fill-opacity="0.1" width="10.027" height="16.522"/>
				<rect x="156.721" y="51.37" fill="#1A1A1A" fill-opacity="0.1" width="10.027" height="16.522"/>
				<rect x="167.465" y="51.37" fill="#1A1A1A" fill-opacity="0.1" width="10.027" height="16.522"/>
				<rect x="178.209" y="51.37" fill="#1A1A1A" fill-opacity="0.1" width="10.026" height="16.522"/>
				<rect x="188.954" y="51.37" fill="#1A1A1A" fill-opacity="0.1" width="10.026" height="16.522"/>
				<rect x="27.79" y="34.154" fill="#1A1A1A" fill-opacity="0.1" width="10.026" height="16.522"/>
				<rect x="38.534" y="34.154" fill="#1A1A1A" fill-opacity="0.1" width="10.026" height="16.522"/>
				<rect x="49.278" y="34.154" fill="#1A1A1A" fill-opacity="0.1" width="10.027" height="16.522"/>
				<rect x="60.022" y="34.154" fill="#1A1A1A" fill-opacity="0.1" width="10.028" height="16.522"/>
				<rect x="70.768" y="34.154" fill="#1A1A1A" fill-opacity="0.1" width="10.027" height="16.522"/>
				<rect x="81.512" y="34.154" fill="#1A1A1A" fill-opacity="0.1" width="10.027" height="16.522"/>
				<rect x="92.256" y="34.154" fill="#1A1A1A" fill-opacity="0.1" width="10.027" height="16.522"/>
				<rect x="103" y="34.154" fill="#1A1A1A" fill-opacity="0.1" width="10.026" height="16.522"/>
				<rect x="113.744" y="34.154" fill="#1A1A1A" fill-opacity="0.1" width="10.027" height="16.522"/>
				<rect x="124.489" y="34.154" fill="#1A1A1A" fill-opacity="0.1" width="10.027" height="16.522"/>
				<rect x="135.233" y="34.154" fill="#1A1A1A" fill-opacity="0.1" width="10.027" height="16.522"/>
				<rect x="145.977" y="34.154" fill="#1A1A1A" fill-opacity="0.1" width="10.027" height="16.522"/>
				<rect x="156.721" y="34.154" fill="#1A1A1A" fill-opacity="0.1" width="10.027" height="16.522"/>
				<rect x="167.465" y="34.154" fill="#1A1A1A" fill-opacity="0.1" width="10.027" height="16.522"/>
				<rect x="178.209" y="34.154" fill="#1A1A1A" fill-opacity="0.1" width="10.026" height="16.522"/>
				<rect x="188.954" y="34.154" fill="#1A1A1A" fill-opacity="0.1" width="10.026" height="16.522"/>
			</g>
			<g>
				<path fill="#606060" d="M9.454,65.223V86.02h0.268V65.168C9.639,65.203,9.544,65.205,9.454,65.223z"/>
				<path fill="#606060" d="M9.722,36.881V16.026H9.454v20.8C9.544,36.844,9.639,36.846,9.722,36.881z"/>
			</g>
			<rect x="11.9" y="13.572" fill="#606060" width="202.97" height="0.267"/>
			<rect x="11.9" y="13.27" fill="#212121" width="202.97" height="0.304"/>
			<g>
				<path fill="#212121" d="M9.208,36.776c0.087,0,0.164,0.034,0.247,0.05v-20.8H9.152v20.75H9.208z"/>
				<path fill="#212121" d="M9.208,65.271H9.152V86.02h0.304V65.223C9.372,65.238,9.295,65.271,9.208,65.271z"/>
			</g>
			<rect x="11.9" y="88.48" fill="#212121" width="202.97" height="0.303"/>
			<rect x="11.9" y="88.215" fill="#606060" width="202.97" height="0.268"/>
			<g>
				<path fill="#212121" d="M217.563,65.271c-0.089,0-0.166-0.033-0.25-0.051V86.02h0.306V65.271H217.563z"/>
				<path fill="#212121" d="M217.563,36.776h0.056v-20.75h-0.306v20.801C217.397,36.811,217.474,36.776,217.563,36.776z"/>
			</g>
			<g>
				<path fill="#606060" d="M217.049,65.168V86.02h0.266V65.223C217.226,65.205,217.131,65.203,217.049,65.168z"/>
				<path fill="#606060" d="M217.315,36.827v-20.8h-0.266v20.854C217.131,36.846,217.226,36.844,217.315,36.827z"/>
			</g>
		</g>
		<circle id="connector0pin" cx="19.43" cy="3.468" r="1.387"/>
		<circle id="connector1pin" cx="26.63" cy="3.468" r="1.387"/>
		<circle id="connector2pin" cx="33.83" cy="3.468" r="1.387"/>
		<circle id="connector3pin" cx="41.03" cy="3.468" r="1.387"/>
		<circle id="connector4pin" cx="48.229" cy="3.468" r="1.387"/>
		<circle id="connector5pin" cx="55.43" cy="3.468" r="1.387"/>
		<path id="connector6pin" d="M61.243,3.468c0-0.766,0.62-1.387,1.387-1.387c0.766,0,1.387,0.621,1.387,1.387
			c0,0.766-0.621,1.387-1.387,1.387C61.864,4.855,61.243,4.233,61.243,3.468"/>
		<circle id="connector7pin" cx="69.83" cy="3.468" r="1.387"/>
		<circle id="connector8pin" cx="77.029" cy="3.468" r="1.387"/>
		<circle id="connector9pin" cx="84.229" cy="3.468" r="1.387"/>
		<circle id="connector10pin" cx="91.43" cy="3.468" r="1.387"/>
		<circle id="connector11pin" cx="98.63" cy="3.468" r="1.387"/>
		<circle id="connector12pin" cx="105.829" cy="3.468" r="1.387"/>
		<circle id="connector13pin" cx="113.029" cy="3.468" r="1.387"/>
		<circle id="connector14pin" cx="120.229" cy="3.468" r="1.387"/>
		<circle id="connector15pin" cx="127.43" cy="3.468" r="1.387"/>
	</g>
	<g id="Ebene_2">
	</g>
</g>
</svg>
