<?xml version="1.0" encoding="utf-8"?>
<!-- Generator: Adobe Illustrator 15.0.0, SVG Export Plug-In . SVG Version: 6.00 Build 0)  -->
<svg version="1.2" baseProfile="tiny" id="rfiduinoShield"
	 xmlns="http://www.w3.org/2000/svg" xmlns:xlink="http://www.w3.org/1999/xlink" x="0px" y="0px" width="148.032px"
	 height="190.2px" viewBox="43.787 -21.084 148.032 190.2" overflow="inherit" xml:space="preserve">
<g id="breadboard" xmlns:svg="http://www.w3.org/2000/svg">
	<g>
		<g>
			<path fill="#231F20" d="M155.902,162.19h32.224l3.694-3.985V-21.084l-148.032,0l0,183.276h5.033l7.135,6.924h93.357
				L155.902,162.19z M180.949,17.392c0-2.524,2.049-4.574,4.574-4.574c2.524,0,4.573,2.05,4.573,4.574
				c0,2.525-2.049,4.574-4.573,4.574C182.998,21.966,180.949,19.917,180.949,17.392z M146,162.442c0,1.621-1.316,2.938-2.938,2.938
				c-1.623,0-2.937-1.313-2.937-2.938s1.313-2.938,2.937-2.938C144.682,159.504,146,160.819,146,162.442z M61.073,162.944
				c0-2.361,1.916-4.276,4.274-4.276c2.367,0,4.281,1.915,4.281,4.276c0,2.365-1.914,4.276-4.281,4.276
				C62.989,167.223,61.073,165.309,61.073,162.944z"/>
		</g>
	</g>
	<rect x="184.937" y="24.461" fill="#808080" stroke="#808080" stroke-miterlimit="10" width="2.772" height="2.773"/>
	<polygon fill="#2A2A29" points="188.733,23.438 187.709,24.461 187.709,27.233 188.733,28.255 	"/>
	<polygon fill="#474747" points="188.733,28.256 187.706,27.233 184.935,27.233 183.913,28.256 	"/>
	<polygon fill="#595959" points="183.913,28.255 184.935,27.233 184.935,24.46 183.913,23.438 	"/>
	<polygon fill="#373737" points="183.913,23.437 184.937,24.46 187.709,24.46 188.733,23.437 	"/>
	<rect x="184.937" y="31.638" fill="#808080" stroke="#808080" stroke-miterlimit="10" width="2.772" height="2.771"/>
	<polygon fill="#2A2A29" points="188.733,30.613 187.709,31.637 187.709,34.411 188.733,35.434 	"/>
	<polygon fill="#474747" points="188.733,35.434 187.706,34.411 184.935,34.411 183.913,35.434 	"/>
	<polygon fill="#595959" points="183.913,35.432 184.935,34.411 184.935,31.637 183.913,30.613 	"/>
	<polygon fill="#373737" points="183.913,30.612 184.937,31.637 187.709,31.637 188.733,30.612 	"/>
	<rect x="184.937" y="38.86" fill="#808080" stroke="#808080" stroke-miterlimit="10" width="2.772" height="2.774"/>
	<polygon fill="#2A2A29" points="188.733,37.838 187.709,38.86 187.709,41.634 188.733,42.655 	"/>
	<polygon fill="#474747" points="188.733,42.656 187.706,41.634 184.935,41.634 183.913,42.656 	"/>
	<polygon fill="#595959" points="183.913,42.655 184.935,41.634 184.935,38.859 183.913,37.838 	"/>
	<polygon fill="#373737" points="183.913,37.837 184.937,38.859 187.709,38.859 188.733,37.837 	"/>
	<rect x="184.937" y="46.038" fill="#808080" stroke="#808080" stroke-miterlimit="10" width="2.772" height="2.771"/>
	<polygon fill="#2A2A29" points="188.733,45.015 187.709,46.037 187.709,48.811 188.733,49.834 	"/>
	<polygon fill="#474747" points="188.733,49.834 187.706,48.811 184.935,48.811 183.913,49.834 	"/>
	<polygon fill="#595959" points="183.913,49.832 184.935,48.811 184.935,46.037 183.913,45.015 	"/>
	<polygon fill="#373737" points="183.913,45.014 184.937,46.037 187.709,46.037 188.733,45.014 	"/>
	<rect x="184.937" y="53.216" fill="#808080" stroke="#808080" stroke-miterlimit="10" width="2.772" height="2.771"/>
	<polygon fill="#2A2A29" points="188.733,52.192 187.709,53.215 187.709,55.989 188.733,57.012 	"/>
	<polygon fill="#474747" points="188.733,57.012 187.706,55.989 184.935,55.989 183.913,57.012 	"/>
	<polygon fill="#595959" points="183.913,57.011 184.935,55.988 184.935,53.214 183.913,52.192 	"/>
	<polygon fill="#373737" points="183.913,52.191 184.937,53.214 187.709,53.214 188.733,52.191 	"/>
	<rect x="184.937" y="60.393" fill="#808080" stroke="#808080" stroke-miterlimit="10" width="2.772" height="2.773"/>
	<polygon fill="#2A2A29" points="188.733,59.37 187.709,60.393 187.709,63.167 188.733,64.189 	"/>
	<polygon fill="#474747" points="188.733,64.189 187.706,63.167 184.935,63.167 183.913,64.189 	"/>
	<polygon fill="#595959" points="183.913,64.188 184.935,63.167 184.935,60.392 183.913,59.37 	"/>
	<polygon fill="#373737" points="183.913,59.368 184.937,60.392 187.709,60.392 188.733,59.368 	"/>
	<rect x="48.16" y="82.052" fill="#808080" stroke="#808080" stroke-miterlimit="10" width="2.771" height="2.771"/>
	<polygon fill="#2A2A29" points="51.955,81.029 50.934,82.05 50.934,84.826 51.955,85.847 	"/>
	<polygon fill="#474747" points="51.955,85.848 50.93,84.826 48.158,84.826 47.137,85.848 	"/>
	<polygon fill="#595959" points="47.137,85.847 48.158,84.826 48.158,82.05 47.137,81.029 	"/>
	<polygon fill="#373737" points="47.137,81.029 48.16,82.05 50.934,82.05 51.955,81.029 	"/>
	<rect x="48.16" y="60.455" fill="#808080" stroke="#808080" stroke-miterlimit="10" width="2.771" height="2.773"/>
	<polygon fill="#2A2A29" points="51.955,59.429 50.934,60.453 50.934,63.226 51.955,64.249 	"/>
	<polygon fill="#474747" points="51.955,64.25 50.93,63.226 48.158,63.226 47.137,64.25 	"/>
	<polygon fill="#595959" points="47.137,64.249 48.158,63.226 48.158,60.453 47.137,59.429 	"/>
	<polygon fill="#373737" points="47.137,59.429 48.16,60.453 50.934,60.453 51.955,59.429 	"/>
	<rect x="48.16" y="53.254" fill="#808080" stroke="#808080" stroke-miterlimit="10" width="2.771" height="2.773"/>
	<polygon fill="#2A2A29" points="51.955,52.23 50.934,53.254 50.934,56.027 51.955,57.049 	"/>
	<polygon fill="#474747" points="51.955,57.05 50.93,56.027 48.158,56.027 47.137,57.05 	"/>
	<polygon fill="#595959" points="47.137,57.049 48.158,56.027 48.158,53.254 47.137,52.23 	"/>
	<polygon fill="#373737" points="47.137,52.23 48.16,53.254 50.934,53.254 51.955,52.23 	"/>
	<rect x="48.16" y="74.854" fill="#808080" stroke="#808080" stroke-miterlimit="10" width="2.771" height="2.774"/>
	<polygon fill="#2A2A29" points="51.955,73.831 50.934,74.852 50.934,77.627 51.955,78.648 	"/>
	<polygon fill="#474747" points="51.955,78.65 50.93,77.627 48.158,77.627 47.137,78.65 	"/>
	<polygon fill="#595959" points="47.137,78.648 48.158,77.627 48.158,74.852 47.137,73.831 	"/>
	<polygon fill="#373737" points="47.137,73.831 48.16,74.852 50.934,74.852 51.955,73.831 	"/>
	<rect x="48.16" y="67.655" fill="#808080" stroke="#808080" stroke-miterlimit="10" width="2.771" height="2.774"/>
	<polygon fill="#2A2A29" points="51.955,66.63 50.934,67.654 50.934,70.427 51.955,71.45 	"/>
	<polygon fill="#474747" points="51.955,71.451 50.93,70.427 48.158,70.427 47.137,71.451 	"/>
	<polygon fill="#595959" points="47.137,71.45 48.158,70.427 48.158,67.654 47.137,66.63 	"/>
	<polygon fill="#373737" points="47.137,66.63 48.16,67.654 50.934,67.654 51.955,66.63 	"/>
	<rect x="48.16" y="89.23" fill="#808080" stroke="#808080" stroke-miterlimit="10" width="2.771" height="2.771"/>
	<polygon fill="#2A2A29" points="51.955,88.208 50.934,89.229 50.934,92.002 51.955,93.025 	"/>
	<polygon fill="#474747" points="51.955,93.027 50.93,92.002 48.158,92.002 47.137,93.027 	"/>
	<polygon fill="#595959" points="47.137,93.025 48.158,92.002 48.158,89.227 47.137,88.208 	"/>
	<polygon fill="#373737" points="47.137,88.208 48.16,89.227 50.934,89.227 51.955,88.208 	"/>
	<rect x="48.16" y="96.408" fill="#808080" stroke="#808080" stroke-miterlimit="10" width="2.771" height="2.774"/>
	<polygon fill="#2A2A29" points="51.955,95.384 50.934,96.406 50.934,99.182 51.955,100.204 	"/>
	<polygon fill="#474747" points="51.955,100.204 50.93,99.182 48.158,99.182 47.137,100.204 	"/>
	<polygon fill="#595959" points="47.137,100.204 48.158,99.182 48.158,96.406 47.137,95.384 	"/>
	<polygon fill="#373737" points="47.137,95.384 48.16,96.406 50.934,96.406 51.955,95.384 	"/>
	<rect x="48.16" y="103.584" fill="#808080" stroke="#808080" stroke-miterlimit="10" width="2.771" height="2.772"/>
	<polygon fill="#2A2A29" points="51.955,102.56 50.934,103.584 50.934,106.359 51.955,107.38 	"/>
	<polygon fill="#474747" points="51.955,107.38 50.93,106.359 48.158,106.359 47.137,107.38 	"/>
	<polygon fill="#595959" points="47.137,107.38 48.158,106.357 48.158,103.584 47.137,102.56 	"/>
	<polygon fill="#373737" points="47.137,102.56 48.16,103.584 50.934,103.584 51.955,102.56 	"/>
	<rect x="48.16" y="118.046" fill="#808080" stroke="#808080" stroke-miterlimit="10" width="2.771" height="2.771"/>
	<polygon fill="#2A2A29" points="51.955,117.024 50.934,118.045 50.934,120.82 51.955,121.841 	"/>
	<polygon fill="#474747" points="51.955,121.843 50.93,120.82 48.158,120.82 47.137,121.843 	"/>
	<polygon fill="#595959" points="47.137,121.841 48.158,120.819 48.158,118.045 47.137,117.024 	"/>
	<polygon fill="#373737" points="47.137,117.024 48.16,118.045 50.934,118.045 51.955,117.024 	"/>
	<rect x="48.16" y="125.224" fill="#808080" stroke="#808080" stroke-miterlimit="10" width="2.771" height="2.773"/>
	<polygon fill="#2A2A29" points="51.955,124.204 50.934,125.224 50.934,127.999 51.955,129.021 	"/>
	<polygon fill="#474747" points="51.955,129.021 50.93,127.999 48.158,127.999 47.137,129.021 	"/>
	<polygon fill="#595959" points="47.137,129.019 48.158,127.997 48.158,125.222 47.137,124.204 	"/>
	<polygon fill="#373737" points="47.137,124.2 48.16,125.222 50.934,125.222 51.955,124.2 	"/>
	<rect x="48.16" y="132.402" fill="#808080" stroke="#808080" stroke-miterlimit="10" width="2.771" height="2.773"/>
	<polygon fill="#2A2A29" points="51.955,131.377 50.934,132.401 50.934,135.173 51.955,136.197 	"/>
	<polygon fill="#474747" points="51.955,136.197 50.93,135.173 48.158,135.173 47.137,136.197 	"/>
	<polygon fill="#595959" points="47.137,136.197 48.158,135.173 48.158,132.401 47.137,131.377 	"/>
	<polygon fill="#373737" points="47.137,131.377 48.16,132.401 50.934,132.401 51.955,131.377 	"/>
	<rect x="48.16" y="139.581" fill="#808080" stroke="#808080" stroke-miterlimit="10" width="2.771" height="2.771"/>
	<polygon fill="#2A2A29" points="51.955,138.556 50.934,139.579 50.934,142.353 51.955,143.375 	"/>
	<polygon fill="#474747" points="51.955,143.375 50.93,142.353 48.158,142.353 47.137,143.375 	"/>
	<polygon fill="#595959" points="47.137,143.375 48.158,142.352 48.158,139.579 47.137,138.556 	"/>
	<polygon fill="#373737" points="47.137,138.556 48.16,139.579 50.934,139.579 51.955,138.556 	"/>
	<rect x="48.16" y="146.755" fill="#808080" stroke="#808080" stroke-miterlimit="10" width="2.771" height="2.771"/>
	<polygon fill="#2A2A29" points="51.955,145.732 50.934,146.755 50.934,149.53 51.955,150.55 	"/>
	<polygon fill="#474747" points="51.955,150.552 50.93,149.53 48.158,149.53 47.137,150.552 	"/>
	<polygon fill="#595959" points="47.137,150.55 48.158,149.528 48.158,146.755 47.137,145.732 	"/>
	<polygon fill="#373737" points="47.137,145.732 48.16,146.755 50.934,146.755 51.955,145.732 	"/>
	<rect x="48.16" y="153.934" fill="#808080" stroke="#808080" stroke-miterlimit="10" width="2.771" height="2.771"/>
	<polygon fill="#2A2A29" points="51.955,152.911 50.934,153.931 50.934,156.708 51.955,157.728 	"/>
	<polygon fill="#474747" points="51.955,157.73 50.93,156.708 48.158,156.708 47.137,157.73 	"/>
	<polygon fill="#595959" points="47.137,157.728 48.158,156.706 48.158,153.931 47.137,152.911 	"/>
	<polygon fill="#373737" points="47.137,152.911 48.16,153.931 50.934,153.931 51.955,152.911 	"/>
	<rect x="184.937" y="67.571" fill="#808080" stroke="#808080" stroke-miterlimit="10" width="2.772" height="2.772"/>
	<polygon fill="#2A2A29" points="188.733,66.547 187.709,67.57 187.709,70.344 188.733,71.366 	"/>
	<polygon fill="#474747" points="188.733,71.366 187.706,70.344 184.935,70.344 183.913,71.366 	"/>
	<polygon fill="#595959" points="183.913,71.366 184.935,70.342 184.935,67.57 183.913,66.547 	"/>
	<polygon fill="#373737" points="183.913,66.546 184.937,67.57 187.709,67.57 188.733,66.546 	"/>
	<rect x="184.937" y="74.749" fill="#808080" stroke="#808080" stroke-miterlimit="10" width="2.772" height="2.771"/>
	<polygon fill="#2A2A29" points="188.733,73.726 187.709,74.749 187.709,77.521 188.733,78.543 	"/>
	<polygon fill="#474747" points="188.733,78.543 187.706,77.521 184.935,77.521 183.913,78.543 	"/>
	<polygon fill="#595959" points="183.913,78.543 184.935,77.52 184.935,74.747 183.913,73.726 	"/>
	<polygon fill="#373737" points="183.913,73.725 184.937,74.747 187.709,74.747 188.733,73.725 	"/>
	<rect x="184.937" y="81.925" fill="#808080" stroke="#808080" stroke-miterlimit="10" width="2.772" height="2.772"/>
	<polygon fill="#2A2A29" points="188.733,80.904 187.709,81.923 187.709,84.7 188.733,85.722 	"/>
	<polygon fill="#474747" points="188.733,85.722 187.706,84.7 184.935,84.7 183.913,85.722 	"/>
	<polygon fill="#595959" points="183.913,85.72 184.935,84.699 184.935,81.923 183.913,80.904 	"/>
	<polygon fill="#373737" points="183.913,80.902 184.937,81.923 187.709,81.923 188.733,80.902 	"/>
	<rect x="184.937" y="89.104" fill="#808080" stroke="#808080" stroke-miterlimit="10" width="2.772" height="2.772"/>
	<polygon fill="#2A2A29" points="188.733,88.081 187.709,89.102 187.709,91.877 188.733,92.899 	"/>
	<polygon fill="#474747" points="188.733,92.899 187.706,91.877 184.935,91.877 183.913,92.899 	"/>
	<polygon fill="#595959" points="183.913,92.898 184.935,91.875 184.935,89.102 183.913,88.081 	"/>
	<polygon fill="#373737" points="183.913,88.079 184.937,89.102 187.709,89.102 188.733,88.079 	"/>
	<rect x="184.937" y="103.65" fill="#808080" stroke="#808080" stroke-miterlimit="10" width="2.772" height="2.771"/>
	<polygon fill="#2A2A29" points="188.733,102.625 187.709,103.647 187.709,106.421 188.733,107.444 	"/>
	<polygon fill="#474747" points="188.733,107.444 187.706,106.421 184.935,106.421 183.913,107.444 	"/>
	<polygon fill="#595959" points="183.913,107.444 184.935,106.421 184.935,103.647 183.913,102.625 	"/>
	<polygon fill="#373737" points="183.913,102.625 184.937,103.647 187.709,103.647 188.733,102.625 	"/>
	<rect x="184.937" y="110.829" fill="#808080" stroke="#808080" stroke-miterlimit="10" width="2.772" height="2.771"/>
	<polygon fill="#2A2A29" points="188.733,109.802 187.709,110.829 187.709,113.6 188.733,114.622 	"/>
	<polygon fill="#474747" points="188.733,114.624 187.706,113.6 184.935,113.6 183.913,114.624 	"/>
	<polygon fill="#595959" points="183.913,114.622 184.935,113.6 184.935,110.826 183.913,109.802 	"/>
	<polygon fill="#373737" points="183.913,109.802 184.937,110.826 187.709,110.826 188.733,109.802 	"/>
	<rect x="184.937" y="118.004" fill="#808080" stroke="#808080" stroke-miterlimit="10" width="2.772" height="2.771"/>
	<polygon fill="#2A2A29" points="188.733,116.981 187.709,118.004 187.709,120.777 188.733,121.8 	"/>
	<polygon fill="#474747" points="188.733,121.8 187.706,120.777 184.935,120.777 183.913,121.8 	"/>
	<polygon fill="#595959" points="183.913,121.798 184.935,120.777 184.935,118.002 183.913,116.981 	"/>
	<polygon fill="#373737" points="183.913,116.98 184.937,118.002 187.709,118.002 188.733,116.98 	"/>
	<rect x="184.937" y="125.182" fill="#808080" stroke="#808080" stroke-miterlimit="10" width="2.772" height="2.772"/>
	<polygon fill="#2A2A29" points="188.733,124.159 187.709,125.179 187.709,127.956 188.733,128.977 	"/>
	<polygon fill="#474747" points="188.733,128.977 187.706,127.956 184.935,127.956 183.913,128.977 	"/>
	<polygon fill="#595959" points="183.913,128.977 184.935,127.954 184.935,125.179 183.913,124.159 	"/>
	<polygon fill="#373737" points="183.913,124.159 184.937,125.179 187.709,125.179 188.733,124.159 	"/>
	<rect x="184.937" y="132.359" fill="#808080" stroke="#808080" stroke-miterlimit="10" width="2.772" height="2.773"/>
	<polygon fill="#2A2A29" points="188.733,131.336 187.709,132.358 187.709,135.132 188.733,136.154 	"/>
	<polygon fill="#474747" points="188.733,136.154 187.706,135.132 184.935,135.132 183.913,136.154 	"/>
	<polygon fill="#595959" points="183.913,136.154 184.935,135.132 184.935,132.358 183.913,131.336 	"/>
	<polygon fill="#373737" points="183.913,131.336 184.937,132.358 187.709,132.358 188.733,131.336 	"/>
	<rect x="184.937" y="139.538" fill="#808080" stroke="#808080" stroke-miterlimit="10" width="2.772" height="2.771"/>
	<polygon fill="#2A2A29" points="188.733,138.513 187.709,139.538 187.709,142.309 188.733,143.333 	"/>
	<polygon fill="#474747" points="188.733,143.333 187.706,142.309 184.935,142.309 183.913,143.333 	"/>
	<polygon fill="#595959" points="183.913,143.333 184.935,142.309 184.935,139.538 183.913,138.513 	"/>
	<polygon fill="#373737" points="183.913,138.511 184.937,139.538 187.709,139.538 188.733,138.511 	"/>
	<rect x="184.937" y="146.714" fill="#808080" stroke="#808080" stroke-miterlimit="10" width="2.772" height="2.771"/>
	<polygon fill="#2A2A29" points="188.733,145.692 187.709,146.714 187.709,149.487 188.733,150.509 	"/>
	<polygon fill="#474747" points="188.733,150.511 187.706,149.487 184.935,149.487 183.913,150.511 	"/>
	<polygon fill="#595959" points="183.913,150.509 184.935,149.487 184.935,146.712 183.913,145.692 	"/>
	<polygon fill="#373737" points="183.913,145.688 184.937,146.712 187.709,146.712 188.733,145.688 	"/>
	<rect x="184.937" y="153.892" fill="#808080" stroke="#808080" stroke-miterlimit="10" width="2.772" height="2.773"/>
	<polygon fill="#2A2A29" points="188.733,152.87 187.709,153.891 187.709,156.667 188.733,157.688 	"/>
	<polygon fill="#474747" points="188.733,157.688 187.706,156.667 184.935,156.667 183.913,157.688 	"/>
	<polygon fill="#595959" points="183.913,157.686 184.935,156.665 184.935,153.891 183.913,152.87 	"/>
	<polygon fill="#373737" points="183.913,152.87 184.937,153.891 187.709,153.891 188.733,152.87 	"/>
	<desc>Fritzing breadboard generated by brd2svg</desc>
	<text transform="matrix(1 0 0 1 149.2034 -11.6284)" fill="#FFFFFF" font-family="'OCRA'" font-size="6">S-V-G</text>
	<text transform="matrix(0 1 -1 0 92.053 36.0928)" fill="#FFFFFF" font-family="'OCRA'" font-size="6">ANALOG</text>
	<text transform="matrix(0 1 -1 0 135.0432 53.5234)" fill="#FFFFFF" font-family="'OCRA'" font-size="6">DIGITAL</text>
	<text transform="matrix(1 0 0 1 62.3674 -11.6284)" fill="#FFFFFF" font-family="'OCRA'" font-size="6">S-V-G</text>
	<path fill="none" stroke="#FFFFFF" stroke-width="1.4173" d="M87.265,48.753l0-53.858c0-1.565-1.27-2.835-2.834-2.835H61.754
		c-1.565,0-2.835,1.27-2.835,2.835l0,53.858c0,0.073,0.016,0.141,0.021,0.212c-0.005,0.07-0.021,0.136-0.021,0.208l0,53.859
		c0,1.564,1.27,2.834,2.835,2.834h22.678c1.564,0,2.834-1.27,2.834-2.834l0-53.859c0-0.073-0.016-0.141-0.021-0.212
		C87.25,48.891,87.265,48.824,87.265,48.753z"/>
	<path fill="none" stroke="#FFFFFF" stroke-width="1.4173" d="M171.268-7.94H148.59c-1.564,0-2.834,1.27-2.834,2.835l-0.001,53.858
		c0,0.002,0.001,0.004,0.001,0.007l-0.001,39.144c0,0.001,0,0.002,0,0.003v15.125c0,0.002,0.001,0.005,0.001,0.007l-0.001,39.145
		c0,1.564,1.27,2.834,2.835,2.834h22.678c1.564,0,2.834-1.27,2.834-2.834v-39.151V88.324v-0.42V49.173v-0.42V34.046V-5.105
		C174.102-6.671,172.832-7.94,171.268-7.94z"/>
	<path fill="none" stroke="#FFFFFF" stroke-width="1.4173" d="M127.85-7.94h-22.678c-1.564,0-2.834,1.27-2.834,2.835l-0.001,53.858
		c0,0.002,0.001,0.004,0.001,0.007l-0.001,39.144c0,0.001,0,0.002,0,0.003v15.125c0,0.002,0.001,0.005,0.001,0.007l-0.001,39.145
		c0,1.564,1.27,2.834,2.835,2.834h22.678c1.564,0,2.834-1.27,2.834-2.834v-39.151V88.324v-0.42V49.173v-0.42V34.046V-5.105
		C130.684-6.671,129.414-7.94,127.85-7.94z"/>
	<text transform="matrix(1 0 0 1 105.7854 -11.6284)" fill="#FFFFFF" font-family="'OCRA'" font-size="6">S-V-G</text>
	<g>
		<text transform="matrix(1 0 0 1 64.0769 128.5161)" fill="#FFFFFF" font-family="'OCRA'" font-size="12">R</text>
		<text transform="matrix(1 0 0 1 71.5769 122.4302)" fill="#FFFFFF" font-family="'OCRA'" font-size="5">obot</text>
		<text transform="matrix(1 0 0 1 71.5769 128.4302)" fill="#FFFFFF" font-family="'OCRA'" font-size="5">Geek</text>
	</g>
	<text transform="matrix(1 0 0 1 62.1072 136.0161)" fill="#FFFFFF" font-family="'OCRA'" font-size="6">Sensor</text>
	<text transform="matrix(1 0 0 1 62.1072 143.2163)" fill="#FFFFFF" font-family="'OCRA'" font-size="6">Shield</text>
	<rect x="62.367" y="117.491" fill="none" stroke="#FFFFFF" width="24.898" height="12.775"/>
	<rect x="60.092" y="130.266" fill="none" stroke="#FFFFFF" width="29.96" height="14.751"/>
	<text transform="matrix(1 0 0 1 151.0061 154.9204)" fill="#FFFFFF" font-family="'OCRA'" font-size="9">PWM</text>
	<line fill="none" stroke="#FFFFFF" x1="145.755" y1="72.445" x2="174.102" y2="72.445"/>
	<rect x="152.26" y="69.516" fill="#231F20" width="5.582" height="8.5"/>
	<rect x="163.26" y="69.516" fill="#231F20" width="5.582" height="8.5"/>
	<text transform="matrix(0 1 -1 0 163.9612 67.4629)" fill="#FFFFFF" font-family="'OCRA'" font-size="4">VIN</text>
	<text transform="matrix(0 1 -1 0 152.8186 69.251)" fill="#FFFFFF" font-family="'OCRA'" font-size="4">5V</text>
	<polygon fill="#404040" points="84.006,4.755 84.006,0.821 82.496,-0.687 78.564,-0.687 75.223,-0.687 74.899,-0.687 
		74.897,-0.688 70.964,-0.688 67.623,-0.688 63.69,-0.688 62.179,0.819 62.179,4.753 63.69,6.263 67.623,6.263 70.964,6.263 
		71.287,6.263 71.289,6.265 75.223,6.265 78.564,6.265 82.496,6.265 	"/>
	<text transform="matrix(1 0 0 1 62.3669 -1.8159)" fill="#FFFFFF" font-family="'OCRA'" font-size="6">AIO-0</text>
	<polygon fill="#404040" points="84.006,102.734 84.006,98.8 82.496,97.292 78.564,97.292 75.223,97.292 74.899,97.292 
		74.897,97.291 70.964,97.291 67.623,97.291 63.69,97.291 62.179,98.798 62.179,102.732 63.69,104.242 67.623,104.242 
		70.964,104.242 71.287,104.242 71.289,104.244 75.223,104.244 78.564,104.244 82.496,104.244 	"/>
	<text transform="matrix(1 0 0 1 62.3674 96.1636)" fill="#FFFFFF" font-family="'OCRA'" font-size="6">AIO-5</text>
	<polygon fill="#404040" points="84.006,83.138 84.006,79.205 82.496,77.697 78.564,77.697 75.223,77.697 74.899,77.697 
		74.897,77.695 70.964,77.695 67.623,77.695 63.69,77.695 62.179,79.203 62.179,83.136 63.69,84.646 67.623,84.646 70.964,84.646 
		71.287,84.646 71.289,84.648 75.223,84.648 78.564,84.648 82.496,84.648 	"/>
	<text transform="matrix(1 0 0 1 62.3674 76.5679)" fill="#FFFFFF" font-family="'OCRA'" font-size="6">AIO-4</text>
	<polygon fill="#404040" points="84.006,63.542 84.006,59.608 82.496,58.101 78.564,58.101 75.223,58.101 74.899,58.101 
		74.897,58.099 70.964,58.099 67.623,58.099 63.69,58.099 62.179,59.606 62.179,63.54 63.69,65.05 67.623,65.05 70.964,65.05 
		71.287,65.05 71.289,65.052 75.223,65.052 78.564,65.052 82.496,65.052 	"/>
	<text transform="matrix(1 0 0 1 62.3669 56.9722)" fill="#FFFFFF" font-family="'OCRA'" font-size="6">AIO-3</text>
	<polygon fill="#404040" points="84.006,24.351 84.006,20.417 82.496,18.909 78.564,18.909 75.223,18.909 74.899,18.909 
		74.897,18.907 70.964,18.907 67.623,18.907 63.69,18.907 62.179,20.415 62.179,24.349 63.69,25.858 67.623,25.858 70.964,25.858 
		71.287,25.858 71.289,25.86 75.223,25.86 78.564,25.86 82.496,25.86 	"/>
	<text transform="matrix(1 0 0 1 62.3669 17.7808)" fill="#FFFFFF" font-family="'OCRA'" font-size="6">AIO-1</text>
	<polygon fill="#404040" points="84.006,43.946 84.006,40.013 82.496,38.505 78.564,38.505 75.223,38.505 74.899,38.505 
		74.897,38.503 70.964,38.503 67.623,38.503 63.69,38.503 62.179,40.011 62.179,43.944 63.69,45.454 67.623,45.454 70.964,45.454 
		71.287,45.454 71.289,45.456 75.223,45.456 78.564,45.456 82.496,45.456 	"/>
	<text transform="matrix(1 0 0 1 62.3674 37.3755)" fill="#FFFFFF" font-family="'OCRA'" font-size="6">AIO-2</text>
	<polygon fill="#404040" points="127.424,5.409 127.424,1.476 125.914,-0.032 121.982,-0.032 118.641,-0.032 118.317,-0.032 
		118.315,-0.034 114.382,-0.034 111.041,-0.034 107.108,-0.034 105.597,1.474 105.597,5.407 107.108,6.917 111.041,6.917 
		114.382,6.917 114.705,6.917 114.707,6.919 118.641,6.919 121.982,6.919 125.914,6.919 	"/>
	<text transform="matrix(1 0 0 1 105.7849 -1.1616)" fill="#FFFFFF" font-family="'OCRA'" font-size="6">DIO-0</text>
	<polygon fill="#404040" points="127.424,103.388 127.424,99.455 125.914,97.947 121.982,97.947 118.641,97.947 118.317,97.947 
		118.315,97.945 114.382,97.945 111.041,97.945 107.108,97.945 105.597,99.453 105.597,103.386 107.108,104.896 111.041,104.896 
		114.382,104.896 114.705,104.896 114.707,104.898 118.641,104.898 121.982,104.898 125.914,104.898 	"/>
	<text transform="matrix(1 0 0 1 105.7854 96.8179)" fill="#FFFFFF" font-family="'OCRA'" font-size="6">DIO-8</text>
	<polygon fill="#404040" points="127.424,83.792 127.424,79.859 125.914,78.351 121.982,78.351 118.641,78.351 118.317,78.351 
		118.315,78.349 114.382,78.349 111.041,78.349 107.108,78.349 105.597,79.857 105.597,83.791 107.108,85.3 111.041,85.3 
		114.382,85.3 114.705,85.3 114.707,85.302 118.641,85.302 121.982,85.302 125.914,85.302 	"/>
	<text transform="matrix(1 0 0 1 105.7854 77.2222)" fill="#FFFFFF" font-family="'OCRA'" font-size="6">DIO-7</text>
	<polygon fill="#404040" points="127.424,64.196 127.424,60.262 125.914,58.754 121.982,58.754 118.641,58.754 118.317,58.754 
		118.315,58.752 114.382,58.752 111.041,58.752 107.108,58.752 105.597,60.26 105.597,64.194 107.108,65.704 111.041,65.704 
		114.382,65.704 114.705,65.704 114.707,65.706 118.641,65.706 121.982,65.706 125.914,65.706 	"/>
	<text transform="matrix(1 0 0 1 105.7849 57.6265)" fill="#FFFFFF" font-family="'OCRA'" font-size="6">DIO-4</text>
	<polygon fill="#404040" points="127.424,25.005 127.424,21.071 125.914,19.563 121.982,19.563 118.641,19.563 118.317,19.563 
		118.315,19.562 114.382,19.562 111.041,19.562 107.108,19.562 105.597,21.069 105.597,25.003 107.108,26.513 111.041,26.513 
		114.382,26.513 114.705,26.513 114.707,26.515 118.641,26.515 121.982,26.515 125.914,26.515 	"/>
	<text transform="matrix(1 0 0 1 105.7849 18.4351)" fill="#FFFFFF" font-family="'OCRA'" font-size="6">DIO-1</text>
	<polygon fill="#404040" points="127.424,44.6 127.424,40.667 125.914,39.159 121.982,39.159 118.641,39.159 118.317,39.159 
		118.315,39.157 114.382,39.157 111.041,39.157 107.108,39.157 105.597,40.665 105.597,44.598 107.108,46.108 111.041,46.108 
		114.382,46.108 114.705,46.108 114.707,46.11 118.641,46.11 121.982,46.11 125.914,46.11 	"/>
	<text transform="matrix(1 0 0 1 105.7854 38.0298)" fill="#FFFFFF" font-family="'OCRA'" font-size="6">DIO-2</text>
	<polygon fill="#404040" points="127.424,141.58 127.424,137.646 125.914,136.138 121.982,136.138 118.641,136.138 118.317,136.138 
		118.315,136.136 114.382,136.136 111.041,136.136 107.108,136.136 105.597,137.644 105.597,141.578 107.108,143.087 
		111.041,143.087 114.382,143.087 114.705,143.087 114.707,143.089 118.641,143.089 121.982,143.089 125.914,143.089 	"/>
	<text transform="matrix(1 0 0 1 103.7854 135.0093)" fill="#FFFFFF" font-family="'OCRA'" font-size="6">DIO-13</text>
	<polygon fill="#404040" points="127.424,122.984 127.424,119.05 125.914,117.542 121.982,117.542 118.641,117.542 118.317,117.542 
		118.315,117.541 114.382,117.541 111.041,117.541 107.108,117.541 105.597,119.048 105.597,122.982 107.108,124.492 
		111.041,124.492 114.382,124.492 114.705,124.492 114.707,124.494 118.641,124.494 121.982,124.494 125.914,124.494 	"/>
	<text transform="matrix(1 0 0 1 103.7854 116.4136)" fill="#FFFFFF" font-family="'OCRA'" font-size="6">DIO-12</text>
	<polygon fill="#404040" points="170.698,5.592 170.698,1.658 169.188,0.15 165.255,0.15 161.914,0.15 161.59,0.15 161.588,0.148 
		157.656,0.148 154.315,0.148 150.381,0.148 148.87,1.656 148.87,5.59 150.381,7.1 154.315,7.1 157.656,7.1 157.979,7.1 
		157.981,7.102 161.914,7.102 165.255,7.102 169.188,7.102 	"/>
	<text transform="matrix(1 0 0 1 149.0588 -0.979)" fill="#FFFFFF" font-family="'OCRA'" font-size="6">DIO-3</text>
	<polygon fill="#404040" points="170.698,103.571 170.698,99.637 169.188,98.129 165.255,98.129 161.914,98.129 161.59,98.129 
		161.588,98.127 157.656,98.127 154.315,98.127 150.381,98.127 148.87,99.635 148.87,103.569 150.381,105.079 154.315,105.079 
		157.656,105.079 157.979,105.079 157.981,105.081 161.914,105.081 165.255,105.081 169.188,105.081 	"/>
	<text transform="matrix(1 0 0 1 149.0588 97.0005)" fill="#FFFFFF" font-family="'OCRA'" font-size="6">DIO-9</text>
	<polygon fill="#404040" points="170.698,83.975 170.698,80.042 169.188,78.534 165.255,78.534 161.914,78.534 161.59,78.534 
		161.588,78.532 157.656,78.532 154.315,78.532 150.381,78.532 148.87,80.04 148.87,83.973 150.381,85.483 154.315,85.483 
		157.656,85.483 157.979,85.483 157.981,85.485 161.914,85.485 165.255,85.485 169.188,85.485 	"/>
	<polygon fill="#404040" points="170.698,64.378 170.698,60.445 169.188,58.937 165.255,58.937 161.914,58.937 161.59,58.937 
		161.588,58.935 157.656,58.935 154.315,58.935 150.381,58.935 148.87,60.443 148.87,64.376 150.381,65.886 154.315,65.886 
		157.656,65.886 157.979,65.886 157.981,65.888 161.914,65.888 165.255,65.888 169.188,65.888 	"/>
	<polygon fill="#404040" points="170.698,25.188 170.698,21.254 169.188,19.746 165.255,19.746 161.914,19.746 161.59,19.746 
		161.588,19.744 157.656,19.744 154.315,19.744 150.381,19.744 148.87,21.252 148.87,25.186 150.381,26.695 154.315,26.695 
		157.656,26.695 157.979,26.695 157.981,26.697 161.914,26.697 165.255,26.697 169.188,26.697 	"/>
	<text transform="matrix(1 0 0 1 149.0588 18.6177)" fill="#FFFFFF" font-family="'OCRA'" font-size="6">DIO-5</text>
	<polygon fill="#404040" points="170.698,44.783 170.698,40.849 169.188,39.341 165.255,39.341 161.914,39.341 161.59,39.341 
		161.588,39.339 157.656,39.339 154.315,39.339 150.381,39.339 148.87,40.847 148.87,44.781 150.381,46.291 154.315,46.291 
		157.656,46.291 157.979,46.291 157.981,46.292 161.914,46.292 165.255,46.292 169.188,46.292 	"/>
	<text transform="matrix(1 0 0 1 149.0588 38.2124)" fill="#FFFFFF" font-family="'OCRA'" font-size="6">DIO-6</text>
	<polygon fill="#404040" points="170.698,141.762 170.698,137.829 169.188,136.321 165.255,136.321 161.914,136.321 161.59,136.321 
		161.588,136.319 157.656,136.319 154.315,136.319 150.381,136.319 148.87,137.827 148.87,141.76 150.381,143.27 154.315,143.27 
		157.656,143.27 157.979,143.27 157.981,143.272 161.914,143.272 165.255,143.272 169.188,143.272 	"/>
	<text transform="matrix(1 0 0 1 147.0588 135.1919)" fill="#FFFFFF" font-family="'OCRA'" font-size="6">DIO-11</text>
	<polygon fill="#404040" points="170.698,123.167 170.698,119.233 169.188,117.725 165.255,117.725 161.914,117.725 161.59,117.725 
		161.588,117.723 157.656,117.723 154.315,117.723 150.381,117.723 148.87,119.231 148.87,123.165 150.381,124.674 154.315,124.674 
		157.656,124.674 157.979,124.674 157.981,124.676 161.914,124.676 165.255,124.676 169.188,124.676 	"/>
	<text transform="matrix(1 0 0 1 147.0588 116.5962)" fill="#FFFFFF" font-family="'OCRA'" font-size="6">DIO-10</text>
	<polygon fill="#404040" points="104.138,154.256 100.206,154.256 96.939,154.256 96.938,154.255 96.54,154.255 96.539,154.254 
		92.606,154.254 89.34,154.254 89.339,154.253 85.406,154.253 82.065,154.253 78.132,154.253 76.621,155.761 76.621,159.695 
		78.132,161.205 82.065,161.205 85.331,161.205 85.332,161.206 85.73,161.206 85.731,161.207 89.665,161.207 92.93,161.207 
		92.931,161.208 96.865,161.208 100.206,161.208 104.138,161.208 105.648,159.698 105.648,155.764 	"/>
	<polygon fill="#404040" points="136.139,154.256 132.205,154.256 128.94,154.256 128.938,154.255 128.539,154.255 128.539,154.254 
		124.606,154.254 121.34,154.254 121.338,154.253 117.406,154.253 114.065,154.253 110.131,154.253 108.621,155.761 
		108.621,159.695 110.131,161.205 114.065,161.205 117.33,161.205 117.332,161.206 117.731,161.206 117.731,161.207 
		121.664,161.207 124.93,161.207 124.932,161.208 128.865,161.208 132.205,161.208 136.139,161.208 137.649,159.698 
		137.649,155.764 	"/>
	<text transform="matrix(1 0 0 1 77.5417 153.2378)" fill="#FFFFFF" font-family="'OCRA'" font-size="2">SCL   SDA  5V    G</text>
	<text transform="matrix(1 0 0 1 109.553 153.4214)" fill="#FFFFFF" font-family="'OCRA'" font-size="2">RX-0  TX-1 5V    G</text>
	<text transform="matrix(1 0 0 1 87.9167 167.3042)" fill="#FFFFFF" font-family="'OCRA'" font-size="3">I2C</text>
	<text transform="matrix(1 0 0 1 118.844 167.3853)" fill="#FFFFFF" font-family="'OCRA'" font-size="3">UART</text>
	<polygon fill="#404040" points="52.745,46.425 52.745,42.492 52.745,39.226 52.746,39.225 52.746,38.826 52.747,38.825 
		52.747,34.893 52.747,31.626 52.748,31.625 52.748,27.692 52.748,24.352 52.748,20.418 51.24,18.907 47.307,18.907 45.797,20.418 
		45.797,24.352 45.797,27.617 45.796,27.618 45.796,28.017 45.795,28.018 45.795,31.951 45.795,35.217 45.794,35.218 45.794,39.151 
		45.794,42.492 45.794,46.425 47.304,47.935 51.238,47.935 	"/>
	<text transform="matrix(0 1 -1 0 53.7649 19.8291)" fill="#FFFFFF" font-family="'OCRA'" font-size="2"> GND  5V  3.3V   Vin</text>
	<polyline fill="none" stroke="#FFFFFF" points="90.052,-5.484 94.887,-0.65 94.887,35.432 	"/>
	<polyline fill="none" stroke="#FFFFFF" points="89.635,103.896 94.47,99.062 94.47,62.98 	"/>
	<rect x="74.335" y="150.042" fill="none" stroke="#FFFFFF" stroke-miterlimit="10" width="65.371" height="13.491"/>
	<line fill="none" stroke="#FFFFFF" stroke-miterlimit="10" x1="107.021" y1="150.042" x2="107.021" y2="163.533"/>
	<g>
		<polyline fill="none" stroke="#FFFFFF" points="132.455,143.175 137.289,138.341 137.289,102.259 		"/>
		<polyline fill="none" stroke="#FFFFFF" points="142.123,143.175 137.289,138.341 137.289,102.259 137.289,84.071 		"/>
	</g>
	<g>
		<polyline fill="none" stroke="#FFFFFF" points="142.123,-5.484 137.289,-0.65 137.289,35.432 		"/>
		<polyline fill="none" stroke="#FFFFFF" points="132.455,-5.484 137.289,-0.65 137.289,35.432 137.289,53.621 		"/>
	</g>
	<rect id="connector77pin" x="65.055" y="1.708" fill="#F4BC17" width="2.16" height="2.16"/>
	<rect id="connector76pin" x="79.454" y="1.708" fill="#F4BC17" width="2.16" height="2.16"/>
	<rect id="connector75pin" x="72.255" y="1.708" fill="#F4BC17" width="2.16" height="2.16"/>
	<rect id="connector74pin" x="65.055" y="99.687" fill="#F4BC17" width="2.16" height="2.16"/>
	<rect id="connector73pin" x="79.454" y="99.687" fill="#F4BC17" width="2.16" height="2.16"/>
	<rect id="connector72pin" x="72.255" y="99.687" fill="#F4BC17" width="2.16" height="2.16"/>
	<rect id="connector71pin" x="65.055" y="80.091" fill="#F4BC17" width="2.16" height="2.16"/>
	<rect id="connector70pin" x="79.454" y="80.091" fill="#F4BC17" width="2.16" height="2.16"/>
	<rect id="connector69pin" x="72.255" y="80.091" fill="#F4BC17" width="2.16" height="2.16"/>
	<rect id="connector68pin" x="65.055" y="60.495" fill="#F4BC17" width="2.16" height="2.16"/>
	<rect id="connector67pin" x="79.454" y="60.495" fill="#F4BC17" width="2.16" height="2.16"/>
	<rect id="connector66pin" x="72.255" y="60.495" fill="#F4BC17" width="2.16" height="2.16"/>
	<rect id="connector65pin" x="65.055" y="21.304" fill="#F4BC17" width="2.16" height="2.16"/>
	<rect id="connector64pin" x="79.454" y="21.304" fill="#F4BC17" width="2.16" height="2.16"/>
	<rect id="connector63pin" x="72.255" y="21.304" fill="#F4BC17" width="2.16" height="2.16"/>
	<rect id="connector62pin" x="65.055" y="40.876" fill="#F4BC17" width="2.16" height="1.962"/>
	<rect id="connector61pin" x="79.454" y="40.878" fill="#F4BC17" width="2.16" height="1.981"/>
	<rect id="connector60pin" x="72.255" y="40.899" fill="#F4BC17" width="2.16" height="2.16"/>
	<rect id="connector59pin" x="108.473" y="2.362" fill="#F4BC17" width="2.16" height="2.16"/>
	<rect id="connector58pin" x="122.872" y="2.362" fill="#F4BC17" width="2.16" height="2.16"/>
	<rect id="connector57pin" x="115.673" y="2.362" fill="#F4BC17" width="2.16" height="2.16"/>
	<rect id="connector56pin" x="108.473" y="100.341" fill="#F4BC17" width="2.16" height="2.16"/>
	<rect id="connector55pin" x="122.872" y="100.341" fill="#F4BC17" width="2.16" height="2.16"/>
	<rect id="connector54pin" x="115.673" y="100.341" fill="#F4BC17" width="2.16" height="2.16"/>
	<rect id="connector53pin" x="108.473" y="80.746" fill="#F4BC17" width="2.16" height="2.16"/>
	<rect id="connector52pin" x="122.872" y="80.746" fill="#F4BC17" width="2.16" height="2.16"/>
	<rect id="connector51pin" x="115.673" y="80.746" fill="#F4BC17" width="2.16" height="2.16"/>
	<rect id="connector50pin" x="108.473" y="61.135" fill="#F4BC17" width="2.16" height="2.045"/>
	<rect id="connector49pin" x="122.872" y="61.149" fill="#F4BC17" width="2.16" height="2.16"/>
	<rect id="connector48pin" x="115.673" y="61.149" fill="#F4BC17" width="2.16" height="2.16"/>
	<rect id="connector47pin" x="108.473" y="21.958" fill="#F4BC17" width="2.16" height="2.16"/>
	<rect id="connector46pin" x="122.872" y="21.958" fill="#F4BC17" width="2.16" height="2.16"/>
	<rect id="connector45pin" x="115.673" y="21.958" fill="#F4BC17" width="2.16" height="2.16"/>
	<rect id="connector44pin" x="108.473" y="41.553" fill="#F4BC17" width="2.16" height="2.16"/>
	<rect id="connector43pin" x="122.872" y="41.553" fill="#F4BC17" width="2.16" height="2.16"/>
	<rect id="connector42pin" x="115.673" y="41.553" fill="#F4BC17" width="2.16" height="2.16"/>
	<rect id="connector41pin" x="108.473" y="138.533" fill="#F4BC17" width="2.16" height="2.16"/>
	<rect id="connector40pin" x="122.872" y="138.533" fill="#F4BC17" width="2.16" height="2.16"/>
	<rect id="connector39pin_1_" x="115.673" y="138.533" fill="#F4BC17" width="2.16" height="2.16"/>
	<rect id="connector38pin" x="108.473" y="119.937" fill="#F4BC17" width="2.16" height="2.16"/>
	<rect id="connector37pin" x="122.872" y="119.937" fill="#F4BC17" width="2.16" height="2.16"/>
	<rect id="connector36pin_1_" x="115.673" y="119.937" fill="#F4BC17" width="2.16" height="2.16"/>
	<rect id="connector35pin_1_" x="151.746" y="2.545" fill="#F4BC17" width="2.16" height="2.16"/>
	<rect id="connector34pin_1_" x="166.146" y="2.545" fill="#F4BC17" width="2.16" height="2.16"/>
	<rect id="connector33pin_1_" x="158.947" y="2.545" fill="#F4BC17" width="2.16" height="2.16"/>
	<rect id="connector32pin_1_" x="151.746" y="100.524" fill="#F4BC17" width="2.16" height="2.16"/>
	<rect id="connector31pin_1_" x="166.146" y="100.524" fill="#F4BC17" width="2.16" height="2.16"/>
	<rect id="connector30pin_1_" x="158.947" y="100.524" fill="#F4BC17" width="2.16" height="2.16"/>
	<rect id="connector29pin_1_" x="151.746" y="80.928" fill="#F4BC17" width="2.16" height="2.16"/>
	<rect id="connector28pin_1_" x="166.146" y="80.928" fill="#F4BC17" width="2.16" height="2.16"/>
	<rect id="connector27pin_1_" x="158.947" y="80.928" fill="#F4BC17" width="2.16" height="2.16"/>
	<rect id="connector26pin_1_" x="151.746" y="61.332" fill="#F4BC17" width="2.16" height="2.16"/>
	<rect id="connector25pin_1_" x="166.146" y="61.332" fill="#F4BC17" width="2.16" height="2.16"/>
	<rect id="connector24pin_1_" x="158.947" y="61.302" fill="#F4BC17" width="2.16" height="1.908"/>
	<rect id="connector23pin_1_" x="151.746" y="22.141" fill="#F4BC17" width="2.16" height="2.16"/>
	<rect id="connector22pin_1_" x="166.146" y="22.141" fill="#F4BC17" width="2.16" height="2.16"/>
	<rect id="connector21pin_1_" x="158.947" y="22.141" fill="#F4BC17" width="2.16" height="2.16"/>
	<rect id="connector20pin_1_" x="151.746" y="41.957" fill="#F4BC17" width="2.16" height="1.962"/>
	<rect id="connector19pin_1_" x="166.146" y="41.736" fill="#F4BC17" width="2.16" height="2.16"/>
	<rect id="connector18pin_1_" x="158.947" y="41.736" fill="#F4BC17" width="2.16" height="2.16"/>
	<rect id="connector17pin_1_" x="151.746" y="138.715" fill="#F4BC17" width="2.16" height="2.16"/>
	<rect id="connector16pin_1_" x="166.146" y="138.715" fill="#F4BC17" width="2.16" height="2.16"/>
	<rect id="connector15pin_1_" x="158.947" y="138.715" fill="#F4BC17" width="2.16" height="2.16"/>
	<rect id="connector14pin_1_" x="151.746" y="120.12" fill="#F4BC17" width="2.16" height="2.16"/>
	<rect id="connector13pin_1_" x="166.146" y="120.12" fill="#F4BC17" width="2.16" height="2.16"/>
	<rect id="connector12pin_1_" x="158.947" y="120.12" fill="#F4BC17" width="2.16" height="2.16"/>
	<rect id="connector11pin_1_" x="79.497" y="156.65" fill="#F4BC17" width="2.16" height="2.16"/>
	<rect id="connector10pin_1_" x="93.896" y="156.65" fill="#F4BC17" width="2.16" height="2.16"/>
	<rect id="connector9pin_1_" x="86.697" y="156.65" fill="#F4BC17" width="2.16" height="2.16"/>
	<rect id="connector8pin_1_" x="101.096" y="156.65" fill="#F4BC17" width="2.16" height="2.16"/>
	<rect id="connector7pin_1_" x="111.496" y="156.65" fill="#F4BC17" width="2.16" height="2.16"/>
	<rect id="connector6pin_1_" x="125.897" y="156.65" fill="#F4BC17" width="2.16" height="2.16"/>
	<rect id="connector5pin_1_" x="118.698" y="156.65" fill="#F4BC17" width="2.16" height="2.16"/>
	<rect id="connector4pin_1_" x="133.096" y="156.65" fill="#F4BC17" width="2.16" height="2.16"/>
	<rect id="connector3pin_1_" x="48.192" y="21.783" fill="#F4BC17" width="2.16" height="2.16"/>
	<rect id="connector2pin_1_" x="48.192" y="36.183" fill="#F4BC17" width="2.16" height="2.16"/>
	<rect id="connector1pin_1_" x="48.192" y="28.983" fill="#F4BC17" width="2.16" height="2.16"/>
	<rect id="connector0pin_1_" x="48.192" y="43.383" fill="#F4BC17" width="2.16" height="2.16"/>
</g>
</svg>
