<?xml version="1.0" encoding="utf-8"?>
<!-- Generator: Adobe Illustrator 15.0.0, SVG Export Plug-In . SVG Version: 6.00 Build 0)  -->
<!DOCTYPE svg PUBLIC "-//W3C//DTD SVG 1.1 Basic//EN" "http://www.w3.org/Graphics/SVG/1.1/DTD/svg11-basic.dtd">
<svg version="1.1" baseProfile="basic" id="Layer_1"
	 xmlns="http://www.w3.org/2000/svg" xmlns:xlink="http://www.w3.org/1999/xlink" x="0px" y="0px" width="70.866px"
	 height="99.213px" viewBox="134.396 135.9 70.866 99.213" xml:space="preserve">
<g id="breadboard">
	<g id="icon_1_">
		<path fill="#231F20" d="M134.396,135.9v99.213h70.866V135.9H134.396z M141.482,232.278c-2.348,0-4.252-1.903-4.252-4.252
			s1.904-4.252,4.252-4.252c2.349,0,4.252,1.903,4.252,4.252S143.831,232.278,141.482,232.278z M141.482,147.238
			c-2.348,0-4.252-1.903-4.252-4.252c0-2.348,1.904-4.252,4.252-4.252c2.349,0,4.252,1.904,4.252,4.252
			C145.734,145.334,143.831,147.238,141.482,147.238z M198.176,138.734c2.348,0,4.252,1.904,4.252,4.252
			c0,2.349-1.904,4.252-4.252,4.252s-4.252-1.903-4.252-4.252C193.924,140.638,195.828,138.734,198.176,138.734z M198.177,232.278
			c-2.35,0-4.252-1.903-4.252-4.252s1.902-4.252,4.252-4.252c2.348,0,4.252,1.903,4.252,4.252S200.524,232.278,198.177,232.278z"/>
		<text transform="matrix(0 -1 1 0 196.0391 222.2612)"><tspan x="0" y="0" fill="#FFFFFF" font-family="'OCRA'" font-size="4">RobotGeek</tspan><tspan x="0" y="4.801" fill="#FFFFFF" font-family="'OCRA'" font-size="4">Push Button</tspan></text>
		<g>
			<path stroke="#FFFFFF" stroke-width="0.2835" stroke-miterlimit="10" d="M186.696,174.171c0,0.783-0.636,1.418-1.419,1.418
				H154.38c-0.782,0-1.417-0.635-1.417-1.418v-30.896c0-0.783,0.635-1.418,1.417-1.418h30.897c0.783,0,1.419,0.635,1.419,1.418
				V174.171z"/>
			<g>
				
					<rect x="155.655" y="144.55" fill="#E6E6E5" stroke="#231F20" stroke-width="0.2835" stroke-miterlimit="10" width="28.348" height="28.346"/>
				<circle stroke="#231F20" stroke-width="0.2835" stroke-miterlimit="10" cx="158.781" cy="147.773" r="2.126"/>
				<circle stroke="#231F20" stroke-width="0.2835" stroke-miterlimit="10" cx="158.781" cy="169.773" r="2.126"/>
				<circle stroke="#231F20" stroke-width="0.2835" stroke-miterlimit="10" cx="180.877" cy="169.773" r="2.126"/>
				<circle stroke="#231F20" stroke-width="0.2835" stroke-miterlimit="10" cx="180.877" cy="147.773" r="2.126"/>
			</g>
			<circle stroke="#231F20" stroke-width="0.2835" stroke-miterlimit="10" cx="169.83" cy="158.723" r="9.921"/>
		</g>
		<text transform="matrix(1 0 0 1 160.1719 195.5669)" fill="#FFFFFF" font-family="'OCRA'" font-size="7" letter-spacing="2">SVG</text>
		<text transform="matrix(1 0 0 1 165.5391 182.8999)" fill="#FFFFFF" font-family="'OCRA'" font-size="4">10K</text>
		<g>
			<title>package:1X08</title>
			
				<line fill="none" stroke="#FFFFFF" stroke-width="0.576" stroke-linecap="round" x1="167.915" y1="196.224" x2="171.515" y2="196.224"/>
			
				<line fill="none" stroke="#FFFFFF" stroke-width="0.576" stroke-linecap="round" x1="171.515" y1="196.224" x2="173.315" y2="198.023"/>
			
				<line fill="none" stroke="#FFFFFF" stroke-width="0.576" stroke-linecap="round" x1="173.315" y1="201.624" x2="171.515" y2="203.423"/>
			
				<line fill="none" stroke="#FFFFFF" stroke-width="0.576" stroke-linecap="round" x1="158.915" y1="198.023" x2="160.716" y2="196.224"/>
			
				<line fill="none" stroke="#FFFFFF" stroke-width="0.576" stroke-linecap="round" x1="160.716" y1="196.224" x2="164.315" y2="196.224"/>
			
				<line fill="none" stroke="#FFFFFF" stroke-width="0.576" stroke-linecap="round" x1="164.315" y1="196.224" x2="166.116" y2="198.023"/>
			
				<line fill="none" stroke="#FFFFFF" stroke-width="0.576" stroke-linecap="round" x1="166.116" y1="201.624" x2="164.315" y2="203.423"/>
			
				<line fill="none" stroke="#FFFFFF" stroke-width="0.576" stroke-linecap="round" x1="164.315" y1="203.423" x2="160.716" y2="203.423"/>
			
				<line fill="none" stroke="#FFFFFF" stroke-width="0.576" stroke-linecap="round" x1="160.716" y1="203.423" x2="158.915" y2="201.624"/>
			
				<line fill="none" stroke="#FFFFFF" stroke-width="0.576" stroke-linecap="round" x1="167.915" y1="196.224" x2="166.116" y2="198.023"/>
			
				<line fill="none" stroke="#FFFFFF" stroke-width="0.576" stroke-linecap="round" x1="166.116" y1="201.624" x2="167.915" y2="203.423"/>
			
				<line fill="none" stroke="#FFFFFF" stroke-width="0.576" stroke-linecap="round" x1="171.515" y1="203.423" x2="167.915" y2="203.423"/>
			
				<line fill="none" stroke="#FFFFFF" stroke-width="0.576" stroke-linecap="round" x1="158.915" y1="198.023" x2="158.915" y2="201.624"/>
			
				<line fill="none" stroke="#FFFFFF" stroke-width="0.576" stroke-linecap="round" x1="175.116" y1="196.224" x2="178.716" y2="196.224"/>
			
				<line fill="none" stroke="#FFFFFF" stroke-width="0.576" stroke-linecap="round" x1="178.716" y1="196.224" x2="180.515" y2="198.023"/>
			
				<line fill="none" stroke="#FFFFFF" stroke-width="0.576" stroke-linecap="round" x1="180.515" y1="198.023" x2="180.515" y2="201.624"/>
			
				<line fill="none" stroke="#FFFFFF" stroke-width="0.576" stroke-linecap="round" x1="180.515" y1="201.624" x2="178.716" y2="203.423"/>
			
				<line fill="none" stroke="#FFFFFF" stroke-width="0.576" stroke-linecap="round" x1="175.116" y1="196.224" x2="173.315" y2="198.023"/>
			
				<line fill="none" stroke="#FFFFFF" stroke-width="0.576" stroke-linecap="round" x1="173.315" y1="201.624" x2="175.116" y2="203.423"/>
			
				<line fill="none" stroke="#FFFFFF" stroke-width="0.576" stroke-linecap="round" x1="178.716" y1="203.423" x2="175.116" y2="203.423"/>
		</g>
		<circle id="_x31_0" fill="none" stroke="#989898" stroke-miterlimit="10" cx="169.83" cy="199.824" r="2.053"/>
		<circle id="_x39_" fill="none" stroke="#989898" stroke-miterlimit="10" cx="177.031" cy="199.824" r="2.053"/>
		<circle id="_x38_" fill="none" stroke="#989898" stroke-miterlimit="10" cx="162.631" cy="199.824" r="2.053"/>
		<rect x="159.483" y="204.68" fill="#676767" width="20.692" height="6.944"/>
		<rect x="168.75" y="211.625" fill="#F4BC17" width="2.16" height="17.008"/>
		<rect x="175.949" y="211.625" fill="#F4BC17" width="2.16" height="17.008"/>
		<rect x="161.549" y="211.625" fill="#F4BC17" width="2.16" height="17.008"/>
		<g>
			<g id="connector8pin_5_">
				<path fill="#989898" d="M158.283,189.23c-1.408,0-2.553-1.145-2.553-2.552s1.145-2.553,2.553-2.553
					c1.406,0,2.551,1.146,2.551,2.553S159.689,189.23,158.283,189.23z M158.283,185.125c-0.855,0-1.553,0.696-1.553,1.553
					c0,0.855,0.697,1.552,1.553,1.552s1.551-0.696,1.551-1.552C159.834,185.822,159.139,185.125,158.283,185.125z"/>
			</g>
			<g id="connector8pin_4_">
				<path fill="#989898" d="M181.378,189.23c-1.407,0-2.553-1.145-2.553-2.552s1.146-2.553,2.553-2.553s2.551,1.146,2.551,2.553
					S182.785,189.23,181.378,189.23z M181.378,185.125c-0.856,0-1.553,0.696-1.553,1.553c0,0.855,0.696,1.552,1.553,1.552
					c0.854,0,1.551-0.696,1.551-1.552C182.929,185.822,182.232,185.125,181.378,185.125z"/>
			</g>
			<g>
				<g id="path_3_">
					<path fill="#8C8C8C" d="M159.737,188.166h-1.414c-0.804,0-1.455-0.65-1.455-1.455c0-0.803,0.651-1.455,1.455-1.455h1.414
						c0.804,0,1.455,0.652,1.455,1.455C161.192,187.515,160.541,188.166,159.737,188.166z"/>
				</g>
				<g id="path_2_">
					<path fill="#8C8C8C" d="M181.366,188.166h-1.414c-0.804,0-1.455-0.65-1.455-1.455c0-0.803,0.651-1.455,1.455-1.455h1.414
						c0.804,0,1.455,0.652,1.455,1.455C182.821,187.515,182.17,188.166,181.366,188.166z"/>
				</g>
				<g>
					<rect x="159.16" y="185.255" fill="#8C8C8C" width="21.374" height="2.91"/>
				</g>
				<g id="body">
					<path fill="#D8B376" d="M165.683,184.201c-0.288-0.133-0.783-0.236-1.101-0.236h-1.589c-0.317,0-0.576,0.26-0.576,0.576v4.285
						c0,0.318,0.259,0.576,0.576,0.576h1.589c0.317,0,0.812-0.109,1.101-0.236l0.058-0.029c0.288-0.131,0.783-0.234,1.1-0.234h5.749
						c0.317,0,0.812,0.109,1.1,0.234l0.058,0.029c0.289,0.133,0.783,0.236,1.101,0.236h1.59c0.317,0,0.576-0.258,0.576-0.576v-4.285
						c0-0.316-0.259-0.576-0.576-0.576h-1.59c-0.317,0-0.812,0.109-1.101,0.236l-0.058,0.029c-0.287,0.133-0.782,0.236-1.1,0.236
						h-5.749c-0.316,0-0.812-0.109-1.1-0.236L165.683,184.201z"/>
				</g>
				<g id="gold_band">
					<rect x="175.1" y="183.96" fill="#AC9E4D" width="0.562" height="5.436"/>
				</g>
				<g id="band_rd_multiplier">
					<rect x="170.423" y="184.466" fill="#F27037" width="1.479" height="4.43"/>
				</g>
				<g id="band_2_nd">
					<rect x="167.463" y="184.466" fill="#231F20" width="1.48" height="4.43"/>
				</g>
				<g id="band_1_st">
					<path fill="#8A3F1E" d="M165.987,184.316c-0.092-0.029-0.179-0.057-0.247-0.092l-0.058-0.029
						c-0.288-0.131-0.783-0.236-1.101-0.236h-0.068v5.438h0.068c0.317,0,0.812-0.109,1.101-0.236l0.058-0.027
						c0.068-0.035,0.155-0.064,0.247-0.094V184.316z"/>
				</g>
			</g>
		</g>
		<path fill="#F4BC17" d="M164.081,200.531v-0.707c0-0.805-0.651-1.455-1.455-1.455s-1.455,0.65-1.455,1.455v1.414
			c0,0.031,0.007,0.061,0.009,0.092v3.351h2.906v-4.149H164.081z"/>
		<path fill="#F4BC17" d="M178.474,200.531v-0.707c0-0.804-0.651-1.455-1.455-1.455s-1.455,0.651-1.455,1.455v1.414
			c0,0.031,0.007,0.061,0.009,0.092v3.352h2.906v-4.15H178.474z"/>
		<path fill="#F4BC17" d="M171.281,200.531v-0.707c0-0.805-0.651-1.455-1.455-1.455s-1.455,0.65-1.455,1.455v1.414
			c0,0.031,0.008,0.061,0.01,0.092v3.351h2.906v-4.149H171.281z"/>
		<rect id="connector0pin_1_" x="161.549" y="223.28" fill="#F2BB19" width="2.16" height="5.354"/>
		<rect id="connector1pin_1_" x="168.75" y="223.28" fill="#F2BB19" width="2.16" height="5.354"/>
		<rect id="connector2pin_1_" x="175.949" y="223.28" fill="#F2BB19" width="2.16" height="5.354"/>
		<rect id="connector0terminal" x="161.549" y="226.473" fill="#F4BC17" width="2.16" height="2.16"/>
		<rect id="connector1terminal" x="168.75" y="226.473" fill="#F4BC17" width="2.16" height="2.16"/>
		<rect id="connector2terminal" x="175.949" y="226.473" fill="#F4BC17" width="2.16" height="2.16"/>
	</g>
</g>
</svg>
